<ttFont>
    <TTGlyph name=".notdef" xMin="0" yMin="0" xMax="500" yMax="700">
      <contour>
        <pt x="0" y="700" on="1"/>
        <pt x="500" y="700" on="1"/>
        <pt x="500" y="0" on="1"/>
        <pt x="0" y="0" on="1"/>
      </contour>
      <contour>
        <pt x="50" y="650" on="1"/>
        <pt x="50" y="50" on="1"/>
        <pt x="450" y="50" on="1"/>
        <pt x="450" y="650" on="1"/>
      </contour>
      <contour>
        <pt x="229" y="278" on="1"/>
        <pt x="229" y="307" on="0"/>
        <pt x="256" y="345" on="0"/>
        <pt x="283" y="367" on="1"/>
        <pt x="311" y="390" on="0"/>
        <pt x="339" y="431" on="0"/>
        <pt x="339" y="465" on="1"/>
        <pt x="339" y="496" on="0"/>
        <pt x="301" y="552" on="0"/>
        <pt x="250" y="552" on="1"/>
        <pt x="192" y="552" on="0"/>
        <pt x="152" y="485" on="0"/>
        <pt x="152" y="452" on="1"/>
        <pt x="152" y="424" on="1"/>
        <pt x="103" y="424" on="1"/>
        <pt x="102" y="426" on="0"/>
        <pt x="99" y="444" on="0"/>
        <pt x="99" y="455" on="1"/>
        <pt x="99" y="478" on="0"/>
        <pt x="120" y="544" on="0"/>
        <pt x="187" y="602" on="0"/>
        <pt x="250" y="602" on="1"/>
        <pt x="313" y="602" on="0"/>
        <pt x="376" y="546" on="0"/>
        <pt x="393" y="486" on="0"/>
        <pt x="393" y="467" on="1"/>
        <pt x="393" y="422" on="0"/>
        <pt x="356" y="364" on="0"/>
        <pt x="326" y="338" on="1"/>
        <pt x="304" y="320" on="0"/>
        <pt x="282" y="290" on="0"/>
        <pt x="282" y="268" on="1"/>
        <pt x="282" y="215" on="1"/>
        <pt x="229" y="215" on="1"/>
      </contour>
      <contour>
        <pt x="225" y="169" on="1"/>
        <pt x="285" y="169" on="1"/>
        <pt x="285" y="99" on="1"/>
        <pt x="225" y="99" on="1"/>
      </contour>
    </TTGlyph>
    <TTGlyph name="A" xMin="22" yMin="0" xMax="663" yMax="688">
      <contour>
        <pt x="486" y="166" on="1"/>
        <pt x="195" y="166" on="1"/>
        <pt x="136" y="0" on="1"/>
        <pt x="22" y="0" on="1"/>
        <pt x="269" y="688" on="1"/>
        <pt x="416" y="688" on="1"/>
        <pt x="663" y="0" on="1"/>
        <pt x="547" y="0" on="1"/>
      </contour>
      <contour>
        <pt x="338" y="574" on="1"/>
        <pt x="228" y="267" on="1"/>
        <pt x="453" y="267" on="1"/>
        <pt x="343" y="574" on="1"/>
      </contour>
    </TTGlyph>
    <TTGlyph name="A.ss01" xMin="84" yMin="0" xMax="620" yMax="696">
      <contour>
        <pt x="507" y="218" on="1"/>
        <pt x="197" y="218" on="1"/>
        <pt x="197" y="0" on="1"/>
        <pt x="84" y="0" on="1"/>
        <pt x="84" y="383" on="1"/>
        <pt x="84" y="519" on="0"/>
        <pt x="120" y="645" on="0"/>
        <pt x="231" y="696" on="0"/>
        <pt x="352" y="696" on="1"/>
        <pt x="473" y="696" on="0"/>
        <pt x="584" y="645" on="0"/>
        <pt x="620" y="519" on="0"/>
        <pt x="620" y="383" on="1"/>
        <pt x="620" y="0" on="1"/>
        <pt x="507" y="0" on="1"/>
      </contour>
      <contour>
        <pt x="507" y="502" on="0"/>
        <pt x="490" y="569" on="0"/>
        <pt x="428" y="594" on="0"/>
        <pt x="352" y="594" on="1"/>
        <pt x="275" y="594" on="0"/>
        <pt x="213" y="569" on="0"/>
        <pt x="197" y="502" on="0"/>
        <pt x="197" y="418" on="1"/>
        <pt x="197" y="324" on="1"/>
        <pt x="507" y="324" on="1"/>
        <pt x="507" y="418" on="1"/>
      </contour>
    </TTGlyph>
    <TTGlyph name="AE" xMin="-11" yMin="0" xMax="904" yMax="688">
      <contour>
        <pt x="473" y="166" on="1"/>
        <pt x="182" y="166" on="1"/>
        <pt x="102" y="0" on="1"/>
        <pt x="-11" y="0" on="1"/>
        <pt x="315" y="688" on="1"/>
        <pt x="904" y="688" on="1"/>
        <pt x="904" y="586" on="1"/>
        <pt x="486" y="586" on="1"/>
        <pt x="534" y="398" on="1"/>
        <pt x="857" y="398" on="1"/>
        <pt x="857" y="296" on="1"/>
        <pt x="557" y="296" on="1"/>
        <pt x="607" y="102" on="1"/>
        <pt x="904" y="102" on="1"/>
        <pt x="904" y="0" on="1"/>
        <pt x="513" y="0" on="1"/>
      </contour>
      <contour>
        <pt x="371" y="574" on="1"/>
        <pt x="225" y="267" on="1"/>
        <pt x="451" y="267" on="1"/>
        <pt x="376" y="574" on="1"/>
      </contour>
    </TTGlyph>
    <TTGlyph name="AEacute" xMin="-11" yMin="0" xMax="904" yMax="888">
      <component glyphName="AE" x="0" y="0" flags="0x0"/>
      <component glyphName="acutecomb.case" x="666" y="0" flags="0x0"/>
    </TTGlyph>
    <TTGlyph name="Aacute" xMin="22" yMin="0" xMax="663" yMax="893">
      <component glyphName="A" x="0" y="0" flags="0x0"/>
      <component glyphName="acute" x="256" y="150" flags="0x4"/>
    </TTGlyph>
    <TTGlyph name="Aacute.ss01" xMin="84" yMin="0" xMax="620" yMax="893">
      <component glyphName="A.ss01" x="0" y="0" flags="0x0"/>
      <component glyphName="acute" x="285" y="150" flags="0x4"/>
    </TTGlyph>
    <TTGlyph name="Abreve" xMin="22" yMin="0" xMax="663" yMax="888">
      <component glyphName="A" x="0" y="0" flags="0x0"/>
      <component glyphName="uni0306.case" x="506" y="0" flags="0x0"/>
    </TTGlyph>
    <TTGlyph name="Abreve.ss01" xMin="84" yMin="0" xMax="620" yMax="888">
      <component glyphName="A.ss01" x="0" y="0" flags="0x0"/>
      <component glyphName="uni0306.case" x="516" y="0" flags="0x0"/>
    </TTGlyph>
    <TTGlyph name="Acircumflex" xMin="22" yMin="0" xMax="663" yMax="894">
      <component glyphName="A" x="0" y="0" flags="0x0"/>
      <component glyphName="circumflex" x="170" y="151" flags="0x4"/>
    </TTGlyph>
    <TTGlyph name="Acircumflex.ss01" xMin="84" yMin="0" xMax="620" yMax="894">
      <component glyphName="A.ss01" x="0" y="0" flags="0x0"/>
      <component glyphName="circumflex" x="181" y="151" flags="0x4"/>
    </TTGlyph>
    <TTGlyph name="Adieresis" xMin="22" yMin="0" xMax="663" yMax="871">
      <component glyphName="A" x="0" y="0" flags="0x0"/>
      <component glyphName="dieresis" x="178" y="141" flags="0x4"/>
    </TTGlyph>
    <TTGlyph name="Adieresis.ss01" xMin="84" yMin="0" xMax="620" yMax="871">
      <component glyphName="A.ss01" x="0" y="0" flags="0x0"/>
      <component glyphName="dieresis" x="193" y="141" flags="0x4"/>
    </TTGlyph>
    <TTGlyph name="Agrave" xMin="22" yMin="0" xMax="663" yMax="893">
      <component glyphName="A" x="0" y="0" flags="0x0"/>
      <component glyphName="grave" x="178" y="150" flags="0x4"/>
    </TTGlyph>
    <TTGlyph name="Agrave.ss01" xMin="84" yMin="0" xMax="620" yMax="893">
      <component glyphName="A.ss01" x="0" y="0" flags="0x0"/>
      <component glyphName="grave" x="177" y="150" flags="0x4"/>
    </TTGlyph>
    <TTGlyph name="Amacron" xMin="22" yMin="0" xMax="663" yMax="887">
      <component glyphName="A" x="0" y="0" flags="0x0"/>
      <component glyphName="uni0304.case" x="526" y="0" flags="0x0"/>
    </TTGlyph>
    <TTGlyph name="Amacron.ss01" xMin="84" yMin="0" xMax="620" yMax="887">
      <component glyphName="A.ss01" x="0" y="0" flags="0x0"/>
      <component glyphName="uni0304.case" x="536" y="0" flags="0x0"/>
    </TTGlyph>
    <TTGlyph name="Aogonek" xMin="22" yMin="-196" xMax="663" yMax="688">
      <contour>
        <pt x="578" y="-127" on="0"/>
        <pt x="625" y="-127" on="1"/>
        <pt x="642" y="-126" on="1"/>
        <pt x="642" y="-193" on="1"/>
        <pt x="609" y="-196" on="0"/>
        <pt x="594" y="-196" on="1"/>
        <pt x="535" y="-196" on="0"/>
        <pt x="487" y="-153" on="0"/>
        <pt x="487" y="-116" on="1"/>
        <pt x="487" y="-88" on="0"/>
        <pt x="519" y="-27" on="0"/>
        <pt x="546" y="1" on="1"/>
        <pt x="486" y="166" on="1"/>
        <pt x="195" y="166" on="1"/>
        <pt x="136" y="0" on="1"/>
        <pt x="22" y="0" on="1"/>
        <pt x="269" y="688" on="1"/>
        <pt x="416" y="688" on="1"/>
        <pt x="663" y="0" on="1"/>
        <pt x="636" y="0" on="1"/>
        <pt x="614" y="-17" on="0"/>
        <pt x="578" y="-69" on="0"/>
        <pt x="578" y="-90" on="1"/>
      </contour>
      <contour>
        <pt x="453" y="267" on="1"/>
        <pt x="343" y="574" on="1"/>
        <pt x="338" y="574" on="1"/>
        <pt x="228" y="267" on="1"/>
      </contour>
    </TTGlyph>
    <TTGlyph name="Aogonek.ss01" xMin="84" yMin="-196" xMax="620" yMax="696">
      <contour>
        <pt x="575" y="-17" on="0"/>
        <pt x="539" y="-69" on="0"/>
        <pt x="539" y="-90" on="1"/>
        <pt x="539" y="-108" on="0"/>
        <pt x="560" y="-127" on="0"/>
        <pt x="586" y="-127" on="1"/>
        <pt x="597" y="-127" on="0"/>
        <pt x="603" y="-125" on="1"/>
        <pt x="603" y="-193" on="1"/>
        <pt x="580" y="-196" on="0"/>
        <pt x="554" y="-196" on="1"/>
        <pt x="495" y="-196" on="0"/>
        <pt x="448" y="-153" on="0"/>
        <pt x="448" y="-116" on="1"/>
        <pt x="448" y="-88" on="0"/>
        <pt x="480" y="-27" on="0"/>
        <pt x="507" y="1" on="1"/>
        <pt x="507" y="218" on="1"/>
        <pt x="197" y="218" on="1"/>
        <pt x="197" y="0" on="1"/>
        <pt x="84" y="0" on="1"/>
        <pt x="84" y="383" on="1"/>
        <pt x="84" y="519" on="0"/>
        <pt x="120" y="645" on="0"/>
        <pt x="231" y="696" on="0"/>
        <pt x="352" y="696" on="1"/>
        <pt x="473" y="696" on="0"/>
        <pt x="584" y="645" on="0"/>
        <pt x="620" y="519" on="0"/>
        <pt x="620" y="383" on="1"/>
        <pt x="620" y="0" on="1"/>
        <pt x="597" y="0" on="1"/>
      </contour>
      <contour>
        <pt x="507" y="324" on="1"/>
        <pt x="507" y="418" on="1"/>
        <pt x="507" y="502" on="0"/>
        <pt x="490" y="569" on="0"/>
        <pt x="428" y="594" on="0"/>
        <pt x="352" y="594" on="1"/>
        <pt x="275" y="594" on="0"/>
        <pt x="213" y="569" on="0"/>
        <pt x="197" y="502" on="0"/>
        <pt x="197" y="418" on="1"/>
        <pt x="197" y="324" on="1"/>
      </contour>
    </TTGlyph>
    <TTGlyph name="Aring" xMin="22" yMin="0" xMax="663" yMax="904">
      <contour>
        <pt x="663" y="0" on="1"/>
        <pt x="547" y="0" on="1"/>
        <pt x="486" y="166" on="1"/>
        <pt x="195" y="166" on="1"/>
        <pt x="136" y="0" on="1"/>
        <pt x="22" y="0" on="1"/>
        <pt x="265" y="684" on="1"/>
        <pt x="239" y="691" on="0"/>
        <pt x="215" y="717" on="0"/>
        <pt x="208" y="755" on="0"/>
        <pt x="208" y="790" on="1"/>
        <pt x="208" y="835" on="0"/>
        <pt x="223" y="880" on="0"/>
        <pt x="280" y="904" on="0"/>
        <pt x="342" y="904" on="1"/>
        <pt x="405" y="904" on="0"/>
        <pt x="462" y="880" on="0"/>
        <pt x="478" y="835" on="0"/>
        <pt x="478" y="790" on="1"/>
        <pt x="478" y="756" on="0"/>
        <pt x="471" y="717" on="0"/>
        <pt x="446" y="691" on="0"/>
        <pt x="419" y="684" on="1"/>
      </contour>
      <contour>
        <pt x="307" y="850" on="0"/>
        <pt x="278" y="840" on="0"/>
        <pt x="271" y="817" on="0"/>
        <pt x="271" y="790" on="1"/>
        <pt x="271" y="763" on="0"/>
        <pt x="278" y="740" on="0"/>
        <pt x="307" y="730" on="0"/>
        <pt x="342" y="730" on="1"/>
        <pt x="378" y="730" on="0"/>
        <pt x="407" y="740" on="0"/>
        <pt x="414" y="762" on="0"/>
        <pt x="414" y="790" on="1"/>
        <pt x="414" y="818" on="0"/>
        <pt x="407" y="840" on="0"/>
        <pt x="378" y="850" on="0"/>
        <pt x="342" y="850" on="1"/>
      </contour>
      <contour>
        <pt x="453" y="267" on="1"/>
        <pt x="343" y="574" on="1"/>
        <pt x="338" y="574" on="1"/>
        <pt x="228" y="267" on="1"/>
      </contour>
    </TTGlyph>
    <TTGlyph name="Aring.ss01" xMin="84" yMin="0" xMax="620" yMax="962">
      <component glyphName="A.ss01" x="0" y="0" flags="0x0"/>
      <component glyphName="ring" x="199" y="139" flags="0x4"/>
    </TTGlyph>
    <TTGlyph name="Aringacute" xMin="22" yMin="0" xMax="663" yMax="1104">
      <component glyphName="Aring" x="0" y="0" flags="0x0"/>
      <component glyphName="acutecomb.case" x="528" y="216" flags="0x4"/>
    </TTGlyph>
    <TTGlyph name="Aringacute.ss01" xMin="84" yMin="0" xMax="620" yMax="1108">
      <component glyphName="A.ss01" x="0" y="0" flags="0x0"/>
      <component glyphName="uni030A.case" x="510" y="0" flags="0x0"/>
      <component glyphName="acutecomb.case" x="541" y="220" flags="0x4"/>
    </TTGlyph>
    <TTGlyph name="Atilde" xMin="22" yMin="0" xMax="663" yMax="889">
      <component glyphName="A" x="0" y="0" flags="0x0"/>
      <component glyphName="tilde" x="137" y="145" flags="0x4"/>
    </TTGlyph>
    <TTGlyph name="Atilde.ss01" xMin="84" yMin="0" xMax="620" yMax="888">
      <component glyphName="A.ss01" x="0" y="0" flags="0x0"/>
      <component glyphName="tilde" x="148" y="144" flags="0x4"/>
    </TTGlyph>
    <TTGlyph name="B" xMin="92" yMin="0" xMax="615" yMax="688">
      <contour>
        <pt x="92" y="688" on="1"/>
        <pt x="419" y="688" on="1"/>
        <pt x="519" y="688" on="0"/>
        <pt x="608" y="601" on="0"/>
        <pt x="608" y="515" on="1"/>
        <pt x="608" y="445" on="0"/>
        <pt x="551" y="366" on="0"/>
        <pt x="490" y="353" on="1"/>
        <pt x="490" y="349" on="1"/>
        <pt x="559" y="335" on="0"/>
        <pt x="615" y="255" on="0"/>
        <pt x="615" y="182" on="1"/>
        <pt x="615" y="95" on="0"/>
        <pt x="528" y="0" on="0"/>
        <pt x="419" y="0" on="1"/>
        <pt x="92" y="0" on="1"/>
      </contour>
      <contour>
        <pt x="442" y="399" on="0"/>
        <pt x="495" y="442" on="0"/>
        <pt x="495" y="492" on="1"/>
        <pt x="495" y="530" on="0"/>
        <pt x="476" y="570" on="0"/>
        <pt x="428" y="586" on="0"/>
        <pt x="381" y="586" on="1"/>
        <pt x="205" y="586" on="1"/>
        <pt x="205" y="399" on="1"/>
        <pt x="381" y="399" on="1"/>
      </contour>
      <contour>
        <pt x="431" y="101" on="0"/>
        <pt x="481" y="119" on="0"/>
        <pt x="502" y="161" on="0"/>
        <pt x="502" y="199" on="1"/>
        <pt x="502" y="254" on="0"/>
        <pt x="451" y="297" on="0"/>
        <pt x="385" y="297" on="1"/>
        <pt x="205" y="297" on="1"/>
        <pt x="205" y="101" on="1"/>
        <pt x="385" y="101" on="1"/>
      </contour>
    </TTGlyph>
    <TTGlyph name="C" xMin="69" yMin="-8" xMax="521" yMax="696">
      <contour>
        <pt x="488" y="0" on="0"/>
        <pt x="393" y="-8" on="0"/>
        <pt x="352" y="-8" on="1"/>
        <pt x="227" y="-8" on="0"/>
        <pt x="109" y="50" on="0"/>
        <pt x="69" y="194" on="0"/>
        <pt x="69" y="344" on="1"/>
        <pt x="69" y="494" on="0"/>
        <pt x="109" y="638" on="0"/>
        <pt x="227" y="696" on="0"/>
        <pt x="352" y="696" on="1"/>
        <pt x="394" y="696" on="0"/>
        <pt x="487" y="686" on="0"/>
        <pt x="517" y="679" on="1"/>
        <pt x="517" y="584" on="1"/>
        <pt x="437" y="594" on="0"/>
        <pt x="380" y="594" on="1"/>
        <pt x="282" y="594" on="0"/>
        <pt x="206" y="564" on="0"/>
        <pt x="182" y="468" on="0"/>
        <pt x="182" y="344" on="1"/>
        <pt x="182" y="220" on="0"/>
        <pt x="206" y="124" on="0"/>
        <pt x="282" y="94" on="0"/>
        <pt x="380" y="94" on="1"/>
        <pt x="458" y="94" on="0"/>
        <pt x="521" y="104" on="1"/>
        <pt x="521" y="7" on="1"/>
      </contour>
    </TTGlyph>
    <TTGlyph name="Cacute" xMin="69" yMin="-8" xMax="521" yMax="888">
      <component glyphName="C" x="0" y="0" flags="0x0"/>
      <component glyphName="acutecomb.case" x="473" y="0" flags="0x0"/>
    </TTGlyph>
    <TTGlyph name="Cacute.loclPLK" xMin="69" yMin="-8" xMax="521" yMax="888">
      <component glyphName="C" x="0" y="0" flags="0x0"/>
      <component glyphName="acute.case.loclPLK" x="224" y="0" flags="0x0"/>
    </TTGlyph>
    <TTGlyph name="Ccaron" xMin="69" yMin="-8" xMax="521" yMax="888">
      <component glyphName="C" x="0" y="0" flags="0x0"/>
      <component glyphName="uni030C.case" x="460" y="0" flags="0x0"/>
    </TTGlyph>
    <TTGlyph name="Ccedilla" xMin="69" yMin="-190" xMax="521" yMax="696">
      <contour>
        <pt x="458" y="94" on="0"/>
        <pt x="521" y="104" on="1"/>
        <pt x="521" y="7" on="1"/>
        <pt x="488" y="0" on="0"/>
        <pt x="393" y="-8" on="0"/>
        <pt x="352" y="-8" on="1"/>
        <pt x="322" y="-8" on="1"/>
        <pt x="285" y="-190" on="1"/>
        <pt x="182" y="-190" on="1"/>
        <pt x="182" y="-185" on="1"/>
        <pt x="247" y="-2" on="1"/>
        <pt x="171" y="9" on="0"/>
        <pt x="96" y="80" on="0"/>
        <pt x="69" y="218" on="0"/>
        <pt x="69" y="344" on="1"/>
        <pt x="69" y="494" on="0"/>
        <pt x="109" y="638" on="0"/>
        <pt x="227" y="696" on="0"/>
        <pt x="352" y="696" on="1"/>
        <pt x="394" y="696" on="0"/>
        <pt x="487" y="686" on="0"/>
        <pt x="517" y="679" on="1"/>
        <pt x="517" y="584" on="1"/>
        <pt x="437" y="594" on="0"/>
        <pt x="380" y="594" on="1"/>
        <pt x="282" y="594" on="0"/>
        <pt x="206" y="564" on="0"/>
        <pt x="182" y="468" on="0"/>
        <pt x="182" y="344" on="1"/>
        <pt x="182" y="220" on="0"/>
        <pt x="206" y="124" on="0"/>
        <pt x="282" y="94" on="0"/>
        <pt x="380" y="94" on="1"/>
      </contour>
    </TTGlyph>
    <TTGlyph name="Ccircumflex" xMin="69" yMin="-8" xMax="521" yMax="888">
      <component glyphName="C" x="0" y="0" flags="0x0"/>
      <component glyphName="uni0302.case" x="460" y="0" flags="0x0"/>
    </TTGlyph>
    <TTGlyph name="Cdotaccent" xMin="69" yMin="-8" xMax="521" yMax="875">
      <component glyphName="C" x="0" y="0" flags="0x0"/>
      <component glyphName="uni0307.case" x="354" y="0" flags="0x0"/>
    </TTGlyph>
    <TTGlyph name="D" xMin="92" yMin="0" xMax="617" yMax="688">
      <contour>
        <pt x="92" y="688" on="1"/>
        <pt x="318" y="688" on="1"/>
        <pt x="464" y="688" on="0"/>
        <pt x="585" y="634" on="0"/>
        <pt x="617" y="503" on="0"/>
        <pt x="617" y="344" on="1"/>
        <pt x="617" y="185" on="0"/>
        <pt x="585" y="53" on="0"/>
        <pt x="464" y="0" on="0"/>
        <pt x="318" y="0" on="1"/>
        <pt x="92" y="0" on="1"/>
      </contour>
      <contour>
        <pt x="307" y="102" on="1"/>
        <pt x="413" y="102" on="0"/>
        <pt x="484" y="124" on="0"/>
        <pt x="505" y="214" on="0"/>
        <pt x="505" y="344" on="1"/>
        <pt x="505" y="472" on="0"/>
        <pt x="483" y="563" on="0"/>
        <pt x="411" y="586" on="0"/>
        <pt x="307" y="586" on="1"/>
        <pt x="205" y="586" on="1"/>
        <pt x="205" y="102" on="1"/>
      </contour>
    </TTGlyph>
    <TTGlyph name="Dcaron" xMin="92" yMin="0" xMax="617" yMax="888">
      <component glyphName="D" x="0" y="0" flags="0x0"/>
      <component glyphName="uni030C.case" x="517" y="0" flags="0x0"/>
    </TTGlyph>
    <TTGlyph name="Dcroat" xMin="24" yMin="0" xMax="617" yMax="688">
      <component glyphName="Eth" x="0" y="0" flags="0x0"/>
    </TTGlyph>
    <TTGlyph name="E" xMin="92" yMin="0" xMax="551" yMax="688">
      <contour>
        <pt x="92" y="688" on="1"/>
        <pt x="551" y="688" on="1"/>
        <pt x="551" y="586" on="1"/>
        <pt x="205" y="586" on="1"/>
        <pt x="205" y="398" on="1"/>
        <pt x="504" y="398" on="1"/>
        <pt x="504" y="296" on="1"/>
        <pt x="205" y="296" on="1"/>
        <pt x="205" y="102" on="1"/>
        <pt x="551" y="102" on="1"/>
        <pt x="551" y="0" on="1"/>
        <pt x="92" y="0" on="1"/>
      </contour>
    </TTGlyph>
    <TTGlyph name="Eacute" xMin="92" yMin="0" xMax="551" yMax="893">
      <component glyphName="E" x="0" y="0" flags="0x0"/>
      <component glyphName="acute" x="263" y="150" flags="0x4"/>
    </TTGlyph>
    <TTGlyph name="Ebreve" xMin="92" yMin="0" xMax="551" yMax="888">
      <component glyphName="E" x="0" y="0" flags="0x0"/>
      <component glyphName="uni0306.case" x="485" y="0" flags="0x0"/>
    </TTGlyph>
    <TTGlyph name="Ecaron" xMin="92" yMin="0" xMax="551" yMax="888">
      <component glyphName="E" x="0" y="0" flags="0x0"/>
      <component glyphName="uni030C.case" x="495" y="0" flags="0x0"/>
    </TTGlyph>
    <TTGlyph name="Ecircumflex" xMin="92" yMin="0" xMax="551" yMax="894">
      <component glyphName="E" x="0" y="0" flags="0x0"/>
      <component glyphName="circumflex" x="147" y="151" flags="0x4"/>
    </TTGlyph>
    <TTGlyph name="Edieresis" xMin="92" yMin="0" xMax="551" yMax="871">
      <component glyphName="E" x="0" y="0" flags="0x0"/>
      <component glyphName="dieresis" x="161" y="141" flags="0x4"/>
    </TTGlyph>
    <TTGlyph name="Edotaccent" xMin="92" yMin="0" xMax="551" yMax="875">
      <component glyphName="E" x="0" y="0" flags="0x0"/>
      <component glyphName="uni0307.case" x="389" y="0" flags="0x0"/>
    </TTGlyph>
    <TTGlyph name="Egrave" xMin="92" yMin="0" xMax="551" yMax="893">
      <component glyphName="E" x="0" y="0" flags="0x0"/>
      <component glyphName="grave" x="153" y="150" flags="0x4"/>
    </TTGlyph>
    <TTGlyph name="Emacron" xMin="92" yMin="0" xMax="551" yMax="887">
      <component glyphName="E" x="0" y="0" flags="0x0"/>
      <component glyphName="uni0304.case" x="505" y="0" flags="0x0"/>
    </TTGlyph>
    <TTGlyph name="Eng" xMin="92" yMin="-200" xMax="637" yMax="688">
      <contour>
        <pt x="637" y="688" on="1"/>
        <pt x="637" y="-36" on="1"/>
        <pt x="637" y="-112" on="0"/>
        <pt x="603" y="-180" on="0"/>
        <pt x="523" y="-200" on="0"/>
        <pt x="437" y="-200" on="1"/>
        <pt x="437" y="-114" on="1"/>
        <pt x="479" y="-114" on="0"/>
        <pt x="518" y="-104" on="0"/>
        <pt x="529" y="-82" on="0"/>
        <pt x="529" y="-59" on="1"/>
        <pt x="529" y="0" on="1"/>
        <pt x="204" y="482" on="1"/>
        <pt x="200" y="482" on="1"/>
        <pt x="200" y="0" on="1"/>
        <pt x="92" y="0" on="1"/>
        <pt x="92" y="688" on="1"/>
        <pt x="209" y="688" on="1"/>
        <pt x="525" y="223" on="1"/>
        <pt x="529" y="223" on="1"/>
        <pt x="529" y="688" on="1"/>
      </contour>
    </TTGlyph>
    <TTGlyph name="Eogonek" xMin="92" yMin="-196" xMax="551" yMax="688">
      <contour>
        <pt x="392" y="-196" on="0"/>
        <pt x="392" y="-119" on="1"/>
        <pt x="392" y="-61" on="0"/>
        <pt x="459" y="0" on="1"/>
        <pt x="92" y="0" on="1"/>
        <pt x="92" y="688" on="1"/>
        <pt x="551" y="688" on="1"/>
        <pt x="551" y="586" on="1"/>
        <pt x="205" y="586" on="1"/>
        <pt x="205" y="398" on="1"/>
        <pt x="504" y="398" on="1"/>
        <pt x="504" y="296" on="1"/>
        <pt x="205" y="296" on="1"/>
        <pt x="205" y="102" on="1"/>
        <pt x="551" y="102" on="1"/>
        <pt x="551" y="0" on="1"/>
        <pt x="526" y="-16" on="0"/>
        <pt x="482" y="-69" on="0"/>
        <pt x="482" y="-92" on="1"/>
        <pt x="482" y="-107" on="0"/>
        <pt x="504" y="-127" on="0"/>
        <pt x="528" y="-127" on="1"/>
        <pt x="547" y="-126" on="1"/>
        <pt x="547" y="-193" on="1"/>
        <pt x="545" y="-193" on="0"/>
        <pt x="516" y="-196" on="0"/>
        <pt x="498" y="-196" on="1"/>
      </contour>
    </TTGlyph>
    <TTGlyph name="Eth" xMin="24" yMin="0" xMax="617" yMax="688">
      <contour>
        <pt x="92" y="302" on="1"/>
        <pt x="24" y="302" on="1"/>
        <pt x="24" y="394" on="1"/>
        <pt x="92" y="394" on="1"/>
        <pt x="92" y="688" on="1"/>
        <pt x="318" y="688" on="1"/>
        <pt x="464" y="688" on="0"/>
        <pt x="585" y="634" on="0"/>
        <pt x="617" y="503" on="0"/>
        <pt x="617" y="344" on="1"/>
        <pt x="617" y="185" on="0"/>
        <pt x="585" y="53" on="0"/>
        <pt x="464" y="0" on="0"/>
        <pt x="318" y="0" on="1"/>
        <pt x="92" y="0" on="1"/>
      </contour>
      <contour>
        <pt x="413" y="102" on="0"/>
        <pt x="484" y="124" on="0"/>
        <pt x="505" y="214" on="0"/>
        <pt x="505" y="344" on="1"/>
        <pt x="505" y="472" on="0"/>
        <pt x="483" y="563" on="0"/>
        <pt x="411" y="586" on="0"/>
        <pt x="307" y="586" on="1"/>
        <pt x="205" y="586" on="1"/>
        <pt x="205" y="394" on="1"/>
        <pt x="305" y="394" on="1"/>
        <pt x="305" y="302" on="1"/>
        <pt x="205" y="302" on="1"/>
        <pt x="205" y="102" on="1"/>
        <pt x="307" y="102" on="1"/>
      </contour>
    </TTGlyph>
    <TTGlyph name="Euro" xMin="35" yMin="-8" xMax="565" yMax="696">
      <contour>
        <pt x="289" y="-8" on="0"/>
        <pt x="177" y="32" on="0"/>
        <pt x="127" y="134" on="0"/>
        <pt x="121" y="234" on="1"/>
        <pt x="35" y="234" on="1"/>
        <pt x="35" y="303" on="1"/>
        <pt x="118" y="303" on="1"/>
        <pt x="118" y="387" on="1"/>
        <pt x="35" y="387" on="1"/>
        <pt x="35" y="456" on="1"/>
        <pt x="121" y="456" on="1"/>
        <pt x="127" y="550" on="0"/>
        <pt x="178" y="652" on="0"/>
        <pt x="292" y="696" on="0"/>
        <pt x="397" y="696" on="1"/>
        <pt x="479" y="696" on="0"/>
        <pt x="560" y="679" on="0"/>
        <pt x="561" y="679" on="1"/>
        <pt x="561" y="585" on="1"/>
        <pt x="545" y="587" on="0"/>
        <pt x="461" y="594" on="0"/>
        <pt x="426" y="594" on="1"/>
        <pt x="345" y="594" on="0"/>
        <pt x="271" y="577" on="0"/>
        <pt x="238" y="520" on="0"/>
        <pt x="234" y="456" on="1"/>
        <pt x="512" y="456" on="1"/>
        <pt x="512" y="387" on="1"/>
        <pt x="233" y="387" on="1"/>
        <pt x="233" y="303" on="1"/>
        <pt x="512" y="303" on="1"/>
        <pt x="512" y="234" on="1"/>
        <pt x="234" y="234" on="1"/>
        <pt x="238" y="169" on="0"/>
        <pt x="271" y="111" on="0"/>
        <pt x="345" y="94" on="0"/>
        <pt x="426" y="94" on="1"/>
        <pt x="472" y="94" on="0"/>
        <pt x="552" y="101" on="0"/>
        <pt x="565" y="103" on="1"/>
        <pt x="565" y="6" on="1"/>
        <pt x="481" y="-8" on="0"/>
        <pt x="397" y="-8" on="1"/>
      </contour>
    </TTGlyph>
    <TTGlyph name="F" xMin="92" yMin="0" xMax="531" yMax="688">
      <contour>
        <pt x="92" y="688" on="1"/>
        <pt x="531" y="688" on="1"/>
        <pt x="531" y="586" on="1"/>
        <pt x="205" y="586" on="1"/>
        <pt x="205" y="381" on="1"/>
        <pt x="494" y="381" on="1"/>
        <pt x="494" y="279" on="1"/>
        <pt x="205" y="279" on="1"/>
        <pt x="205" y="0" on="1"/>
        <pt x="92" y="0" on="1"/>
      </contour>
    </TTGlyph>
    <TTGlyph name="G" xMin="69" yMin="-8" xMax="592" yMax="696">
      <contour>
        <pt x="348" y="285" on="1"/>
        <pt x="348" y="383" on="1"/>
        <pt x="592" y="383" on="1"/>
        <pt x="592" y="14" on="1"/>
        <pt x="540" y="4" on="0"/>
        <pt x="414" y="-8" on="0"/>
        <pt x="367" y="-8" on="1"/>
        <pt x="240" y="-8" on="0"/>
        <pt x="116" y="50" on="0"/>
        <pt x="69" y="197" on="0"/>
        <pt x="69" y="344" on="1"/>
        <pt x="69" y="491" on="0"/>
        <pt x="117" y="638" on="0"/>
        <pt x="241" y="696" on="0"/>
        <pt x="367" y="696" on="1"/>
        <pt x="417" y="696" on="0"/>
        <pt x="541" y="684" on="0"/>
        <pt x="588" y="674" on="1"/>
        <pt x="588" y="579" on="1"/>
        <pt x="475" y="594" on="0"/>
        <pt x="415" y="594" on="1"/>
        <pt x="302" y="594" on="0"/>
        <pt x="215" y="570" on="0"/>
        <pt x="182" y="470" on="0"/>
        <pt x="182" y="344" on="1"/>
        <pt x="182" y="228" on="0"/>
        <pt x="207" y="127" on="0"/>
        <pt x="283" y="91" on="0"/>
        <pt x="370" y="91" on="1"/>
        <pt x="444" y="91" on="0"/>
        <pt x="483" y="97" on="1"/>
        <pt x="483" y="285" on="1"/>
      </contour>
    </TTGlyph>
    <TTGlyph name="G.ss01" xMin="69" yMin="-8" xMax="624" yMax="696">
      <contour>
        <pt x="238" y="-8" on="0"/>
        <pt x="114" y="50" on="0"/>
        <pt x="69" y="195" on="0"/>
        <pt x="69" y="344" on="1"/>
        <pt x="69" y="490" on="0"/>
        <pt x="119" y="637" on="0"/>
        <pt x="247" y="696" on="0"/>
        <pt x="375" y="696" on="1"/>
        <pt x="425" y="696" on="0"/>
        <pt x="550" y="684" on="0"/>
        <pt x="599" y="674" on="1"/>
        <pt x="599" y="579" on="1"/>
        <pt x="484" y="594" on="0"/>
        <pt x="424" y="594" on="1"/>
        <pt x="307" y="594" on="0"/>
        <pt x="217" y="570" on="0"/>
        <pt x="182" y="470" on="0"/>
        <pt x="182" y="344" on="1"/>
        <pt x="182" y="226" on="0"/>
        <pt x="208" y="124" on="0"/>
        <pt x="279" y="93" on="0"/>
        <pt x="362" y="93" on="1"/>
        <pt x="438" y="93" on="0"/>
        <pt x="496" y="114" on="0"/>
        <pt x="512" y="179" on="0"/>
        <pt x="512" y="267" on="1"/>
        <pt x="512" y="293" on="1"/>
        <pt x="371" y="293" on="1"/>
        <pt x="371" y="392" on="1"/>
        <pt x="624" y="392" on="1"/>
        <pt x="624" y="296" on="1"/>
        <pt x="624" y="158" on="0"/>
        <pt x="598" y="42" on="0"/>
        <pt x="493" y="-8" on="0"/>
        <pt x="367" y="-8" on="1"/>
      </contour>
    </TTGlyph>
    <TTGlyph name="G_tilde.loclGUA" xMin="69" yMin="-8" xMax="592" yMax="889">
      <component glyphName="G" x="0" y="0" flags="0x0"/>
      <component glyphName="tildecomb.case" x="543" y="0" flags="0x0"/>
    </TTGlyph>
    <TTGlyph name="Gbreve" xMin="69" yMin="-8" xMax="592" yMax="888">
      <component glyphName="G" x="0" y="0" flags="0x0"/>
      <component glyphName="uni0306.case" x="500" y="0" flags="0x0"/>
    </TTGlyph>
    <TTGlyph name="Gbreve.ss01" xMin="69" yMin="-8" xMax="624" yMax="888">
      <component glyphName="G.ss01" x="0" y="0" flags="0x0"/>
      <component glyphName="uni0306.case" x="509" y="0" flags="0x0"/>
    </TTGlyph>
    <TTGlyph name="Gcaron" xMin="69" yMin="-8" xMax="592" yMax="888">
      <component glyphName="G" x="0" y="0" flags="0x0"/>
      <component glyphName="uni030C.case" x="510" y="0" flags="0x0"/>
    </TTGlyph>
    <TTGlyph name="Gcaron.ss01" xMin="69" yMin="-8" xMax="624" yMax="888">
      <component glyphName="G.ss01" x="0" y="0" flags="0x0"/>
      <component glyphName="uni030C.case" x="519" y="0" flags="0x0"/>
    </TTGlyph>
    <TTGlyph name="Gcircumflex" xMin="69" yMin="-8" xMax="592" yMax="888">
      <component glyphName="G" x="0" y="0" flags="0x0"/>
      <component glyphName="uni0302.case" x="510" y="0" flags="0x0"/>
    </TTGlyph>
    <TTGlyph name="Gcircumflex.ss01" xMin="69" yMin="-8" xMax="624" yMax="888">
      <component glyphName="G.ss01" x="0" y="0" flags="0x0"/>
      <component glyphName="uni0302.case" x="519" y="0" flags="0x0"/>
    </TTGlyph>
    <TTGlyph name="Gcommaaccent" xMin="69" yMin="-283" xMax="592" yMax="696">
      <component glyphName="G" x="0" y="0" flags="0x0"/>
      <component glyphName="uni0326" x="466" y="0" flags="0x0"/>
    </TTGlyph>
    <TTGlyph name="Gcommaaccent.ss01" xMin="69" yMin="-283" xMax="624" yMax="696">
      <component glyphName="G.ss01" x="0" y="0" flags="0x0"/>
      <component glyphName="uni0326" x="475" y="0" flags="0x0"/>
    </TTGlyph>
    <TTGlyph name="Gdotaccent" xMin="69" yMin="-8" xMax="592" yMax="875">
      <component glyphName="G" x="0" y="0" flags="0x0"/>
      <component glyphName="uni0307.case" x="404" y="0" flags="0x0"/>
    </TTGlyph>
    <TTGlyph name="Gdotaccent.ss01" xMin="69" yMin="-8" xMax="624" yMax="875">
      <component glyphName="G.ss01" x="0" y="0" flags="0x0"/>
      <component glyphName="uni0307.case" x="413" y="0" flags="0x0"/>
    </TTGlyph>
    <TTGlyph name="Gtilde.loclGUA.ss01" xMin="69" yMin="-8" xMax="624" yMax="889">
      <component glyphName="G.ss01" x="0" y="0" flags="0x0"/>
      <component glyphName="tildecomb.case" x="552" y="0" flags="0x0"/>
    </TTGlyph>
    <TTGlyph name="H" xMin="92" yMin="0" xMax="637" yMax="688">
      <contour>
        <pt x="525" y="294" on="1"/>
        <pt x="205" y="294" on="1"/>
        <pt x="205" y="0" on="1"/>
        <pt x="92" y="0" on="1"/>
        <pt x="92" y="688" on="1"/>
        <pt x="205" y="688" on="1"/>
        <pt x="205" y="399" on="1"/>
        <pt x="525" y="399" on="1"/>
        <pt x="525" y="688" on="1"/>
        <pt x="637" y="688" on="1"/>
        <pt x="637" y="0" on="1"/>
        <pt x="525" y="0" on="1"/>
      </contour>
    </TTGlyph>
    <TTGlyph name="Hbar" xMin="92" yMin="0" xMax="637" yMax="688">
      <contour>
        <pt x="637" y="688" on="1"/>
        <pt x="637" y="0" on="1"/>
        <pt x="525" y="0" on="1"/>
        <pt x="525" y="255" on="1"/>
        <pt x="205" y="255" on="1"/>
        <pt x="205" y="0" on="1"/>
        <pt x="92" y="0" on="1"/>
        <pt x="92" y="688" on="1"/>
        <pt x="205" y="688" on="1"/>
        <pt x="205" y="566" on="1"/>
        <pt x="525" y="566" on="1"/>
        <pt x="525" y="688" on="1"/>
      </contour>
      <contour>
        <pt x="525" y="361" on="1"/>
        <pt x="525" y="474" on="1"/>
        <pt x="205" y="474" on="1"/>
        <pt x="205" y="361" on="1"/>
      </contour>
    </TTGlyph>
    <TTGlyph name="Hcircumflex" xMin="92" yMin="0" xMax="637" yMax="888">
      <component glyphName="H" x="0" y="0" flags="0x0"/>
      <component glyphName="uni0302.case" x="538" y="0" flags="0x0"/>
    </TTGlyph>
    <TTGlyph name="I" xMin="92" yMin="0" xMax="205" yMax="688">
      <contour>
        <pt x="92" y="688" on="1"/>
        <pt x="205" y="688" on="1"/>
        <pt x="205" y="0" on="1"/>
        <pt x="92" y="0" on="1"/>
      </contour>
    </TTGlyph>
    <TTGlyph name="IJ" xMin="92" yMin="0" xMax="582" yMax="688">
      <component glyphName="I" x="0" y="0" flags="0x0"/>
      <component glyphName="J" x="296" y="0" flags="0x0"/>
    </TTGlyph>
    <TTGlyph name="Iacute" xMin="92" yMin="0" xMax="303" yMax="893">
      <component glyphName="I" x="0" y="0" flags="0x0"/>
      <component glyphName="acute" x="74" y="150" flags="0x4"/>
    </TTGlyph>
    <TTGlyph name="Iacute_J.loclNLD" xMin="92" yMin="0" xMax="692" yMax="888">
      <component glyphName="I" x="0" y="0" flags="0x0"/>
      <component glyphName="acutecomb.case" x="334" y="0" flags="0x0"/>
      <component glyphName="J" x="296" y="0" flags="0x0"/>
      <component glyphName="acutecomb.case" x="712" y="0" flags="0x0"/>
    </TTGlyph>
    <TTGlyph name="Ibreve" xMin="5" yMin="0" xMax="291" yMax="888">
      <component glyphName="I" x="0" y="0" flags="0x0"/>
      <component glyphName="uni0306.case" x="311" y="0" flags="0x0"/>
    </TTGlyph>
    <TTGlyph name="Icircumflex" xMin="-5" yMin="0" xMax="300" yMax="894">
      <component glyphName="I" x="0" y="0" flags="0x0"/>
      <component glyphName="circumflex" x="-25" y="151" flags="0x4"/>
    </TTGlyph>
    <TTGlyph name="Idieresis" xMin="4" yMin="0" xMax="292" yMax="871">
      <component glyphName="I" x="0" y="0" flags="0x0"/>
      <component glyphName="dieresis" x="-16" y="141" flags="0x4"/>
    </TTGlyph>
    <TTGlyph name="Idotaccent" xMin="92" yMin="0" xMax="205" yMax="875">
      <component glyphName="I" x="0" y="0" flags="0x0"/>
      <component glyphName="uni0307.case" x="215" y="0" flags="0x0"/>
    </TTGlyph>
    <TTGlyph name="Igrave" xMin="0" yMin="0" xMax="209" yMax="893">
      <component glyphName="I" x="0" y="0" flags="0x0"/>
      <component glyphName="grave" x="-20" y="150" flags="0x4"/>
    </TTGlyph>
    <TTGlyph name="Imacron" xMin="21" yMin="0" xMax="275" yMax="887">
      <component glyphName="I" x="0" y="0" flags="0x0"/>
      <component glyphName="uni0304.case" x="331" y="0" flags="0x0"/>
    </TTGlyph>
    <TTGlyph name="Iogonek" xMin="51" yMin="-196" xMax="206" yMax="688">
      <contour>
        <pt x="98" y="-196" on="0"/>
        <pt x="51" y="-153" on="0"/>
        <pt x="51" y="-116" on="1"/>
        <pt x="51" y="-88" on="0"/>
        <pt x="85" y="-27" on="0"/>
        <pt x="113" y="0" on="1"/>
        <pt x="92" y="0" on="1"/>
        <pt x="92" y="688" on="1"/>
        <pt x="205" y="688" on="1"/>
        <pt x="205" y="0" on="1"/>
        <pt x="183" y="-14" on="0"/>
        <pt x="142" y="-68" on="0"/>
        <pt x="142" y="-90" on="1"/>
        <pt x="142" y="-108" on="0"/>
        <pt x="163" y="-127" on="0"/>
        <pt x="189" y="-127" on="1"/>
        <pt x="206" y="-126" on="1"/>
        <pt x="206" y="-193" on="1"/>
        <pt x="204" y="-193" on="0"/>
        <pt x="175" y="-196" on="0"/>
        <pt x="157" y="-196" on="1"/>
      </contour>
    </TTGlyph>
    <TTGlyph name="Itilde" xMin="-39" yMin="0" xMax="333" yMax="889">
      <component glyphName="I" x="0" y="0" flags="0x0"/>
      <component glyphName="tildecomb.case" x="354" y="0" flags="0x0"/>
    </TTGlyph>
    <TTGlyph name="J" xMin="30" yMin="0" xMax="286" yMax="688">
      <contour>
        <pt x="106" y="97" on="0"/>
        <pt x="160" y="115" on="0"/>
        <pt x="173" y="173" on="0"/>
        <pt x="173" y="258" on="1"/>
        <pt x="173" y="688" on="1"/>
        <pt x="286" y="688" on="1"/>
        <pt x="286" y="292" on="1"/>
        <pt x="286" y="138" on="0"/>
        <pt x="259" y="30" on="0"/>
        <pt x="165" y="1" on="0"/>
        <pt x="30" y="0" on="1"/>
        <pt x="30" y="96" on="1"/>
      </contour>
    </TTGlyph>
    <TTGlyph name="Jcircumflex" xMin="30" yMin="0" xMax="382" yMax="888">
      <component glyphName="J" x="0" y="0" flags="0x0"/>
      <component glyphName="uni0302.case" x="403" y="0" flags="0x0"/>
    </TTGlyph>
    <TTGlyph name="K" xMin="92" yMin="0" xMax="655" yMax="688">
      <contour>
        <pt x="302" y="299" on="1"/>
        <pt x="205" y="299" on="1"/>
        <pt x="205" y="0" on="1"/>
        <pt x="92" y="0" on="1"/>
        <pt x="92" y="688" on="1"/>
        <pt x="205" y="688" on="1"/>
        <pt x="205" y="401" on="1"/>
        <pt x="302" y="401" on="1"/>
        <pt x="527" y="688" on="1"/>
        <pt x="652" y="688" on="1"/>
        <pt x="393" y="357" on="1"/>
        <pt x="655" y="0" on="1"/>
        <pt x="523" y="0" on="1"/>
      </contour>
    </TTGlyph>
    <TTGlyph name="Kcommaaccent" xMin="92" yMin="-283" xMax="655" yMax="688">
      <component glyphName="K" x="0" y="0" flags="0x0"/>
      <component glyphName="uni0326" x="467" y="0" flags="0x0"/>
    </TTGlyph>
    <TTGlyph name="L" xMin="92" yMin="0" xMax="511" yMax="688">
      <contour>
        <pt x="92" y="688" on="1"/>
        <pt x="205" y="688" on="1"/>
        <pt x="205" y="105" on="1"/>
        <pt x="511" y="105" on="1"/>
        <pt x="511" y="0" on="1"/>
        <pt x="92" y="0" on="1"/>
      </contour>
    </TTGlyph>
    <TTGlyph name="Lacute" xMin="92" yMin="0" xMax="511" yMax="888">
      <component glyphName="L" x="0" y="0" flags="0x0"/>
      <component glyphName="acutecomb.case" x="334" y="0" flags="0x0"/>
    </TTGlyph>
    <TTGlyph name="Lcaron" xMin="92" yMin="0" xMax="511" yMax="688">
      <component glyphName="L" x="0" y="0" flags="0x0"/>
      <component glyphName="caron.loclCSY" x="281" y="0" flags="0x0"/>
    </TTGlyph>
    <TTGlyph name="Lcommaaccent" xMin="92" yMin="-283" xMax="511" yMax="688">
      <component glyphName="L" x="0" y="0" flags="0x0"/>
      <component glyphName="uni0326" x="419" y="0" flags="0x0"/>
    </TTGlyph>
    <TTGlyph name="Ldot" xMin="92" yMin="0" xMax="511" yMax="688">
      <component glyphName="L" x="0" y="0" flags="0x0"/>
      <component glyphName="periodcentered" x="295" y="73" flags="0x4"/>
    </TTGlyph>
    <TTGlyph name="Lslash" xMin="30" yMin="0" xMax="511" yMax="688">
      <contour>
        <pt x="511" y="105" on="1"/>
        <pt x="511" y="0" on="1"/>
        <pt x="92" y="0" on="1"/>
        <pt x="92" y="277" on="1"/>
        <pt x="30" y="253" on="1"/>
        <pt x="30" y="343" on="1"/>
        <pt x="92" y="367" on="1"/>
        <pt x="92" y="688" on="1"/>
        <pt x="205" y="688" on="1"/>
        <pt x="205" y="410" on="1"/>
        <pt x="382" y="477" on="1"/>
        <pt x="382" y="387" on="1"/>
        <pt x="205" y="320" on="1"/>
        <pt x="205" y="105" on="1"/>
      </contour>
    </TTGlyph>
    <TTGlyph name="M" xMin="92" yMin="0" xMax="810" yMax="688">
      <contour>
        <pt x="701" y="503" on="1"/>
        <pt x="697" y="503" on="1"/>
        <pt x="489" y="0" on="1"/>
        <pt x="409" y="0" on="1"/>
        <pt x="202" y="503" on="1"/>
        <pt x="198" y="503" on="1"/>
        <pt x="198" y="0" on="1"/>
        <pt x="92" y="0" on="1"/>
        <pt x="92" y="688" on="1"/>
        <pt x="246" y="688" on="1"/>
        <pt x="449" y="201" on="1"/>
        <pt x="454" y="201" on="1"/>
        <pt x="657" y="688" on="1"/>
        <pt x="810" y="688" on="1"/>
        <pt x="810" y="0" on="1"/>
        <pt x="701" y="0" on="1"/>
      </contour>
    </TTGlyph>
    <TTGlyph name="N" xMin="92" yMin="0" xMax="637" yMax="688">
      <contour>
        <pt x="204" y="482" on="1"/>
        <pt x="200" y="482" on="1"/>
        <pt x="200" y="0" on="1"/>
        <pt x="92" y="0" on="1"/>
        <pt x="92" y="688" on="1"/>
        <pt x="209" y="688" on="1"/>
        <pt x="525" y="223" on="1"/>
        <pt x="529" y="223" on="1"/>
        <pt x="529" y="688" on="1"/>
        <pt x="637" y="688" on="1"/>
        <pt x="637" y="0" on="1"/>
        <pt x="529" y="0" on="1"/>
      </contour>
    </TTGlyph>
    <TTGlyph name="Nacute" xMin="92" yMin="0" xMax="637" yMax="888">
      <component glyphName="N" x="0" y="0" flags="0x0"/>
      <component glyphName="acutecomb.case" x="551" y="0" flags="0x0"/>
    </TTGlyph>
    <TTGlyph name="Nacute.loclPLK" xMin="92" yMin="0" xMax="637" yMax="888">
      <component glyphName="N" x="0" y="0" flags="0x0"/>
      <component glyphName="acute.case.loclPLK" x="302" y="0" flags="0x0"/>
    </TTGlyph>
    <TTGlyph name="Ncaron" xMin="92" yMin="0" xMax="637" yMax="888">
      <component glyphName="N" x="0" y="0" flags="0x0"/>
      <component glyphName="uni030C.case" x="538" y="0" flags="0x0"/>
    </TTGlyph>
    <TTGlyph name="Ncommaaccent" xMin="92" yMin="-283" xMax="637" yMax="688">
      <component glyphName="N" x="0" y="0" flags="0x0"/>
      <component glyphName="uni0326" x="494" y="0" flags="0x0"/>
    </TTGlyph>
    <TTGlyph name="Ntilde" xMin="92" yMin="0" xMax="637" yMax="890">
      <component glyphName="N" x="0" y="0" flags="0x0"/>
      <component glyphName="tilde" x="159" y="146" flags="0x4"/>
    </TTGlyph>
    <TTGlyph name="O" xMin="69" yMin="-8" xMax="644" yMax="696">
      <contour>
        <pt x="218" y="-8" on="0"/>
        <pt x="101" y="49" on="0"/>
        <pt x="69" y="185" on="0"/>
        <pt x="69" y="344" on="1"/>
        <pt x="69" y="503" on="0"/>
        <pt x="101" y="639" on="0"/>
        <pt x="218" y="696" on="0"/>
        <pt x="356" y="696" on="1"/>
        <pt x="494" y="696" on="0"/>
        <pt x="612" y="639" on="0"/>
        <pt x="644" y="502" on="0"/>
        <pt x="644" y="344" on="1"/>
        <pt x="644" y="186" on="0"/>
        <pt x="612" y="49" on="0"/>
        <pt x="494" y="-8" on="0"/>
        <pt x="356" y="-8" on="1"/>
      </contour>
      <contour>
        <pt x="448" y="94" on="0"/>
        <pt x="512" y="118" on="0"/>
        <pt x="531" y="212" on="0"/>
        <pt x="531" y="344" on="1"/>
        <pt x="531" y="476" on="0"/>
        <pt x="512" y="570" on="0"/>
        <pt x="448" y="594" on="0"/>
        <pt x="356" y="594" on="1"/>
        <pt x="264" y="594" on="0"/>
        <pt x="201" y="570" on="0"/>
        <pt x="182" y="476" on="0"/>
        <pt x="182" y="344" on="1"/>
        <pt x="182" y="212" on="0"/>
        <pt x="201" y="118" on="0"/>
        <pt x="264" y="94" on="0"/>
        <pt x="356" y="94" on="1"/>
      </contour>
    </TTGlyph>
    <TTGlyph name="OE" xMin="69" yMin="0" xMax="975" yMax="688">
      <contour>
        <pt x="218" y="0" on="0"/>
        <pt x="101" y="56" on="0"/>
        <pt x="69" y="189" on="0"/>
        <pt x="69" y="344" on="1"/>
        <pt x="69" y="499" on="0"/>
        <pt x="101" y="632" on="0"/>
        <pt x="218" y="688" on="0"/>
        <pt x="356" y="688" on="1"/>
        <pt x="975" y="688" on="1"/>
        <pt x="975" y="586" on="1"/>
        <pt x="678" y="586" on="1"/>
        <pt x="643" y="586" on="0"/>
        <pt x="606" y="594" on="1"/>
        <pt x="627" y="563" on="0"/>
        <pt x="643" y="469" on="0"/>
        <pt x="644" y="398" on="1"/>
        <pt x="928" y="398" on="1"/>
        <pt x="928" y="296" on="1"/>
        <pt x="644" y="296" on="1"/>
        <pt x="643" y="219" on="0"/>
        <pt x="628" y="126" on="0"/>
        <pt x="606" y="94" on="1"/>
        <pt x="643" y="102" on="0"/>
        <pt x="678" y="102" on="1"/>
        <pt x="975" y="102" on="1"/>
        <pt x="975" y="0" on="1"/>
        <pt x="356" y="0" on="1"/>
      </contour>
      <contour>
        <pt x="448" y="102" on="0"/>
        <pt x="512" y="126" on="0"/>
        <pt x="531" y="217" on="0"/>
        <pt x="531" y="344" on="1"/>
        <pt x="531" y="471" on="0"/>
        <pt x="512" y="562" on="0"/>
        <pt x="448" y="586" on="0"/>
        <pt x="356" y="586" on="1"/>
        <pt x="264" y="586" on="0"/>
        <pt x="201" y="562" on="0"/>
        <pt x="182" y="472" on="0"/>
        <pt x="182" y="344" on="1"/>
        <pt x="182" y="216" on="0"/>
        <pt x="201" y="126" on="0"/>
        <pt x="264" y="102" on="0"/>
        <pt x="356" y="102" on="1"/>
      </contour>
    </TTGlyph>
    <TTGlyph name="Oacute" xMin="69" yMin="-8" xMax="644" yMax="893">
      <component glyphName="O" x="0" y="0" flags="0x0"/>
      <component glyphName="acute" x="284" y="150" flags="0x4"/>
    </TTGlyph>
    <TTGlyph name="Oacute.loclPLK" xMin="69" yMin="-8" xMax="644" yMax="888">
      <component glyphName="O" x="0" y="0" flags="0x0"/>
      <component glyphName="acute.case.loclPLK" x="294" y="0" flags="0x0"/>
    </TTGlyph>
    <TTGlyph name="Obreve" xMin="69" yMin="-8" xMax="644" yMax="888">
      <component glyphName="O" x="0" y="0" flags="0x0"/>
      <component glyphName="uni0306.case" x="520" y="0" flags="0x0"/>
    </TTGlyph>
    <TTGlyph name="Ocircumflex" xMin="69" yMin="-8" xMax="644" yMax="894">
      <component glyphName="O" x="0" y="0" flags="0x0"/>
      <component glyphName="circumflex" x="183" y="151" flags="0x4"/>
    </TTGlyph>
    <TTGlyph name="Odieresis" xMin="69" yMin="-8" xMax="644" yMax="871">
      <component glyphName="O" x="0" y="0" flags="0x0"/>
      <component glyphName="dieresis" x="193" y="141" flags="0x4"/>
    </TTGlyph>
    <TTGlyph name="Ograve" xMin="69" yMin="-8" xMax="644" yMax="893">
      <component glyphName="O" x="0" y="0" flags="0x0"/>
      <component glyphName="grave" x="174" y="150" flags="0x4"/>
    </TTGlyph>
    <TTGlyph name="Ohorn" xMin="69" yMin="-8" xMax="680" yMax="781">
      <contour>
        <pt x="680" y="781" on="1"/>
        <pt x="680" y="760" on="1"/>
        <pt x="680" y="717" on="0"/>
        <pt x="666" y="670" on="0"/>
        <pt x="627" y="645" on="0"/>
        <pt x="589" y="642" on="1"/>
        <pt x="624" y="608" on="0"/>
        <pt x="644" y="478" on="0"/>
        <pt x="644" y="344" on="1"/>
        <pt x="644" y="186" on="0"/>
        <pt x="612" y="49" on="0"/>
        <pt x="494" y="-8" on="0"/>
        <pt x="356" y="-8" on="1"/>
        <pt x="218" y="-8" on="0"/>
        <pt x="101" y="49" on="0"/>
        <pt x="69" y="185" on="0"/>
        <pt x="69" y="344" on="1"/>
        <pt x="69" y="503" on="0"/>
        <pt x="101" y="639" on="0"/>
        <pt x="218" y="696" on="0"/>
        <pt x="356" y="696" on="1"/>
        <pt x="436" y="696" on="0"/>
        <pt x="483" y="688" on="1"/>
        <pt x="548" y="688" on="1"/>
        <pt x="574" y="688" on="0"/>
        <pt x="599" y="699" on="0"/>
        <pt x="607" y="725" on="0"/>
        <pt x="607" y="752" on="1"/>
        <pt x="607" y="781" on="1"/>
      </contour>
      <contour>
        <pt x="448" y="94" on="0"/>
        <pt x="512" y="118" on="0"/>
        <pt x="531" y="212" on="0"/>
        <pt x="531" y="344" on="1"/>
        <pt x="531" y="476" on="0"/>
        <pt x="512" y="570" on="0"/>
        <pt x="448" y="594" on="0"/>
        <pt x="356" y="594" on="1"/>
        <pt x="264" y="594" on="0"/>
        <pt x="201" y="570" on="0"/>
        <pt x="182" y="476" on="0"/>
        <pt x="182" y="344" on="1"/>
        <pt x="182" y="212" on="0"/>
        <pt x="201" y="118" on="0"/>
        <pt x="264" y="94" on="0"/>
        <pt x="356" y="94" on="1"/>
      </contour>
    </TTGlyph>
    <TTGlyph name="Ohungarumlaut" xMin="69" yMin="-8" xMax="644" yMax="881">
      <component glyphName="O" x="0" y="0" flags="0x0"/>
      <component glyphName="uni030B.case" x="620" y="0" flags="0x0"/>
    </TTGlyph>
    <TTGlyph name="Omacron" xMin="69" yMin="-8" xMax="644" yMax="887">
      <component glyphName="O" x="0" y="0" flags="0x0"/>
      <component glyphName="uni0304.case" x="540" y="0" flags="0x0"/>
    </TTGlyph>
    <TTGlyph name="Oslash" xMin="69" yMin="-55" xMax="644" yMax="743">
      <contour>
        <pt x="623" y="611" on="0"/>
        <pt x="644" y="480" on="0"/>
        <pt x="644" y="344" on="1"/>
        <pt x="644" y="186" on="0"/>
        <pt x="612" y="49" on="0"/>
        <pt x="494" y="-8" on="0"/>
        <pt x="356" y="-8" on="1"/>
        <pt x="256" y="-8" on="0"/>
        <pt x="201" y="6" on="1"/>
        <pt x="164" y="-55" on="1"/>
        <pt x="69" y="-55" on="1"/>
        <pt x="127" y="42" on="1"/>
        <pt x="90" y="76" on="0"/>
        <pt x="69" y="207" on="0"/>
        <pt x="69" y="344" on="1"/>
        <pt x="69" y="503" on="0"/>
        <pt x="101" y="639" on="0"/>
        <pt x="218" y="696" on="0"/>
        <pt x="356" y="696" on="1"/>
        <pt x="456" y="696" on="0"/>
        <pt x="511" y="682" on="1"/>
        <pt x="548" y="743" on="1"/>
        <pt x="644" y="743" on="1"/>
        <pt x="585" y="646" on="1"/>
      </contour>
      <contour>
        <pt x="182" y="263" on="0"/>
        <pt x="186" y="179" on="0"/>
        <pt x="194" y="154" on="1"/>
        <pt x="456" y="589" on="1"/>
        <pt x="439" y="592" on="0"/>
        <pt x="386" y="594" on="0"/>
        <pt x="356" y="594" on="1"/>
        <pt x="264" y="594" on="0"/>
        <pt x="201" y="570" on="0"/>
        <pt x="182" y="476" on="0"/>
        <pt x="182" y="344" on="1"/>
      </contour>
      <contour>
        <pt x="448" y="94" on="0"/>
        <pt x="512" y="118" on="0"/>
        <pt x="531" y="212" on="0"/>
        <pt x="531" y="344" on="1"/>
        <pt x="531" y="426" on="0"/>
        <pt x="526" y="509" on="0"/>
        <pt x="518" y="534" on="1"/>
        <pt x="257" y="99" on="1"/>
        <pt x="273" y="96" on="0"/>
        <pt x="326" y="94" on="0"/>
        <pt x="356" y="94" on="1"/>
      </contour>
    </TTGlyph>
    <TTGlyph name="Oslashacute" xMin="69" yMin="-55" xMax="644" yMax="888">
      <component glyphName="Oslash" x="0" y="0" flags="0x0"/>
      <component glyphName="acutecomb.case" x="543" y="0" flags="0x0"/>
    </TTGlyph>
    <TTGlyph name="Otilde" xMin="69" yMin="-8" xMax="644" yMax="889">
      <component glyphName="O" x="0" y="0" flags="0x0"/>
      <component glyphName="tilde" x="151" y="145" flags="0x4"/>
    </TTGlyph>
    <TTGlyph name="P" xMin="92" yMin="0" xMax="604" yMax="688">
      <contour>
        <pt x="92" y="688" on="1"/>
        <pt x="401" y="688" on="1"/>
        <pt x="484" y="688" on="0"/>
        <pt x="573" y="634" on="0"/>
        <pt x="604" y="539" on="0"/>
        <pt x="604" y="464" on="1"/>
        <pt x="604" y="392" on="0"/>
        <pt x="573" y="296" on="0"/>
        <pt x="483" y="240" on="0"/>
        <pt x="398" y="240" on="1"/>
        <pt x="205" y="240" on="1"/>
        <pt x="205" y="0" on="1"/>
        <pt x="92" y="0" on="1"/>
      </contour>
      <contour>
        <pt x="355" y="341" on="1"/>
        <pt x="419" y="341" on="0"/>
        <pt x="475" y="362" on="0"/>
        <pt x="492" y="411" on="0"/>
        <pt x="492" y="464" on="1"/>
        <pt x="492" y="517" on="0"/>
        <pt x="476" y="565" on="0"/>
        <pt x="421" y="586" on="0"/>
        <pt x="358" y="586" on="1"/>
        <pt x="205" y="586" on="1"/>
        <pt x="205" y="341" on="1"/>
      </contour>
    </TTGlyph>
    <TTGlyph name="Q" xMin="69" yMin="-115" xMax="666" yMax="696">
      <contour>
        <pt x="666" y="-113" on="1"/>
        <pt x="666" y="-115" on="1"/>
        <pt x="537" y="-115" on="1"/>
        <pt x="459" y="-3" on="1"/>
        <pt x="423" y="-8" on="0"/>
        <pt x="356" y="-8" on="1"/>
        <pt x="218" y="-8" on="0"/>
        <pt x="101" y="49" on="0"/>
        <pt x="69" y="185" on="0"/>
        <pt x="69" y="344" on="1"/>
        <pt x="69" y="503" on="0"/>
        <pt x="101" y="639" on="0"/>
        <pt x="218" y="696" on="0"/>
        <pt x="356" y="696" on="1"/>
        <pt x="494" y="696" on="0"/>
        <pt x="612" y="639" on="0"/>
        <pt x="644" y="502" on="0"/>
        <pt x="644" y="344" on="1"/>
        <pt x="644" y="241" on="0"/>
        <pt x="634" y="126" on="0"/>
        <pt x="600" y="48" on="0"/>
        <pt x="564" y="27" on="1"/>
      </contour>
      <contour>
        <pt x="391" y="94" on="1"/>
        <pt x="305" y="218" on="1"/>
        <pt x="425" y="218" on="1"/>
        <pt x="501" y="114" on="1"/>
        <pt x="520" y="133" on="0"/>
        <pt x="531" y="229" on="0"/>
        <pt x="531" y="344" on="1"/>
        <pt x="531" y="476" on="0"/>
        <pt x="512" y="570" on="0"/>
        <pt x="448" y="594" on="0"/>
        <pt x="356" y="594" on="1"/>
        <pt x="264" y="594" on="0"/>
        <pt x="201" y="570" on="0"/>
        <pt x="182" y="476" on="0"/>
        <pt x="182" y="344" on="1"/>
        <pt x="182" y="212" on="0"/>
        <pt x="201" y="118" on="0"/>
        <pt x="264" y="94" on="0"/>
        <pt x="356" y="94" on="1"/>
      </contour>
    </TTGlyph>
    <TTGlyph name="R" xMin="92" yMin="0" xMax="624" yMax="688">
      <contour>
        <pt x="504" y="0" on="1"/>
        <pt x="402" y="260" on="1"/>
        <pt x="400" y="260" on="1"/>
        <pt x="205" y="260" on="1"/>
        <pt x="205" y="0" on="1"/>
        <pt x="92" y="0" on="1"/>
        <pt x="92" y="688" on="1"/>
        <pt x="413" y="688" on="1"/>
        <pt x="497" y="688" on="0"/>
        <pt x="584" y="637" on="0"/>
        <pt x="613" y="546" on="0"/>
        <pt x="613" y="474" on="1"/>
        <pt x="613" y="405" on="0"/>
        <pt x="572" y="296" on="0"/>
        <pt x="511" y="275" on="1"/>
        <pt x="624" y="0" on="1"/>
      </contour>
      <contour>
        <pt x="427" y="361" on="0"/>
        <pt x="484" y="382" on="0"/>
        <pt x="500" y="428" on="0"/>
        <pt x="500" y="474" on="1"/>
        <pt x="500" y="522" on="0"/>
        <pt x="485" y="566" on="0"/>
        <pt x="431" y="586" on="0"/>
        <pt x="370" y="586" on="1"/>
        <pt x="205" y="586" on="1"/>
        <pt x="205" y="361" on="1"/>
        <pt x="366" y="361" on="1"/>
      </contour>
    </TTGlyph>
    <TTGlyph name="R.ss01" xMin="92" yMin="0" xMax="618" yMax="688">
      <contour>
        <pt x="618" y="0" on="1"/>
        <pt x="506" y="0" on="1"/>
        <pt x="495" y="152" on="1"/>
        <pt x="492" y="194" on="0"/>
        <pt x="478" y="236" on="0"/>
        <pt x="430" y="262" on="0"/>
        <pt x="378" y="262" on="1"/>
        <pt x="205" y="262" on="1"/>
        <pt x="205" y="0" on="1"/>
        <pt x="92" y="0" on="1"/>
        <pt x="92" y="688" on="1"/>
        <pt x="425" y="688" on="1"/>
        <pt x="529" y="688" on="0"/>
        <pt x="614" y="596" on="0"/>
        <pt x="614" y="500" on="1"/>
        <pt x="614" y="412" on="0"/>
        <pt x="557" y="334" on="0"/>
        <pt x="496" y="319" on="1"/>
        <pt x="496" y="315" on="1"/>
        <pt x="534" y="306" on="0"/>
        <pt x="578" y="278" on="0"/>
        <pt x="604" y="221" on="0"/>
        <pt x="607" y="171" on="1"/>
      </contour>
      <contour>
        <pt x="428" y="363" on="0"/>
        <pt x="481" y="386" on="0"/>
        <pt x="500" y="433" on="0"/>
        <pt x="500" y="475" on="1"/>
        <pt x="500" y="521" on="0"/>
        <pt x="485" y="565" on="0"/>
        <pt x="434" y="586" on="0"/>
        <pt x="378" y="586" on="1"/>
        <pt x="205" y="586" on="1"/>
        <pt x="205" y="363" on="1"/>
        <pt x="375" y="363" on="1"/>
      </contour>
    </TTGlyph>
    <TTGlyph name="Racute" xMin="92" yMin="0" xMax="624" yMax="888">
      <component glyphName="R" x="0" y="0" flags="0x0"/>
      <component glyphName="acutecomb.case" x="526" y="0" flags="0x0"/>
    </TTGlyph>
    <TTGlyph name="Racute.ss01" xMin="92" yMin="0" xMax="618" yMax="888">
      <component glyphName="R.ss01" x="0" y="0" flags="0x0"/>
      <component glyphName="acutecomb.case" x="528" y="0" flags="0x0"/>
    </TTGlyph>
    <TTGlyph name="Rcaron" xMin="92" yMin="0" xMax="624" yMax="888">
      <component glyphName="R" x="0" y="0" flags="0x0"/>
      <component glyphName="uni030C.case" x="513" y="0" flags="0x0"/>
    </TTGlyph>
    <TTGlyph name="Rcaron.ss01" xMin="92" yMin="0" xMax="618" yMax="888">
      <component glyphName="R.ss01" x="0" y="0" flags="0x0"/>
      <component glyphName="uni030C.case" x="515" y="0" flags="0x0"/>
    </TTGlyph>
    <TTGlyph name="Rcommaaccent" xMin="92" yMin="-283" xMax="624" yMax="688">
      <component glyphName="R" x="0" y="0" flags="0x0"/>
      <component glyphName="uni0326" x="469" y="0" flags="0x0"/>
    </TTGlyph>
    <TTGlyph name="Rcommaaccent.ss01" xMin="92" yMin="-283" xMax="618" yMax="688">
      <component glyphName="R.ss01" x="0" y="0" flags="0x0"/>
      <component glyphName="uni0326" x="471" y="0" flags="0x0"/>
    </TTGlyph>
    <TTGlyph name="S" xMin="60" yMin="-8" xMax="564" yMax="696">
      <contour>
        <pt x="270" y="-8" on="0"/>
        <pt x="132" y="0" on="0"/>
        <pt x="80" y="7" on="1"/>
        <pt x="80" y="106" on="1"/>
        <pt x="203" y="94" on="0"/>
        <pt x="294" y="94" on="1"/>
        <pt x="348" y="94" on="0"/>
        <pt x="408" y="103" on="0"/>
        <pt x="425" y="114" on="1"/>
        <pt x="441" y="124" on="0"/>
        <pt x="451" y="161" on="0"/>
        <pt x="451" y="195" on="1"/>
        <pt x="451" y="232" on="0"/>
        <pt x="442" y="266" on="0"/>
        <pt x="413" y="282" on="0"/>
        <pt x="379" y="285" on="1"/>
        <pt x="215" y="304" on="1"/>
        <pt x="152" y="311" on="0"/>
        <pt x="85" y="358" on="0"/>
        <pt x="60" y="436" on="0"/>
        <pt x="60" y="496" on="1"/>
        <pt x="60" y="581" on="0"/>
        <pt x="121" y="668" on="0"/>
        <pt x="227" y="696" on="0"/>
        <pt x="312" y="696" on="1"/>
        <pt x="370" y="696" on="0"/>
        <pt x="492" y="685" on="0"/>
        <pt x="530" y="677" on="1"/>
        <pt x="530" y="581" on="1"/>
        <pt x="493" y="587" on="0"/>
        <pt x="383" y="594" on="0"/>
        <pt x="334" y="594" on="1"/>
        <pt x="281" y="594" on="0"/>
        <pt x="219" y="586" on="0"/>
        <pt x="202" y="576" on="1"/>
        <pt x="184" y="566" on="0"/>
        <pt x="174" y="533" on="0"/>
        <pt x="174" y="501" on="1"/>
        <pt x="174" y="465" on="0"/>
        <pt x="184" y="434" on="0"/>
        <pt x="215" y="420" on="0"/>
        <pt x="250" y="416" on="1"/>
        <pt x="415" y="397" on="1"/>
        <pt x="467" y="392" on="0"/>
        <pt x="530" y="361" on="0"/>
        <pt x="546" y="323" on="1"/>
        <pt x="564" y="283" on="0"/>
        <pt x="564" y="201" on="1"/>
        <pt x="564" y="110" on="0"/>
        <pt x="506" y="19" on="0"/>
        <pt x="408" y="-8" on="0"/>
        <pt x="327" y="-8" on="1"/>
      </contour>
    </TTGlyph>
    <TTGlyph name="Sacute" xMin="60" yMin="-8" xMax="564" yMax="888">
      <component glyphName="S" x="0" y="0" flags="0x0"/>
      <component glyphName="acutecomb.case" x="499" y="0" flags="0x0"/>
    </TTGlyph>
    <TTGlyph name="Sacute.loclPLK" xMin="60" yMin="-8" xMax="564" yMax="888">
      <component glyphName="S" x="0" y="0" flags="0x0"/>
      <component glyphName="acute.case.loclPLK" x="250" y="0" flags="0x0"/>
    </TTGlyph>
    <TTGlyph name="Scaron" xMin="60" yMin="-8" xMax="564" yMax="894">
      <component glyphName="S" x="0" y="0" flags="0x0"/>
      <component glyphName="caron" x="147" y="151" flags="0x4"/>
    </TTGlyph>
    <TTGlyph name="Scedilla" xMin="60" yMin="-190" xMax="564" yMax="696">
      <contour>
        <pt x="564" y="114" on="0"/>
        <pt x="512" y="24" on="0"/>
        <pt x="421" y="-7" on="0"/>
        <pt x="348" y="-8" on="1"/>
        <pt x="311" y="-190" on="1"/>
        <pt x="208" y="-190" on="1"/>
        <pt x="208" y="-185" on="1"/>
        <pt x="272" y="-7" on="1"/>
        <pt x="162" y="-4" on="0"/>
        <pt x="80" y="7" on="1"/>
        <pt x="80" y="106" on="1"/>
        <pt x="203" y="94" on="0"/>
        <pt x="294" y="94" on="1"/>
        <pt x="348" y="94" on="0"/>
        <pt x="408" y="103" on="0"/>
        <pt x="425" y="114" on="1"/>
        <pt x="441" y="124" on="0"/>
        <pt x="451" y="161" on="0"/>
        <pt x="451" y="195" on="1"/>
        <pt x="451" y="232" on="0"/>
        <pt x="442" y="266" on="0"/>
        <pt x="413" y="282" on="0"/>
        <pt x="379" y="285" on="1"/>
        <pt x="215" y="304" on="1"/>
        <pt x="152" y="311" on="0"/>
        <pt x="85" y="358" on="0"/>
        <pt x="60" y="436" on="0"/>
        <pt x="60" y="496" on="1"/>
        <pt x="60" y="581" on="0"/>
        <pt x="121" y="668" on="0"/>
        <pt x="227" y="696" on="0"/>
        <pt x="312" y="696" on="1"/>
        <pt x="370" y="696" on="0"/>
        <pt x="492" y="685" on="0"/>
        <pt x="530" y="677" on="1"/>
        <pt x="530" y="581" on="1"/>
        <pt x="493" y="587" on="0"/>
        <pt x="383" y="594" on="0"/>
        <pt x="334" y="594" on="1"/>
        <pt x="281" y="594" on="0"/>
        <pt x="219" y="586" on="0"/>
        <pt x="202" y="576" on="1"/>
        <pt x="184" y="566" on="0"/>
        <pt x="174" y="533" on="0"/>
        <pt x="174" y="501" on="1"/>
        <pt x="174" y="465" on="0"/>
        <pt x="184" y="434" on="0"/>
        <pt x="215" y="420" on="0"/>
        <pt x="250" y="416" on="1"/>
        <pt x="415" y="397" on="1"/>
        <pt x="467" y="392" on="0"/>
        <pt x="530" y="361" on="0"/>
        <pt x="546" y="323" on="1"/>
        <pt x="564" y="283" on="0"/>
        <pt x="564" y="201" on="1"/>
      </contour>
    </TTGlyph>
    <TTGlyph name="Scircumflex" xMin="60" yMin="-8" xMax="564" yMax="888">
      <component glyphName="S" x="0" y="0" flags="0x0"/>
      <component glyphName="uni0302.case" x="486" y="0" flags="0x0"/>
    </TTGlyph>
    <TTGlyph name="Scommaaccent" xMin="60" yMin="-283" xMax="564" yMax="696">
      <component glyphName="S" x="0" y="0" flags="0x0"/>
      <component glyphName="uni0326" x="442" y="0" flags="0x0"/>
    </TTGlyph>
    <TTGlyph name="T" xMin="25" yMin="0" xMax="556" yMax="688">
      <contour>
        <pt x="234" y="583" on="1"/>
        <pt x="25" y="583" on="1"/>
        <pt x="25" y="688" on="1"/>
        <pt x="556" y="688" on="1"/>
        <pt x="556" y="583" on="1"/>
        <pt x="347" y="583" on="1"/>
        <pt x="347" y="0" on="1"/>
        <pt x="234" y="0" on="1"/>
      </contour>
    </TTGlyph>
    <TTGlyph name="Tbar" xMin="25" yMin="0" xMax="556" yMax="688">
      <contour>
        <pt x="347" y="583" on="1"/>
        <pt x="347" y="373" on="1"/>
        <pt x="534" y="373" on="1"/>
        <pt x="534" y="280" on="1"/>
        <pt x="347" y="280" on="1"/>
        <pt x="347" y="0" on="1"/>
        <pt x="234" y="0" on="1"/>
        <pt x="234" y="280" on="1"/>
        <pt x="47" y="280" on="1"/>
        <pt x="47" y="373" on="1"/>
        <pt x="234" y="373" on="1"/>
        <pt x="234" y="583" on="1"/>
        <pt x="25" y="583" on="1"/>
        <pt x="25" y="688" on="1"/>
        <pt x="556" y="688" on="1"/>
        <pt x="556" y="583" on="1"/>
      </contour>
    </TTGlyph>
    <TTGlyph name="Tcaron" xMin="25" yMin="0" xMax="556" yMax="888">
      <component glyphName="T" x="0" y="0" flags="0x0"/>
      <component glyphName="uni030C.case" x="464" y="0" flags="0x0"/>
    </TTGlyph>
    <TTGlyph name="Thorn" xMin="92" yMin="0" xMax="604" yMax="688">
      <contour>
        <pt x="92" y="688" on="1"/>
        <pt x="205" y="688" on="1"/>
        <pt x="205" y="575" on="1"/>
        <pt x="401" y="575" on="1"/>
        <pt x="484" y="575" on="0"/>
        <pt x="573" y="521" on="0"/>
        <pt x="604" y="426" on="0"/>
        <pt x="604" y="351" on="1"/>
        <pt x="604" y="279" on="0"/>
        <pt x="573" y="183" on="0"/>
        <pt x="483" y="127" on="0"/>
        <pt x="398" y="127" on="1"/>
        <pt x="205" y="127" on="1"/>
        <pt x="205" y="0" on="1"/>
        <pt x="92" y="0" on="1"/>
      </contour>
      <contour>
        <pt x="355" y="228" on="1"/>
        <pt x="419" y="228" on="0"/>
        <pt x="475" y="249" on="0"/>
        <pt x="492" y="298" on="0"/>
        <pt x="492" y="351" on="1"/>
        <pt x="492" y="404" on="0"/>
        <pt x="476" y="452" on="0"/>
        <pt x="421" y="473" on="0"/>
        <pt x="358" y="473" on="1"/>
        <pt x="205" y="473" on="1"/>
        <pt x="205" y="228" on="1"/>
      </contour>
    </TTGlyph>
    <TTGlyph name="U" xMin="84" yMin="-8" xMax="620" yMax="688">
      <contour>
        <pt x="620" y="688" on="1"/>
        <pt x="620" y="305" on="1"/>
        <pt x="620" y="168" on="0"/>
        <pt x="584" y="42" on="0"/>
        <pt x="474" y="-8" on="0"/>
        <pt x="353" y="-8" on="1"/>
        <pt x="232" y="-8" on="0"/>
        <pt x="121" y="42" on="0"/>
        <pt x="84" y="169" on="0"/>
        <pt x="84" y="305" on="1"/>
        <pt x="84" y="688" on="1"/>
        <pt x="197" y="688" on="1"/>
        <pt x="197" y="270" on="1"/>
        <pt x="197" y="186" on="0"/>
        <pt x="214" y="119" on="0"/>
        <pt x="276" y="94" on="0"/>
        <pt x="353" y="94" on="1"/>
        <pt x="429" y="94" on="0"/>
        <pt x="491" y="119" on="0"/>
        <pt x="507" y="186" on="0"/>
        <pt x="507" y="270" on="1"/>
        <pt x="507" y="688" on="1"/>
      </contour>
    </TTGlyph>
    <TTGlyph name="Uacute" xMin="84" yMin="-8" xMax="620" yMax="893">
      <component glyphName="U" x="0" y="0" flags="0x0"/>
      <component glyphName="acute" x="292" y="150" flags="0x4"/>
    </TTGlyph>
    <TTGlyph name="Ubreve" xMin="84" yMin="-8" xMax="620" yMax="888">
      <component glyphName="U" x="0" y="0" flags="0x0"/>
      <component glyphName="uni0306.case" x="516" y="0" flags="0x0"/>
    </TTGlyph>
    <TTGlyph name="Ucircumflex" xMin="84" yMin="-8" xMax="620" yMax="894">
      <component glyphName="U" x="0" y="0" flags="0x0"/>
      <component glyphName="circumflex" x="183" y="151" flags="0x4"/>
    </TTGlyph>
    <TTGlyph name="Udieresis" xMin="84" yMin="-8" xMax="620" yMax="871">
      <component glyphName="U" x="0" y="0" flags="0x0"/>
      <component glyphName="dieresis" x="188" y="141" flags="0x4"/>
    </TTGlyph>
    <TTGlyph name="Ugrave" xMin="84" yMin="-8" xMax="620" yMax="893">
      <component glyphName="U" x="0" y="0" flags="0x0"/>
      <component glyphName="grave" x="183" y="150" flags="0x4"/>
    </TTGlyph>
    <TTGlyph name="Uhorn" xMin="84" yMin="-8" xMax="722" yMax="781">
      <contour>
        <pt x="722" y="781" on="1"/>
        <pt x="722" y="760" on="1"/>
        <pt x="722" y="715" on="0"/>
        <pt x="707" y="668" on="0"/>
        <pt x="664" y="645" on="0"/>
        <pt x="620" y="642" on="1"/>
        <pt x="620" y="305" on="1"/>
        <pt x="620" y="168" on="0"/>
        <pt x="584" y="42" on="0"/>
        <pt x="474" y="-8" on="0"/>
        <pt x="353" y="-8" on="1"/>
        <pt x="232" y="-8" on="0"/>
        <pt x="121" y="42" on="0"/>
        <pt x="84" y="169" on="0"/>
        <pt x="84" y="305" on="1"/>
        <pt x="84" y="688" on="1"/>
        <pt x="197" y="688" on="1"/>
        <pt x="197" y="270" on="1"/>
        <pt x="197" y="186" on="0"/>
        <pt x="214" y="119" on="0"/>
        <pt x="276" y="94" on="0"/>
        <pt x="353" y="94" on="1"/>
        <pt x="429" y="94" on="0"/>
        <pt x="491" y="119" on="0"/>
        <pt x="507" y="186" on="0"/>
        <pt x="507" y="270" on="1"/>
        <pt x="507" y="688" on="1"/>
        <pt x="590" y="688" on="1"/>
        <pt x="616" y="688" on="0"/>
        <pt x="641" y="699" on="0"/>
        <pt x="649" y="725" on="0"/>
        <pt x="649" y="752" on="1"/>
        <pt x="649" y="781" on="1"/>
      </contour>
    </TTGlyph>
    <TTGlyph name="Uhungarumlaut" xMin="84" yMin="-8" xMax="620" yMax="881">
      <component glyphName="U" x="0" y="0" flags="0x0"/>
      <component glyphName="uni030B.case" x="616" y="0" flags="0x0"/>
    </TTGlyph>
    <TTGlyph name="Umacron" xMin="84" yMin="-8" xMax="620" yMax="887">
      <component glyphName="U" x="0" y="0" flags="0x0"/>
      <component glyphName="uni0304.case" x="536" y="0" flags="0x0"/>
    </TTGlyph>
    <TTGlyph name="Uogonek" xMin="84" yMin="-196" xMax="620" yMax="688">
      <contour>
        <pt x="620" y="688" on="1"/>
        <pt x="620" y="305" on="1"/>
        <pt x="620" y="217" on="0"/>
        <pt x="607" y="109" on="0"/>
        <pt x="571" y="40" on="0"/>
        <pt x="536" y="21" on="1"/>
        <pt x="454" y="-21" on="0"/>
        <pt x="454" y="-90" on="1"/>
        <pt x="454" y="-108" on="0"/>
        <pt x="475" y="-127" on="0"/>
        <pt x="501" y="-127" on="1"/>
        <pt x="518" y="-126" on="1"/>
        <pt x="518" y="-193" on="1"/>
        <pt x="485" y="-196" on="0"/>
        <pt x="469" y="-196" on="1"/>
        <pt x="410" y="-196" on="0"/>
        <pt x="363" y="-153" on="0"/>
        <pt x="363" y="-116" on="1"/>
        <pt x="363" y="-64" on="0"/>
        <pt x="415" y="-7" on="1"/>
        <pt x="397" y="-8" on="0"/>
        <pt x="353" y="-8" on="1"/>
        <pt x="232" y="-8" on="0"/>
        <pt x="121" y="42" on="0"/>
        <pt x="84" y="169" on="0"/>
        <pt x="84" y="305" on="1"/>
        <pt x="84" y="688" on="1"/>
        <pt x="197" y="688" on="1"/>
        <pt x="197" y="270" on="1"/>
        <pt x="197" y="186" on="0"/>
        <pt x="214" y="119" on="0"/>
        <pt x="276" y="94" on="0"/>
        <pt x="353" y="94" on="1"/>
        <pt x="429" y="94" on="0"/>
        <pt x="491" y="119" on="0"/>
        <pt x="507" y="186" on="0"/>
        <pt x="507" y="270" on="1"/>
        <pt x="507" y="688" on="1"/>
      </contour>
    </TTGlyph>
    <TTGlyph name="Uring" xMin="84" yMin="-8" xMax="620" yMax="938">
      <component glyphName="U" x="0" y="0" flags="0x0"/>
      <component glyphName="uni030A.case" x="510" y="0" flags="0x0"/>
    </TTGlyph>
    <TTGlyph name="Utilde" xMin="84" yMin="-8" xMax="620" yMax="889">
      <component glyphName="U" x="0" y="0" flags="0x0"/>
      <component glyphName="tildecomb.case" x="559" y="0" flags="0x0"/>
    </TTGlyph>
    <TTGlyph name="V" xMin="23" yMin="0" xMax="640" yMax="688">
      <contour>
        <pt x="23" y="688" on="1"/>
        <pt x="140" y="688" on="1"/>
        <pt x="331" y="130" on="1"/>
        <pt x="336" y="130" on="1"/>
        <pt x="526" y="688" on="1"/>
        <pt x="640" y="688" on="1"/>
        <pt x="406" y="0" on="1"/>
        <pt x="258" y="0" on="1"/>
      </contour>
    </TTGlyph>
    <TTGlyph name="W" xMin="30" yMin="0" xMax="961" yMax="688">
      <contour>
        <pt x="497" y="511" on="1"/>
        <pt x="493" y="511" on="1"/>
        <pt x="347" y="0" on="1"/>
        <pt x="208" y="0" on="1"/>
        <pt x="30" y="688" on="1"/>
        <pt x="144" y="688" on="1"/>
        <pt x="283" y="144" on="1"/>
        <pt x="288" y="144" on="1"/>
        <pt x="439" y="688" on="1"/>
        <pt x="557" y="688" on="1"/>
        <pt x="711" y="144" on="1"/>
        <pt x="716" y="144" on="1"/>
        <pt x="848" y="688" on="1"/>
        <pt x="961" y="688" on="1"/>
        <pt x="782" y="0" on="1"/>
        <pt x="644" y="0" on="1"/>
      </contour>
    </TTGlyph>
    <TTGlyph name="Wacute" xMin="30" yMin="0" xMax="961" yMax="888">
      <component glyphName="W" x="0" y="0" flags="0x0"/>
      <component glyphName="acutecomb.case" x="681" y="0" flags="0x0"/>
    </TTGlyph>
    <TTGlyph name="Wcircumflex" xMin="30" yMin="0" xMax="961" yMax="888">
      <component glyphName="W" x="0" y="0" flags="0x0"/>
      <component glyphName="uni0302.case" x="668" y="0" flags="0x0"/>
    </TTGlyph>
    <TTGlyph name="Wdieresis" xMin="30" yMin="0" xMax="961" yMax="875">
      <component glyphName="W" x="0" y="0" flags="0x0"/>
      <component glyphName="uni0308.case" x="658" y="0" flags="0x0"/>
    </TTGlyph>
    <TTGlyph name="Wgrave" xMin="30" yMin="0" xMax="961" yMax="888">
      <component glyphName="W" x="0" y="0" flags="0x0"/>
      <component glyphName="gravecomb.case" x="560" y="0" flags="0x0"/>
    </TTGlyph>
    <TTGlyph name="X" xMin="23" yMin="0" xMax="653" yMax="688">
      <contour>
        <pt x="340" y="250" on="1"/>
        <pt x="332" y="250" on="1"/>
        <pt x="151" y="0" on="1"/>
        <pt x="23" y="0" on="1"/>
        <pt x="270" y="345" on="1"/>
        <pt x="27" y="688" on="1"/>
        <pt x="159" y="688" on="1"/>
        <pt x="336" y="445" on="1"/>
        <pt x="344" y="445" on="1"/>
        <pt x="521" y="688" on="1"/>
        <pt x="650" y="688" on="1"/>
        <pt x="407" y="348" on="1"/>
        <pt x="653" y="0" on="1"/>
        <pt x="521" y="0" on="1"/>
      </contour>
    </TTGlyph>
    <TTGlyph name="Y" xMin="8" yMin="0" xMax="608" yMax="688">
      <contour>
        <pt x="251" y="250" on="1"/>
        <pt x="8" y="688" on="1"/>
        <pt x="127" y="688" on="1"/>
        <pt x="307" y="369" on="1"/>
        <pt x="314" y="369" on="1"/>
        <pt x="491" y="688" on="1"/>
        <pt x="608" y="688" on="1"/>
        <pt x="363" y="250" on="1"/>
        <pt x="363" y="0" on="1"/>
        <pt x="251" y="0" on="1"/>
      </contour>
    </TTGlyph>
    <TTGlyph name="Y.loclGUA" xMin="41" yMin="0" xMax="576" yMax="688">
      <contour>
        <pt x="576" y="688" on="1"/>
        <pt x="576" y="506" on="1"/>
        <pt x="576" y="381" on="0"/>
        <pt x="547" y="256" on="0"/>
        <pt x="458" y="199" on="0"/>
        <pt x="363" y="194" on="1"/>
        <pt x="363" y="0" on="1"/>
        <pt x="251" y="0" on="1"/>
        <pt x="251" y="194" on="1"/>
        <pt x="158" y="200" on="0"/>
        <pt x="70" y="257" on="0"/>
        <pt x="41" y="381" on="0"/>
        <pt x="41" y="506" on="1"/>
        <pt x="41" y="688" on="1"/>
        <pt x="154" y="688" on="1"/>
        <pt x="154" y="471" on="1"/>
        <pt x="154" y="387" on="0"/>
        <pt x="170" y="320" on="0"/>
        <pt x="232" y="295" on="0"/>
        <pt x="309" y="295" on="1"/>
        <pt x="385" y="295" on="0"/>
        <pt x="447" y="320" on="0"/>
        <pt x="463" y="387" on="0"/>
        <pt x="463" y="471" on="1"/>
        <pt x="463" y="688" on="1"/>
      </contour>
    </TTGlyph>
    <TTGlyph name="Yacute" xMin="8" yMin="0" xMax="608" yMax="893">
      <component glyphName="Y" x="0" y="0" flags="0x0"/>
      <component glyphName="acute" x="252" y="150" flags="0x4"/>
    </TTGlyph>
    <TTGlyph name="Yacute.loclGUA" xMin="41" yMin="0" xMax="576" yMax="888">
      <component glyphName="Y.loclGUA" x="0" y="0" flags="0x0"/>
      <component glyphName="acutecomb.case" x="494" y="0" flags="0x0"/>
    </TTGlyph>
    <TTGlyph name="Ycircumflex" xMin="8" yMin="0" xMax="608" yMax="888">
      <component glyphName="Y" x="0" y="0" flags="0x0"/>
      <component glyphName="uni0302.case" x="481" y="0" flags="0x0"/>
    </TTGlyph>
    <TTGlyph name="Ycircumflex.loclGUA" xMin="41" yMin="0" xMax="576" yMax="888">
      <component glyphName="Y.loclGUA" x="0" y="0" flags="0x0"/>
      <component glyphName="uni0302.case" x="481" y="0" flags="0x0"/>
    </TTGlyph>
    <TTGlyph name="Ydieresis" xMin="8" yMin="0" xMax="608" yMax="871">
      <component glyphName="Y" x="0" y="0" flags="0x0"/>
      <component glyphName="dieresis" x="149" y="141" flags="0x4"/>
    </TTGlyph>
    <TTGlyph name="Ydieresis.loclGUA" xMin="41" yMin="0" xMax="576" yMax="875">
      <component glyphName="Y.loclGUA" x="0" y="0" flags="0x0"/>
      <component glyphName="uni0308.case" x="471" y="0" flags="0x0"/>
    </TTGlyph>
    <TTGlyph name="Ygrave" xMin="8" yMin="0" xMax="608" yMax="888">
      <component glyphName="Y" x="0" y="0" flags="0x0"/>
      <component glyphName="gravecomb.case" x="373" y="0" flags="0x0"/>
    </TTGlyph>
    <TTGlyph name="Ygrave.loclGUA" xMin="41" yMin="0" xMax="576" yMax="888">
      <component glyphName="Y.loclGUA" x="0" y="0" flags="0x0"/>
      <component glyphName="gravecomb.case" x="373" y="0" flags="0x0"/>
    </TTGlyph>
    <TTGlyph name="Z" xMin="50" yMin="0" xMax="562" yMax="688">
      <contour>
        <pt x="50" y="97" on="1"/>
        <pt x="414" y="586" on="1"/>
        <pt x="61" y="586" on="1"/>
        <pt x="61" y="688" on="1"/>
        <pt x="557" y="688" on="1"/>
        <pt x="557" y="594" on="1"/>
        <pt x="191" y="101" on="1"/>
        <pt x="562" y="101" on="1"/>
        <pt x="562" y="0" on="1"/>
        <pt x="50" y="0" on="1"/>
      </contour>
    </TTGlyph>
    <TTGlyph name="Zacute" xMin="50" yMin="0" xMax="562" yMax="888">
      <component glyphName="Z" x="0" y="0" flags="0x0"/>
      <component glyphName="acutecomb.case" x="491" y="0" flags="0x0"/>
    </TTGlyph>
    <TTGlyph name="Zacute.loclPLK" xMin="50" yMin="0" xMax="562" yMax="888">
      <component glyphName="Z" x="0" y="0" flags="0x0"/>
      <component glyphName="acute.case.loclPLK" x="242" y="0" flags="0x0"/>
    </TTGlyph>
    <TTGlyph name="Zcaron" xMin="50" yMin="0" xMax="562" yMax="894">
      <component glyphName="Z" x="0" y="0" flags="0x0"/>
      <component glyphName="caron" x="140" y="151" flags="0x4"/>
    </TTGlyph>
    <TTGlyph name="Zdotaccent" xMin="50" yMin="0" xMax="562" yMax="875">
      <component glyphName="Z" x="0" y="0" flags="0x0"/>
      <component glyphName="uni0307.case" x="372" y="0" flags="0x0"/>
    </TTGlyph>
    <TTGlyph name="a" xMin="50" yMin="-8" xMax="487" yMax="518">
      <contour>
        <pt x="127" y="-8" on="0"/>
        <pt x="50" y="60" on="0"/>
        <pt x="50" y="142" on="1"/>
        <pt x="50" y="202" on="0"/>
        <pt x="78" y="269" on="0"/>
        <pt x="146" y="300" on="0"/>
        <pt x="208" y="300" on="1"/>
        <pt x="265" y="300" on="0"/>
        <pt x="381" y="296" on="1"/>
        <pt x="381" y="318" on="1"/>
        <pt x="381" y="369" on="0"/>
        <pt x="360" y="412" on="0"/>
        <pt x="304" y="424" on="0"/>
        <pt x="235" y="424" on="1"/>
        <pt x="202" y="424" on="0"/>
        <pt x="106" y="418" on="0"/>
        <pt x="83" y="414" on="1"/>
        <pt x="83" y="503" on="1"/>
        <pt x="167" y="518" on="0"/>
        <pt x="272" y="518" on="1"/>
        <pt x="366" y="518" on="0"/>
        <pt x="457" y="477" on="0"/>
        <pt x="487" y="393" on="0"/>
        <pt x="487" y="314" on="1"/>
        <pt x="487" y="0" on="1"/>
        <pt x="390" y="0" on="1"/>
        <pt x="386" y="65" on="1"/>
        <pt x="380" y="65" on="1"/>
        <pt x="357" y="21" on="0"/>
        <pt x="267" y="-8" on="0"/>
        <pt x="209" y="-8" on="1"/>
      </contour>
      <contour>
        <pt x="298" y="83" on="0"/>
        <pt x="350" y="100" on="0"/>
        <pt x="363" y="121" on="1"/>
        <pt x="381" y="151" on="0"/>
        <pt x="381" y="209" on="1"/>
        <pt x="381" y="224" on="1"/>
        <pt x="235" y="224" on="1"/>
        <pt x="200" y="224" on="0"/>
        <pt x="167" y="214" on="0"/>
        <pt x="154" y="184" on="0"/>
        <pt x="154" y="153" on="1"/>
        <pt x="154" y="122" on="0"/>
        <pt x="169" y="93" on="0"/>
        <pt x="211" y="83" on="0"/>
        <pt x="257" y="83" on="1"/>
      </contour>
    </TTGlyph>
    <TTGlyph name="aacute" xMin="50" yMin="-8" xMax="487" yMax="743">
      <component glyphName="a" x="0" y="0" flags="0x0"/>
      <component glyphName="acute" x="213" y="0" flags="0x0"/>
    </TTGlyph>
    <TTGlyph name="abreve" xMin="50" yMin="-8" xMax="487" yMax="743">
      <component glyphName="a" x="0" y="0" flags="0x0"/>
      <component glyphName="uni0306" x="447" y="0" flags="0x0"/>
    </TTGlyph>
    <TTGlyph name="acircumflex" xMin="50" yMin="-8" xMax="487" yMax="743">
      <component glyphName="a" x="0" y="0" flags="0x0"/>
      <component glyphName="circumflex" x="113" y="0" flags="0x0"/>
    </TTGlyph>
    <TTGlyph name="acute" xMin="20" yMin="600" xMax="229" yMax="743">
      <contour>
        <pt x="20" y="605" on="1"/>
        <pt x="118" y="743" on="1"/>
        <pt x="229" y="743" on="1"/>
        <pt x="229" y="738" on="1"/>
        <pt x="98" y="600" on="1"/>
        <pt x="20" y="600" on="1"/>
      </contour>
    </TTGlyph>
    <TTGlyph name="acute.case.loclPLK" xMin="20" yMin="745" xMax="178" yMax="888">
      <contour>
        <pt x="20" y="750" on="1"/>
        <pt x="68" y="888" on="1"/>
        <pt x="178" y="888" on="1"/>
        <pt x="178" y="883" on="1"/>
        <pt x="98" y="745" on="1"/>
        <pt x="20" y="745" on="1"/>
      </contour>
    </TTGlyph>
    <TTGlyph name="acute.loclPLK" xMin="20" yMin="600" xMax="178" yMax="743">
      <contour>
        <pt x="20" y="605" on="1"/>
        <pt x="68" y="743" on="1"/>
        <pt x="178" y="743" on="1"/>
        <pt x="178" y="738" on="1"/>
        <pt x="98" y="600" on="1"/>
        <pt x="20" y="600" on="1"/>
      </contour>
    </TTGlyph>
    <TTGlyph name="acutecomb" xMin="-229" yMin="600" xMax="-20" yMax="743">
      <contour>
        <pt x="-229" y="605" on="1"/>
        <pt x="-131" y="743" on="1"/>
        <pt x="-20" y="743" on="1"/>
        <pt x="-20" y="738" on="1"/>
        <pt x="-151" y="600" on="1"/>
        <pt x="-229" y="600" on="1"/>
      </contour>
    </TTGlyph>
    <TTGlyph name="acutecomb.case" xMin="-229" yMin="745" xMax="-20" yMax="888">
      <contour>
        <pt x="-229" y="750" on="1"/>
        <pt x="-131" y="888" on="1"/>
        <pt x="-20" y="888" on="1"/>
        <pt x="-20" y="883" on="1"/>
        <pt x="-151" y="745" on="1"/>
        <pt x="-229" y="745" on="1"/>
      </contour>
    </TTGlyph>
    <TTGlyph name="adieresis" xMin="50" yMin="-8" xMax="487" yMax="730">
      <component glyphName="a" x="0" y="0" flags="0x0"/>
      <component glyphName="dieresis" x="120" y="0" flags="0x0"/>
    </TTGlyph>
    <TTGlyph name="ae" xMin="50" yMin="-8" xMax="822" yMax="518">
      <contour>
        <pt x="822" y="220" on="1"/>
        <pt x="489" y="220" on="1"/>
        <pt x="489" y="158" on="0"/>
        <pt x="506" y="106" on="0"/>
        <pt x="569" y="85" on="0"/>
        <pt x="644" y="85" on="1"/>
        <pt x="708" y="85" on="0"/>
        <pt x="802" y="95" on="1"/>
        <pt x="802" y="7" on="1"/>
        <pt x="769" y="0" on="0"/>
        <pt x="667" y="-8" on="0"/>
        <pt x="619" y="-8" on="1"/>
        <pt x="536" y="-8" on="0"/>
        <pt x="443" y="22" on="0"/>
        <pt x="420" y="57" on="1"/>
        <pt x="389" y="17" on="0"/>
        <pt x="291" y="-8" on="0"/>
        <pt x="226" y="-8" on="1"/>
        <pt x="135" y="-8" on="0"/>
        <pt x="50" y="60" on="0"/>
        <pt x="50" y="142" on="1"/>
        <pt x="50" y="202" on="0"/>
        <pt x="78" y="269" on="0"/>
        <pt x="146" y="300" on="0"/>
        <pt x="208" y="300" on="1"/>
        <pt x="208" y="300" on="0"/>
        <pt x="337" y="297" on="1"/>
        <pt x="381" y="296" on="1"/>
        <pt x="381" y="318" on="1"/>
        <pt x="381" y="369" on="0"/>
        <pt x="360" y="412" on="0"/>
        <pt x="304" y="424" on="0"/>
        <pt x="235" y="424" on="1"/>
        <pt x="200" y="424" on="0"/>
        <pt x="100" y="418" on="0"/>
        <pt x="83" y="414" on="1"/>
        <pt x="83" y="503" on="1"/>
        <pt x="175" y="518" on="0"/>
        <pt x="272" y="518" on="1"/>
        <pt x="337" y="518" on="0"/>
        <pt x="418" y="496" on="0"/>
        <pt x="441" y="471" on="1"/>
        <pt x="466" y="495" on="0"/>
        <pt x="549" y="518" on="0"/>
        <pt x="611" y="518" on="1"/>
        <pt x="710" y="518" on="0"/>
        <pt x="799" y="464" on="0"/>
        <pt x="822" y="361" on="0"/>
        <pt x="822" y="255" on="1"/>
      </contour>
      <contour>
        <pt x="555" y="425" on="0"/>
        <pt x="506" y="404" on="0"/>
        <pt x="490" y="352" on="0"/>
        <pt x="489" y="294" on="1"/>
        <pt x="720" y="294" on="1"/>
        <pt x="720" y="296" on="1"/>
        <pt x="720" y="353" on="0"/>
        <pt x="701" y="407" on="0"/>
        <pt x="655" y="425" on="0"/>
        <pt x="609" y="425" on="1"/>
      </contour>
      <contour>
        <pt x="381" y="221" on="1"/>
        <pt x="235" y="221" on="1"/>
        <pt x="199" y="221" on="0"/>
        <pt x="167" y="212" on="0"/>
        <pt x="154" y="184" on="0"/>
        <pt x="154" y="153" on="1"/>
        <pt x="154" y="122" on="0"/>
        <pt x="169" y="93" on="0"/>
        <pt x="211" y="83" on="0"/>
        <pt x="257" y="83" on="1"/>
        <pt x="301" y="83" on="0"/>
        <pt x="355" y="103" on="0"/>
        <pt x="367" y="130" on="1"/>
        <pt x="381" y="157" on="0"/>
        <pt x="381" y="209" on="1"/>
      </contour>
    </TTGlyph>
    <TTGlyph name="aeacute" xMin="50" yMin="-8" xMax="822" yMax="743">
      <component glyphName="ae" x="0" y="0" flags="0x0"/>
      <component glyphName="acutecomb" x="624" y="0" flags="0x0"/>
    </TTGlyph>
    <TTGlyph name="agrave" xMin="50" yMin="-8" xMax="487" yMax="743">
      <component glyphName="a" x="0" y="0" flags="0x0"/>
      <component glyphName="grave" x="105" y="0" flags="0x0"/>
    </TTGlyph>
    <TTGlyph name="amacron" xMin="50" yMin="-8" xMax="487" yMax="742">
      <component glyphName="a" x="0" y="0" flags="0x0"/>
      <component glyphName="uni0304" x="467" y="0" flags="0x0"/>
    </TTGlyph>
    <TTGlyph name="ampersand" xMin="63" yMin="-8" xMax="703" yMax="696">
      <contour>
        <pt x="703" y="395" on="1"/>
        <pt x="703" y="300" on="1"/>
        <pt x="591" y="300" on="1"/>
        <pt x="591" y="13" on="1"/>
        <pt x="547" y="4" on="0"/>
        <pt x="418" y="-8" on="0"/>
        <pt x="364" y="-8" on="1"/>
        <pt x="239" y="-8" on="0"/>
        <pt x="107" y="41" on="0"/>
        <pt x="63" y="122" on="0"/>
        <pt x="63" y="184" on="1"/>
        <pt x="63" y="239" on="0"/>
        <pt x="91" y="304" on="0"/>
        <pt x="144" y="339" on="0"/>
        <pt x="188" y="349" on="1"/>
        <pt x="188" y="353" on="1"/>
        <pt x="126" y="368" on="0"/>
        <pt x="69" y="442" on="0"/>
        <pt x="69" y="515" on="1"/>
        <pt x="69" y="599" on="0"/>
        <pt x="195" y="696" on="0"/>
        <pt x="363" y="696" on="1"/>
        <pt x="412" y="696" on="0"/>
        <pt x="538" y="684" on="0"/>
        <pt x="587" y="675" on="1"/>
        <pt x="587" y="586" on="1"/>
        <pt x="541" y="592" on="0"/>
        <pt x="429" y="600" on="0"/>
        <pt x="389" y="600" on="1"/>
        <pt x="295" y="600" on="0"/>
        <pt x="206" y="581" on="0"/>
        <pt x="177" y="539" on="0"/>
        <pt x="177" y="496" on="1"/>
        <pt x="177" y="462" on="0"/>
        <pt x="193" y="420" on="0"/>
        <pt x="248" y="395" on="0"/>
        <pt x="303" y="395" on="1"/>
        <pt x="388" y="395" on="1"/>
        <pt x="388" y="300" on="1"/>
        <pt x="303" y="300" on="1"/>
        <pt x="245" y="300" on="0"/>
        <pt x="189" y="279" on="0"/>
        <pt x="171" y="235" on="0"/>
        <pt x="171" y="194" on="1"/>
        <pt x="171" y="149" on="0"/>
        <pt x="209" y="103" on="0"/>
        <pt x="290" y="87" on="0"/>
        <pt x="364" y="87" on="1"/>
        <pt x="421" y="87" on="0"/>
        <pt x="486" y="92" on="1"/>
        <pt x="486" y="395" on="1"/>
      </contour>
    </TTGlyph>
    <TTGlyph name="aogonek" xMin="50" yMin="-196" xMax="490" yMax="518">
      <contour>
        <pt x="490" y="-126" on="1"/>
        <pt x="490" y="-193" on="1"/>
        <pt x="455" y="-196" on="0"/>
        <pt x="441" y="-196" on="1"/>
        <pt x="335" y="-196" on="0"/>
        <pt x="335" y="-119" on="1"/>
        <pt x="335" y="-60" on="0"/>
        <pt x="395" y="0" on="1"/>
        <pt x="390" y="0" on="1"/>
        <pt x="386" y="65" on="1"/>
        <pt x="380" y="65" on="1"/>
        <pt x="357" y="21" on="0"/>
        <pt x="267" y="-8" on="0"/>
        <pt x="209" y="-8" on="1"/>
        <pt x="127" y="-8" on="0"/>
        <pt x="50" y="60" on="0"/>
        <pt x="50" y="142" on="1"/>
        <pt x="50" y="202" on="0"/>
        <pt x="78" y="269" on="0"/>
        <pt x="146" y="300" on="0"/>
        <pt x="208" y="300" on="1"/>
        <pt x="265" y="300" on="0"/>
        <pt x="381" y="296" on="1"/>
        <pt x="381" y="318" on="1"/>
        <pt x="381" y="369" on="0"/>
        <pt x="360" y="412" on="0"/>
        <pt x="304" y="424" on="0"/>
        <pt x="235" y="424" on="1"/>
        <pt x="202" y="424" on="0"/>
        <pt x="106" y="418" on="0"/>
        <pt x="83" y="414" on="1"/>
        <pt x="83" y="503" on="1"/>
        <pt x="167" y="518" on="0"/>
        <pt x="272" y="518" on="1"/>
        <pt x="366" y="518" on="0"/>
        <pt x="457" y="477" on="0"/>
        <pt x="487" y="393" on="0"/>
        <pt x="487" y="314" on="1"/>
        <pt x="487" y="0" on="1"/>
        <pt x="464" y="-14" on="0"/>
        <pt x="426" y="-68" on="0"/>
        <pt x="426" y="-92" on="1"/>
        <pt x="426" y="-127" on="0"/>
        <pt x="471" y="-127" on="1"/>
      </contour>
      <contour>
        <pt x="381" y="224" on="1"/>
        <pt x="235" y="224" on="1"/>
        <pt x="200" y="224" on="0"/>
        <pt x="167" y="214" on="0"/>
        <pt x="154" y="184" on="0"/>
        <pt x="154" y="153" on="1"/>
        <pt x="154" y="122" on="0"/>
        <pt x="169" y="93" on="0"/>
        <pt x="211" y="83" on="0"/>
        <pt x="257" y="83" on="1"/>
        <pt x="298" y="83" on="0"/>
        <pt x="350" y="100" on="0"/>
        <pt x="363" y="121" on="1"/>
        <pt x="381" y="151" on="0"/>
        <pt x="381" y="209" on="1"/>
      </contour>
    </TTGlyph>
    <TTGlyph name="approxequal" xMin="62" yMin="90" xMax="434" yMax="417">
      <contour>
        <pt x="62" y="327" on="0"/>
        <pt x="72" y="379" on="0"/>
        <pt x="106" y="406" on="0"/>
        <pt x="142" y="406" on="1"/>
        <pt x="168" y="406" on="0"/>
        <pt x="221" y="395" on="0"/>
        <pt x="261" y="385" on="1"/>
        <pt x="320" y="368" on="0"/>
        <pt x="347" y="368" on="1"/>
        <pt x="367" y="368" on="0"/>
        <pt x="376" y="386" on="0"/>
        <pt x="376" y="417" on="1"/>
        <pt x="434" y="417" on="1"/>
        <pt x="434" y="369" on="0"/>
        <pt x="424" y="317" on="0"/>
        <pt x="390" y="290" on="0"/>
        <pt x="354" y="290" on="1"/>
        <pt x="310" y="290" on="0"/>
        <pt x="236" y="312" on="1"/>
        <pt x="228" y="314" on="0"/>
        <pt x="170" y="329" on="0"/>
        <pt x="150" y="329" on="1"/>
        <pt x="130" y="329" on="0"/>
        <pt x="121" y="310" on="0"/>
        <pt x="121" y="279" on="1"/>
        <pt x="62" y="279" on="1"/>
      </contour>
      <contour>
        <pt x="62" y="138" on="0"/>
        <pt x="72" y="190" on="0"/>
        <pt x="106" y="217" on="0"/>
        <pt x="142" y="217" on="1"/>
        <pt x="168" y="217" on="0"/>
        <pt x="221" y="206" on="0"/>
        <pt x="261" y="196" on="1"/>
        <pt x="320" y="179" on="0"/>
        <pt x="347" y="179" on="1"/>
        <pt x="367" y="179" on="0"/>
        <pt x="376" y="197" on="0"/>
        <pt x="376" y="228" on="1"/>
        <pt x="434" y="228" on="1"/>
        <pt x="434" y="180" on="0"/>
        <pt x="424" y="128" on="0"/>
        <pt x="390" y="101" on="0"/>
        <pt x="354" y="101" on="1"/>
        <pt x="328" y="101" on="0"/>
        <pt x="280" y="111" on="0"/>
        <pt x="235" y="123" on="1"/>
        <pt x="228" y="125" on="0"/>
        <pt x="171" y="140" on="0"/>
        <pt x="150" y="140" on="1"/>
        <pt x="130" y="140" on="0"/>
        <pt x="121" y="121" on="0"/>
        <pt x="121" y="90" on="1"/>
        <pt x="62" y="90" on="1"/>
      </contour>
    </TTGlyph>
    <TTGlyph name="aring" xMin="50" yMin="-8" xMax="487" yMax="809">
      <component glyphName="a" x="0" y="0" flags="0x0"/>
      <component glyphName="ring" x="127" y="-14" flags="0x4"/>
    </TTGlyph>
    <TTGlyph name="aringacute" xMin="50" yMin="-8" xMax="487" yMax="996">
      <component glyphName="a" x="0" y="0" flags="0x0"/>
      <component glyphName="uni030A" x="441" y="0" flags="0x0"/>
      <component glyphName="acutecomb" x="468" y="253" flags="0x4"/>
    </TTGlyph>
    <TTGlyph name="arrowboth" xMin="55" yMin="165" xMax="828" yMax="444">
      <contour>
        <pt x="55" y="304" on="1"/>
        <pt x="335" y="444" on="1"/>
        <pt x="300" y="346" on="1"/>
        <pt x="582" y="346" on="1"/>
        <pt x="548" y="444" on="1"/>
        <pt x="828" y="304" on="1"/>
        <pt x="548" y="165" on="1"/>
        <pt x="582" y="262" on="1"/>
        <pt x="300" y="262" on="1"/>
        <pt x="335" y="165" on="1"/>
      </contour>
    </TTGlyph>
    <TTGlyph name="arrowdown" xMin="60" yMin="-85" xMax="335" yMax="688">
      <contour>
        <pt x="60" y="197" on="1"/>
        <pt x="158" y="163" on="1"/>
        <pt x="158" y="688" on="1"/>
        <pt x="238" y="688" on="1"/>
        <pt x="238" y="163" on="1"/>
        <pt x="335" y="197" on="1"/>
        <pt x="198" y="-85" on="1"/>
      </contour>
    </TTGlyph>
    <TTGlyph name="arrowdown.ss01" xMin="30" yMin="171" xMax="315" yMax="456">
      <contour>
        <pt x="30" y="456" on="1"/>
        <pt x="315" y="456" on="1"/>
        <pt x="173" y="171" on="1"/>
      </contour>
    </TTGlyph>
    <TTGlyph name="arrowleft" xMin="55" yMin="165" xMax="828" yMax="444">
      <contour>
        <pt x="333" y="165" on="1"/>
        <pt x="55" y="304" on="1"/>
        <pt x="333" y="444" on="1"/>
        <pt x="299" y="346" on="1"/>
        <pt x="828" y="346" on="1"/>
        <pt x="828" y="262" on="1"/>
        <pt x="299" y="262" on="1"/>
      </contour>
    </TTGlyph>
    <TTGlyph name="arrowleft.ss01" xMin="30" yMin="201" xMax="315" yMax="486">
      <contour>
        <pt x="30" y="343" on="1"/>
        <pt x="315" y="486" on="1"/>
        <pt x="315" y="201" on="1"/>
      </contour>
    </TTGlyph>
    <TTGlyph name="arrowright" xMin="55" yMin="165" xMax="828" yMax="444">
      <contour>
        <pt x="582" y="262" on="1"/>
        <pt x="55" y="262" on="1"/>
        <pt x="55" y="346" on="1"/>
        <pt x="582" y="346" on="1"/>
        <pt x="548" y="444" on="1"/>
        <pt x="828" y="304" on="1"/>
        <pt x="548" y="165" on="1"/>
      </contour>
    </TTGlyph>
    <TTGlyph name="arrowright.ss01" xMin="48" yMin="201" xMax="333" yMax="486">
      <contour>
        <pt x="48" y="486" on="1"/>
        <pt x="333" y="343" on="1"/>
        <pt x="48" y="201" on="1"/>
      </contour>
    </TTGlyph>
    <TTGlyph name="arrowup" xMin="60" yMin="-82" xMax="335" yMax="691">
      <contour>
        <pt x="158" y="443" on="1"/>
        <pt x="60" y="409" on="1"/>
        <pt x="198" y="691" on="1"/>
        <pt x="335" y="409" on="1"/>
        <pt x="238" y="443" on="1"/>
        <pt x="238" y="-82" on="1"/>
        <pt x="158" y="-82" on="1"/>
      </contour>
    </TTGlyph>
    <TTGlyph name="arrowup.ss01" xMin="30" yMin="231" xMax="315" yMax="516">
      <contour>
        <pt x="173" y="516" on="1"/>
        <pt x="315" y="231" on="1"/>
        <pt x="30" y="231" on="1"/>
      </contour>
    </TTGlyph>
    <TTGlyph name="arrowupdn" xMin="60" yMin="-85" xMax="335" yMax="696">
      <contour>
        <pt x="60" y="197" on="1"/>
        <pt x="158" y="163" on="1"/>
        <pt x="158" y="448" on="1"/>
        <pt x="60" y="414" on="1"/>
        <pt x="198" y="696" on="1"/>
        <pt x="335" y="414" on="1"/>
        <pt x="238" y="448" on="1"/>
        <pt x="238" y="163" on="1"/>
        <pt x="335" y="197" on="1"/>
        <pt x="198" y="-85" on="1"/>
      </contour>
    </TTGlyph>
    <TTGlyph name="arrowupdnbse" xMin="55" yMin="-198" xMax="340" yMax="696">
      <contour>
        <pt x="60" y="197" on="1"/>
        <pt x="158" y="163" on="1"/>
        <pt x="158" y="448" on="1"/>
        <pt x="60" y="414" on="1"/>
        <pt x="198" y="696" on="1"/>
        <pt x="335" y="414" on="1"/>
        <pt x="238" y="448" on="1"/>
        <pt x="238" y="163" on="1"/>
        <pt x="335" y="197" on="1"/>
        <pt x="198" y="-85" on="1"/>
      </contour>
      <contour>
        <pt x="55" y="-120" on="1"/>
        <pt x="340" y="-120" on="1"/>
        <pt x="340" y="-198" on="1"/>
        <pt x="55" y="-198" on="1"/>
      </contour>
    </TTGlyph>
    <TTGlyph name="asciicircum" xMin="39" yMin="443" xMax="409" yMax="749">
      <contour>
        <pt x="225" y="670" on="1"/>
        <pt x="122" y="443" on="1"/>
        <pt x="39" y="443" on="1"/>
        <pt x="180" y="749" on="1"/>
        <pt x="270" y="749" on="1"/>
        <pt x="409" y="443" on="1"/>
        <pt x="327" y="443" on="1"/>
      </contour>
    </TTGlyph>
    <TTGlyph name="asciitilde" xMin="62" yMin="233" xMax="434" yMax="372">
      <contour>
        <pt x="434" y="324" on="0"/>
        <pt x="424" y="272" on="0"/>
        <pt x="390" y="244" on="0"/>
        <pt x="354" y="244" on="1"/>
        <pt x="328" y="244" on="0"/>
        <pt x="280" y="254" on="0"/>
        <pt x="235" y="266" on="1"/>
        <pt x="228" y="268" on="0"/>
        <pt x="171" y="283" on="0"/>
        <pt x="150" y="283" on="1"/>
        <pt x="130" y="283" on="0"/>
        <pt x="121" y="264" on="0"/>
        <pt x="121" y="233" on="1"/>
        <pt x="62" y="233" on="1"/>
        <pt x="62" y="281" on="0"/>
        <pt x="72" y="333" on="0"/>
        <pt x="106" y="361" on="0"/>
        <pt x="142" y="361" on="1"/>
        <pt x="168" y="361" on="0"/>
        <pt x="216" y="351" on="0"/>
        <pt x="261" y="339" on="1"/>
        <pt x="320" y="322" on="0"/>
        <pt x="347" y="322" on="1"/>
        <pt x="367" y="322" on="0"/>
        <pt x="376" y="341" on="0"/>
        <pt x="376" y="372" on="1"/>
        <pt x="434" y="372" on="1"/>
      </contour>
    </TTGlyph>
    <TTGlyph name="asterisk" xMin="46" yMin="318" xMax="398" yMax="688">
      <contour>
        <pt x="255" y="318" on="1"/>
        <pt x="190" y="318" on="1"/>
        <pt x="198" y="458" on="1"/>
        <pt x="78" y="379" on="1"/>
        <pt x="46" y="440" on="1"/>
        <pt x="174" y="502" on="1"/>
        <pt x="46" y="566" on="1"/>
        <pt x="78" y="626" on="1"/>
        <pt x="198" y="547" on="1"/>
        <pt x="190" y="688" on="1"/>
        <pt x="255" y="688" on="1"/>
        <pt x="245" y="548" on="1"/>
        <pt x="367" y="626" on="1"/>
        <pt x="398" y="566" on="1"/>
        <pt x="271" y="502" on="1"/>
        <pt x="398" y="440" on="1"/>
        <pt x="367" y="379" on="1"/>
        <pt x="246" y="458" on="1"/>
      </contour>
    </TTGlyph>
    <TTGlyph name="asterisk.ss02" xMin="35" yMin="-14" xMax="782" yMax="705">
      <contour>
        <pt x="269" y="262" on="1"/>
        <pt x="35" y="436" on="1"/>
        <pt x="322" y="436" on="1"/>
        <pt x="409" y="705" on="1"/>
        <pt x="494" y="436" on="1"/>
        <pt x="782" y="436" on="1"/>
        <pt x="550" y="262" on="1"/>
        <pt x="640" y="-14" on="1"/>
        <pt x="409" y="156" on="1"/>
        <pt x="178" y="-14" on="1"/>
      </contour>
    </TTGlyph>
    <TTGlyph name="at" xMin="80" yMin="-108" xMax="854" yMax="696">
      <contour>
        <pt x="272" y="-108" on="0"/>
        <pt x="119" y="-52" on="0"/>
        <pt x="80" y="98" on="0"/>
        <pt x="80" y="294" on="1"/>
        <pt x="80" y="490" on="0"/>
        <pt x="119" y="641" on="0"/>
        <pt x="272" y="696" on="0"/>
        <pt x="467" y="696" on="1"/>
        <pt x="663" y="696" on="0"/>
        <pt x="815" y="642" on="0"/>
        <pt x="854" y="492" on="0"/>
        <pt x="854" y="294" on="1"/>
        <pt x="854" y="188" on="0"/>
        <pt x="829" y="97" on="0"/>
        <pt x="779" y="75" on="0"/>
        <pt x="722" y="75" on="1"/>
        <pt x="570" y="75" on="1"/>
        <pt x="565" y="131" on="1"/>
        <pt x="559" y="131" on="1"/>
        <pt x="539" y="93" on="0"/>
        <pt x="467" y="68" on="0"/>
        <pt x="417" y="68" on="1"/>
        <pt x="343" y="68" on="0"/>
        <pt x="277" y="128" on="0"/>
        <pt x="277" y="199" on="1"/>
        <pt x="277" y="251" on="0"/>
        <pt x="300" y="307" on="0"/>
        <pt x="357" y="331" on="0"/>
        <pt x="411" y="331" on="1"/>
        <pt x="464" y="331" on="0"/>
        <pt x="562" y="327" on="1"/>
        <pt x="562" y="347" on="1"/>
        <pt x="562" y="391" on="0"/>
        <pt x="546" y="425" on="0"/>
        <pt x="498" y="435" on="0"/>
        <pt x="438" y="435" on="1"/>
        <pt x="406" y="435" on="0"/>
        <pt x="321" y="430" on="0"/>
        <pt x="305" y="428" on="1"/>
        <pt x="305" y="505" on="1"/>
        <pt x="389" y="518" on="0"/>
        <pt x="470" y="518" on="1"/>
        <pt x="553" y="518" on="0"/>
        <pt x="633" y="483" on="0"/>
        <pt x="658" y="412" on="0"/>
        <pt x="658" y="344" on="1"/>
        <pt x="658" y="126" on="1"/>
        <pt x="733" y="126" on="1"/>
        <pt x="762" y="126" on="0"/>
        <pt x="787" y="143" on="0"/>
        <pt x="799" y="212" on="0"/>
        <pt x="799" y="294" on="1"/>
        <pt x="799" y="431" on="0"/>
        <pt x="786" y="554" on="0"/>
        <pt x="732" y="620" on="0"/>
        <pt x="671" y="632" on="1"/>
        <pt x="639" y="639" on="0"/>
        <pt x="546" y="643" on="0"/>
        <pt x="466" y="643" on="1"/>
        <pt x="336" y="643" on="0"/>
        <pt x="283" y="636" on="1"/>
        <pt x="211" y="626" on="0"/>
        <pt x="149" y="564" on="0"/>
        <pt x="133" y="438" on="0"/>
        <pt x="133" y="294" on="1"/>
        <pt x="133" y="137" on="0"/>
        <pt x="153" y="8" on="0"/>
        <pt x="232" y="-47" on="0"/>
        <pt x="327" y="-53" on="1"/>
        <pt x="363" y="-55" on="0"/>
        <pt x="467" y="-55" on="1"/>
        <pt x="515" y="-55" on="0"/>
        <pt x="627" y="-52" on="0"/>
        <pt x="658" y="-51" on="1"/>
        <pt x="658" y="-105" on="1"/>
        <pt x="585" y="-108" on="0"/>
        <pt x="467" y="-108" on="1"/>
      </contour>
      <contour>
        <pt x="500" y="145" on="0"/>
        <pt x="545" y="161" on="0"/>
        <pt x="562" y="202" on="0"/>
        <pt x="562" y="241" on="1"/>
        <pt x="562" y="266" on="1"/>
        <pt x="435" y="266" on="1"/>
        <pt x="406" y="266" on="0"/>
        <pt x="380" y="258" on="0"/>
        <pt x="370" y="233" on="0"/>
        <pt x="370" y="207" on="1"/>
        <pt x="370" y="180" on="0"/>
        <pt x="382" y="154" on="0"/>
        <pt x="417" y="145" on="0"/>
        <pt x="456" y="145" on="1"/>
      </contour>
    </TTGlyph>
    <TTGlyph name="atilde" xMin="50" yMin="-8" xMax="487" yMax="743">
      <component glyphName="a" x="0" y="0" flags="0x0"/>
      <component glyphName="tilde" x="78" y="-1" flags="0x4"/>
    </TTGlyph>
    <TTGlyph name="b" xMin="79" yMin="-8" xMax="528" yMax="743">
      <contour>
        <pt x="290" y="-8" on="0"/>
        <pt x="208" y="23" on="0"/>
        <pt x="187" y="66" on="1"/>
        <pt x="180" y="66" on="1"/>
        <pt x="177" y="0" on="1"/>
        <pt x="79" y="0" on="1"/>
        <pt x="79" y="743" on="1"/>
        <pt x="185" y="743" on="1"/>
        <pt x="185" y="451" on="1"/>
        <pt x="191" y="451" on="1"/>
        <pt x="213" y="489" on="0"/>
        <pt x="291" y="518" on="0"/>
        <pt x="350" y="518" on="1"/>
        <pt x="419" y="518" on="0"/>
        <pt x="495" y="471" on="0"/>
        <pt x="528" y="358" on="0"/>
        <pt x="528" y="255" on="1"/>
        <pt x="528" y="152" on="0"/>
        <pt x="494" y="39" on="0"/>
        <pt x="416" y="-8" on="0"/>
        <pt x="346" y="-8" on="1"/>
      </contour>
      <contour>
        <pt x="359" y="92" on="0"/>
        <pt x="406" y="113" on="0"/>
        <pt x="422" y="178" on="0"/>
        <pt x="422" y="255" on="1"/>
        <pt x="422" y="332" on="0"/>
        <pt x="406" y="396" on="0"/>
        <pt x="359" y="417" on="0"/>
        <pt x="303" y="417" on="1"/>
        <pt x="264" y="417" on="0"/>
        <pt x="216" y="400" on="0"/>
        <pt x="205" y="381" on="1"/>
        <pt x="193" y="363" on="0"/>
        <pt x="185" y="304" on="0"/>
        <pt x="185" y="255" on="1"/>
        <pt x="185" y="206" on="0"/>
        <pt x="193" y="146" on="0"/>
        <pt x="205" y="127" on="1"/>
        <pt x="227" y="92" on="0"/>
        <pt x="303" y="92" on="1"/>
      </contour>
    </TTGlyph>
    <TTGlyph name="backslash" xMin="-6" yMin="-55" xMax="380" yMax="743">
      <contour>
        <pt x="-6" y="743" on="1"/>
        <pt x="90" y="743" on="1"/>
        <pt x="380" y="-55" on="1"/>
        <pt x="286" y="-55" on="1"/>
      </contour>
    </TTGlyph>
    <TTGlyph name="bar" xMin="94" yMin="-161" xMax="189" yMax="743">
      <contour>
        <pt x="94" y="743" on="1"/>
        <pt x="189" y="743" on="1"/>
        <pt x="189" y="-161" on="1"/>
        <pt x="94" y="-161" on="1"/>
      </contour>
    </TTGlyph>
    <TTGlyph name="bar.ss02" xMin="-1" yMin="0" xMax="499" yMax="696">
      <contour>
        <pt x="-1" y="696" on="1"/>
        <pt x="499" y="696" on="1"/>
        <pt x="499" y="0" on="1"/>
        <pt x="-1" y="0" on="1"/>
      </contour>
    </TTGlyph>
    <TTGlyph name="braceleft" xMin="25" yMin="-150" xMax="318" yMax="743">
      <contour>
        <pt x="220" y="-19" on="0"/>
        <pt x="260" y="-98" on="0"/>
        <pt x="310" y="-149" on="0"/>
        <pt x="318" y="-150" on="1"/>
        <pt x="241" y="-150" on="1"/>
        <pt x="232" y="-149" on="0"/>
        <pt x="172" y="-104" on="0"/>
        <pt x="122" y="-23" on="0"/>
        <pt x="122" y="30" on="1"/>
        <pt x="122" y="146" on="1"/>
        <pt x="122" y="268" on="0"/>
        <pt x="25" y="268" on="1"/>
        <pt x="25" y="324" on="1"/>
        <pt x="122" y="324" on="0"/>
        <pt x="122" y="447" on="1"/>
        <pt x="122" y="562" on="1"/>
        <pt x="122" y="616" on="0"/>
        <pt x="172" y="696" on="0"/>
        <pt x="232" y="742" on="0"/>
        <pt x="241" y="743" on="1"/>
        <pt x="318" y="743" on="1"/>
        <pt x="311" y="743" on="0"/>
        <pt x="261" y="692" on="0"/>
        <pt x="220" y="613" on="0"/>
        <pt x="220" y="568" on="1"/>
        <pt x="220" y="446" on="1"/>
        <pt x="220" y="322" on="0"/>
        <pt x="115" y="300" on="1"/>
        <pt x="115" y="293" on="1"/>
        <pt x="220" y="271" on="0"/>
        <pt x="220" y="146" on="1"/>
        <pt x="220" y="25" on="1"/>
      </contour>
    </TTGlyph>
    <TTGlyph name="braceright" xMin="19" yMin="-150" xMax="311" yMax="743">
      <contour>
        <pt x="215" y="324" on="0"/>
        <pt x="311" y="324" on="1"/>
        <pt x="311" y="268" on="1"/>
        <pt x="215" y="268" on="0"/>
        <pt x="215" y="146" on="1"/>
        <pt x="215" y="30" on="1"/>
        <pt x="215" y="-23" on="0"/>
        <pt x="165" y="-104" on="0"/>
        <pt x="105" y="-149" on="0"/>
        <pt x="96" y="-150" on="1"/>
        <pt x="19" y="-150" on="1"/>
        <pt x="26" y="-150" on="0"/>
        <pt x="76" y="-99" on="0"/>
        <pt x="117" y="-20" on="0"/>
        <pt x="117" y="25" on="1"/>
        <pt x="117" y="146" on="1"/>
        <pt x="117" y="271" on="0"/>
        <pt x="222" y="293" on="1"/>
        <pt x="222" y="300" on="1"/>
        <pt x="117" y="322" on="0"/>
        <pt x="117" y="446" on="1"/>
        <pt x="117" y="568" on="1"/>
        <pt x="117" y="612" on="0"/>
        <pt x="77" y="691" on="0"/>
        <pt x="27" y="742" on="0"/>
        <pt x="19" y="743" on="1"/>
        <pt x="96" y="743" on="1"/>
        <pt x="105" y="742" on="0"/>
        <pt x="165" y="696" on="0"/>
        <pt x="215" y="616" on="0"/>
        <pt x="215" y="562" on="1"/>
        <pt x="215" y="447" on="1"/>
      </contour>
    </TTGlyph>
    <TTGlyph name="bracketleft" xMin="92" yMin="-150" xMax="309" yMax="743">
      <contour>
        <pt x="92" y="743" on="1"/>
        <pt x="309" y="743" on="1"/>
        <pt x="309" y="665" on="1"/>
        <pt x="189" y="661" on="1"/>
        <pt x="189" y="-68" on="1"/>
        <pt x="309" y="-72" on="1"/>
        <pt x="309" y="-150" on="1"/>
        <pt x="92" y="-150" on="1"/>
      </contour>
    </TTGlyph>
    <TTGlyph name="bracketleft.ss02" xMin="45" yMin="0" xMax="397" yMax="696">
      <contour>
        <pt x="45" y="0" on="1"/>
        <pt x="45" y="348" on="1"/>
        <pt x="45" y="449" on="0"/>
        <pt x="135" y="608" on="0"/>
        <pt x="295" y="696" on="0"/>
        <pt x="397" y="696" on="1"/>
        <pt x="397" y="0" on="1"/>
      </contour>
    </TTGlyph>
    <TTGlyph name="bracketright" xMin="43" yMin="-150" xMax="259" yMax="743">
      <contour>
        <pt x="43" y="-72" on="1"/>
        <pt x="162" y="-68" on="1"/>
        <pt x="162" y="661" on="1"/>
        <pt x="43" y="665" on="1"/>
        <pt x="43" y="743" on="1"/>
        <pt x="259" y="743" on="1"/>
        <pt x="259" y="-150" on="1"/>
        <pt x="43" y="-150" on="1"/>
      </contour>
    </TTGlyph>
    <TTGlyph name="bracketright.ss02" xMin="0" yMin="0" xMax="352" yMax="696">
      <contour>
        <pt x="0" y="696" on="1"/>
        <pt x="102" y="696" on="0"/>
        <pt x="262" y="608" on="0"/>
        <pt x="352" y="449" on="0"/>
        <pt x="352" y="348" on="1"/>
        <pt x="352" y="0" on="1"/>
        <pt x="0" y="0" on="1"/>
      </contour>
    </TTGlyph>
    <TTGlyph name="breve" xMin="20" yMin="596" xMax="306" yMax="743">
      <contour>
        <pt x="306" y="693" on="0"/>
        <pt x="287" y="632" on="0"/>
        <pt x="225" y="596" on="0"/>
        <pt x="162" y="596" on="1"/>
        <pt x="99" y="596" on="0"/>
        <pt x="38" y="632" on="0"/>
        <pt x="20" y="692" on="0"/>
        <pt x="20" y="743" on="1"/>
        <pt x="84" y="743" on="1"/>
        <pt x="84" y="712" on="0"/>
        <pt x="92" y="681" on="0"/>
        <pt x="125" y="664" on="0"/>
        <pt x="162" y="664" on="1"/>
        <pt x="198" y="664" on="0"/>
        <pt x="232" y="681" on="0"/>
        <pt x="240" y="712" on="0"/>
        <pt x="240" y="743" on="1"/>
        <pt x="306" y="743" on="1"/>
      </contour>
    </TTGlyph>
    <TTGlyph name="brokenbar" xMin="94" yMin="-161" xMax="189" yMax="743">
      <contour>
        <pt x="94" y="743" on="1"/>
        <pt x="189" y="743" on="1"/>
        <pt x="189" y="390" on="1"/>
        <pt x="94" y="390" on="1"/>
      </contour>
      <contour>
        <pt x="94" y="192" on="1"/>
        <pt x="189" y="192" on="1"/>
        <pt x="189" y="-161" on="1"/>
        <pt x="94" y="-161" on="1"/>
      </contour>
    </TTGlyph>
    <TTGlyph name="bullet" xMin="75" yMin="226" xMax="302" yMax="461">
      <contour>
        <pt x="302" y="286" on="0"/>
        <pt x="290" y="242" on="0"/>
        <pt x="244" y="226" on="0"/>
        <pt x="187" y="226" on="1"/>
        <pt x="131" y="226" on="0"/>
        <pt x="87" y="242" on="0"/>
        <pt x="75" y="286" on="0"/>
        <pt x="75" y="342" on="1"/>
        <pt x="75" y="399" on="0"/>
        <pt x="87" y="444" on="0"/>
        <pt x="132" y="461" on="0"/>
        <pt x="187" y="461" on="1"/>
        <pt x="244" y="461" on="0"/>
        <pt x="290" y="444" on="0"/>
        <pt x="302" y="399" on="0"/>
        <pt x="302" y="342" on="1"/>
      </contour>
    </TTGlyph>
    <TTGlyph name="bullet.ss02" xMin="40" yMin="-8" xMax="743" yMax="696">
      <contour>
        <pt x="343" y="421" on="0"/>
        <pt x="279" y="480" on="0"/>
        <pt x="279" y="533" on="1"/>
        <pt x="279" y="575" on="0"/>
        <pt x="318" y="650" on="0"/>
        <pt x="373" y="696" on="0"/>
        <pt x="392" y="696" on="1"/>
        <pt x="411" y="696" on="0"/>
        <pt x="465" y="650" on="0"/>
        <pt x="504" y="575" on="0"/>
        <pt x="504" y="533" on="1"/>
        <pt x="504" y="480" on="0"/>
        <pt x="441" y="421" on="0"/>
        <pt x="392" y="421" on="1"/>
      </contour>
      <contour>
        <pt x="415" y="481" on="0"/>
        <pt x="444" y="508" on="0"/>
        <pt x="444" y="533" on="1"/>
        <pt x="444" y="560" on="0"/>
        <pt x="426" y="607" on="0"/>
        <pt x="401" y="636" on="0"/>
        <pt x="392" y="636" on="1"/>
        <pt x="383" y="636" on="0"/>
        <pt x="358" y="607" on="0"/>
        <pt x="339" y="560" on="0"/>
        <pt x="339" y="533" on="1"/>
        <pt x="339" y="508" on="0"/>
        <pt x="369" y="481" on="0"/>
        <pt x="392" y="481" on="1"/>
      </contour>
      <contour>
        <pt x="161" y="231" on="0"/>
        <pt x="86" y="270" on="0"/>
        <pt x="40" y="325" on="0"/>
        <pt x="40" y="344" on="1"/>
        <pt x="40" y="363" on="0"/>
        <pt x="86" y="417" on="0"/>
        <pt x="161" y="456" on="0"/>
        <pt x="203" y="456" on="1"/>
        <pt x="256" y="456" on="0"/>
        <pt x="315" y="393" on="0"/>
        <pt x="315" y="344" on="1"/>
        <pt x="315" y="295" on="0"/>
        <pt x="256" y="231" on="0"/>
        <pt x="203" y="231" on="1"/>
      </contour>
      <contour>
        <pt x="527" y="231" on="0"/>
        <pt x="468" y="295" on="0"/>
        <pt x="468" y="344" on="1"/>
        <pt x="468" y="393" on="0"/>
        <pt x="527" y="456" on="0"/>
        <pt x="581" y="456" on="1"/>
        <pt x="622" y="456" on="0"/>
        <pt x="697" y="417" on="0"/>
        <pt x="743" y="363" on="0"/>
        <pt x="743" y="344" on="1"/>
        <pt x="743" y="325" on="0"/>
        <pt x="697" y="270" on="0"/>
        <pt x="623" y="231" on="0"/>
        <pt x="581" y="231" on="1"/>
      </contour>
      <contour>
        <pt x="228" y="291" on="0"/>
        <pt x="255" y="321" on="0"/>
        <pt x="255" y="344" on="1"/>
        <pt x="255" y="367" on="0"/>
        <pt x="228" y="396" on="0"/>
        <pt x="203" y="396" on="1"/>
        <pt x="176" y="396" on="0"/>
        <pt x="129" y="378" on="0"/>
        <pt x="100" y="353" on="0"/>
        <pt x="100" y="344" on="1"/>
        <pt x="100" y="335" on="0"/>
        <pt x="129" y="310" on="0"/>
        <pt x="176" y="291" on="0"/>
        <pt x="203" y="291" on="1"/>
      </contour>
      <contour>
        <pt x="607" y="291" on="0"/>
        <pt x="654" y="310" on="0"/>
        <pt x="683" y="335" on="0"/>
        <pt x="683" y="344" on="1"/>
        <pt x="683" y="353" on="0"/>
        <pt x="654" y="378" on="0"/>
        <pt x="607" y="396" on="0"/>
        <pt x="581" y="396" on="1"/>
        <pt x="556" y="396" on="0"/>
        <pt x="528" y="367" on="0"/>
        <pt x="528" y="344" on="1"/>
        <pt x="528" y="321" on="0"/>
        <pt x="556" y="291" on="0"/>
        <pt x="581" y="291" on="1"/>
      </contour>
      <contour>
        <pt x="373" y="-8" on="0"/>
        <pt x="318" y="38" on="0"/>
        <pt x="279" y="113" on="0"/>
        <pt x="279" y="155" on="1"/>
        <pt x="279" y="208" on="0"/>
        <pt x="343" y="267" on="0"/>
        <pt x="392" y="267" on="1"/>
        <pt x="441" y="267" on="0"/>
        <pt x="504" y="208" on="0"/>
        <pt x="504" y="155" on="1"/>
        <pt x="504" y="113" on="0"/>
        <pt x="465" y="38" on="0"/>
        <pt x="411" y="-8" on="0"/>
        <pt x="392" y="-8" on="1"/>
      </contour>
      <contour>
        <pt x="401" y="52" on="0"/>
        <pt x="426" y="81" on="0"/>
        <pt x="444" y="128" on="0"/>
        <pt x="444" y="155" on="1"/>
        <pt x="444" y="180" on="0"/>
        <pt x="415" y="207" on="0"/>
        <pt x="392" y="207" on="1"/>
        <pt x="369" y="207" on="0"/>
        <pt x="339" y="180" on="0"/>
        <pt x="339" y="155" on="1"/>
        <pt x="339" y="128" on="0"/>
        <pt x="358" y="81" on="0"/>
        <pt x="383" y="52" on="0"/>
        <pt x="392" y="52" on="1"/>
      </contour>
    </TTGlyph>
    <TTGlyph name="c" xMin="59" yMin="-8" xMax="414" yMax="518">
      <contour>
        <pt x="387" y="0" on="0"/>
        <pt x="307" y="-8" on="0"/>
        <pt x="271" y="-8" on="1"/>
        <pt x="175" y="-8" on="0"/>
        <pt x="85" y="48" on="0"/>
        <pt x="59" y="154" on="0"/>
        <pt x="59" y="256" on="1"/>
        <pt x="59" y="352" on="0"/>
        <pt x="89" y="461" on="0"/>
        <pt x="179" y="518" on="0"/>
        <pt x="268" y="518" on="1"/>
        <pt x="304" y="518" on="0"/>
        <pt x="384" y="510" on="0"/>
        <pt x="410" y="503" on="1"/>
        <pt x="410" y="414" on="1"/>
        <pt x="358" y="424" on="0"/>
        <pt x="295" y="424" on="1"/>
        <pt x="236" y="424" on="0"/>
        <pt x="183" y="397" on="0"/>
        <pt x="166" y="329" on="0"/>
        <pt x="166" y="255" on="1"/>
        <pt x="166" y="179" on="0"/>
        <pt x="184" y="111" on="0"/>
        <pt x="237" y="86" on="0"/>
        <pt x="297" y="86" on="1"/>
        <pt x="346" y="86" on="0"/>
        <pt x="414" y="95" on="1"/>
        <pt x="414" y="6" on="1"/>
      </contour>
    </TTGlyph>
    <TTGlyph name="cacute" xMin="59" yMin="-8" xMax="414" yMax="743">
      <component glyphName="c" x="0" y="0" flags="0x0"/>
      <component glyphName="acutecomb" x="413" y="0" flags="0x0"/>
    </TTGlyph>
    <TTGlyph name="cacute.loclPLK" xMin="59" yMin="-8" xMax="414" yMax="743">
      <component glyphName="c" x="0" y="0" flags="0x0"/>
      <component glyphName="acute.loclPLK" x="164" y="0" flags="0x0"/>
    </TTGlyph>
    <TTGlyph name="caron" xMin="20" yMin="599" xMax="325" yMax="743">
      <contour>
        <pt x="20" y="736" on="1"/>
        <pt x="20" y="743" on="1"/>
        <pt x="91" y="743" on="1"/>
        <pt x="172" y="653" on="1"/>
        <pt x="253" y="743" on="1"/>
        <pt x="325" y="743" on="1"/>
        <pt x="325" y="736" on="1"/>
        <pt x="226" y="599" on="1"/>
        <pt x="119" y="599" on="1"/>
      </contour>
    </TTGlyph>
    <TTGlyph name="caron.loclCSY" xMin="50" yMin="437" xMax="165" yMax="688">
      <contour>
        <pt x="65" y="621" on="1"/>
        <pt x="65" y="688" on="1"/>
        <pt x="165" y="688" on="1"/>
        <pt x="165" y="621" on="1"/>
        <pt x="124" y="437" on="1"/>
        <pt x="50" y="437" on="1"/>
      </contour>
    </TTGlyph>
    <TTGlyph name="ccaron" xMin="59" yMin="-8" xMax="414" yMax="743">
      <component glyphName="c" x="0" y="0" flags="0x0"/>
      <component glyphName="uni030C" x="404" y="0" flags="0x0"/>
    </TTGlyph>
    <TTGlyph name="ccedilla" xMin="59" yMin="-190" xMax="414" yMax="518">
      <contour>
        <pt x="346" y="86" on="0"/>
        <pt x="414" y="95" on="1"/>
        <pt x="414" y="6" on="1"/>
        <pt x="387" y="0" on="0"/>
        <pt x="307" y="-8" on="0"/>
        <pt x="271" y="-8" on="1"/>
        <pt x="266" y="-8" on="1"/>
        <pt x="229" y="-190" on="1"/>
        <pt x="126" y="-190" on="1"/>
        <pt x="126" y="-185" on="1"/>
        <pt x="192" y="-2" on="1"/>
        <pt x="133" y="9" on="0"/>
        <pt x="76" y="72" on="0"/>
        <pt x="59" y="170" on="0"/>
        <pt x="59" y="256" on="1"/>
        <pt x="59" y="352" on="0"/>
        <pt x="89" y="461" on="0"/>
        <pt x="179" y="518" on="0"/>
        <pt x="268" y="518" on="1"/>
        <pt x="304" y="518" on="0"/>
        <pt x="384" y="510" on="0"/>
        <pt x="410" y="503" on="1"/>
        <pt x="410" y="414" on="1"/>
        <pt x="358" y="424" on="0"/>
        <pt x="295" y="424" on="1"/>
        <pt x="236" y="424" on="0"/>
        <pt x="183" y="397" on="0"/>
        <pt x="166" y="329" on="0"/>
        <pt x="166" y="255" on="1"/>
        <pt x="166" y="179" on="0"/>
        <pt x="184" y="111" on="0"/>
        <pt x="237" y="86" on="0"/>
        <pt x="297" y="86" on="1"/>
      </contour>
    </TTGlyph>
    <TTGlyph name="ccircumflex" xMin="59" yMin="-8" xMax="414" yMax="743">
      <component glyphName="c" x="0" y="0" flags="0x0"/>
      <component glyphName="uni0302" x="404" y="0" flags="0x0"/>
    </TTGlyph>
    <TTGlyph name="cdotaccent" xMin="59" yMin="-8" xMax="414" yMax="730">
      <component glyphName="c" x="0" y="0" flags="0x0"/>
      <component glyphName="uni0307" x="298" y="0" flags="0x0"/>
    </TTGlyph>
    <TTGlyph name="cedilla" xMin="20" yMin="-190" xMax="162" yMax="8">
      <contour>
        <pt x="20" y="-185" on="1"/>
        <pt x="89" y="8" on="1"/>
        <pt x="162" y="8" on="1"/>
        <pt x="162" y="3" on="1"/>
        <pt x="123" y="-190" on="1"/>
        <pt x="20" y="-190" on="1"/>
      </contour>
    </TTGlyph>
    <TTGlyph name="cent" xMin="60" yMin="-8" xMax="418" yMax="696">
      <contour>
        <pt x="418" y="82" on="1"/>
        <pt x="373" y="69" on="0"/>
        <pt x="310" y="68" on="1"/>
        <pt x="310" y="-8" on="1"/>
        <pt x="230" y="-8" on="1"/>
        <pt x="230" y="68" on="1"/>
        <pt x="160" y="75" on="0"/>
        <pt x="85" y="144" on="0"/>
        <pt x="60" y="256" on="0"/>
        <pt x="60" y="342" on="1"/>
        <pt x="60" y="471" on="0"/>
        <pt x="134" y="606" on="0"/>
        <pt x="230" y="616" on="1"/>
        <pt x="230" y="696" on="1"/>
        <pt x="310" y="696" on="1"/>
        <pt x="310" y="617" on="1"/>
        <pt x="373" y="615" on="0"/>
        <pt x="413" y="603" on="1"/>
        <pt x="413" y="511" on="1"/>
        <pt x="375" y="518" on="0"/>
        <pt x="310" y="520" on="1"/>
        <pt x="310" y="165" on="1"/>
        <pt x="379" y="167" on="0"/>
        <pt x="418" y="175" on="1"/>
      </contour>
      <contour>
        <pt x="172" y="284" on="0"/>
        <pt x="181" y="217" on="0"/>
        <pt x="206" y="180" on="0"/>
        <pt x="230" y="173" on="1"/>
        <pt x="230" y="512" on="1"/>
        <pt x="206" y="505" on="0"/>
        <pt x="181" y="467" on="0"/>
        <pt x="172" y="401" on="0"/>
        <pt x="172" y="342" on="1"/>
      </contour>
    </TTGlyph>
    <TTGlyph name="circumflex" xMin="20" yMin="599" xMax="325" yMax="743">
      <contour>
        <pt x="20" y="606" on="1"/>
        <pt x="119" y="743" on="1"/>
        <pt x="226" y="743" on="1"/>
        <pt x="325" y="606" on="1"/>
        <pt x="325" y="599" on="1"/>
        <pt x="253" y="599" on="1"/>
        <pt x="172" y="689" on="1"/>
        <pt x="91" y="599" on="1"/>
        <pt x="20" y="599" on="1"/>
      </contour>
    </TTGlyph>
    <TTGlyph name="colon" xMin="64" yMin="0" xMax="184" yMax="510">
      <contour>
        <pt x="64" y="510" on="1"/>
        <pt x="184" y="510" on="1"/>
        <pt x="184" y="390" on="1"/>
        <pt x="64" y="390" on="1"/>
      </contour>
      <contour>
        <pt x="64" y="120" on="1"/>
        <pt x="184" y="120" on="1"/>
        <pt x="184" y="0" on="1"/>
        <pt x="64" y="0" on="1"/>
      </contour>
    </TTGlyph>
    <TTGlyph name="comma" xMin="47" yMin="-133" xMax="184" yMax="120">
      <contour>
        <pt x="86" y="-82" on="0"/>
        <pt x="111" y="-57" on="0"/>
        <pt x="111" y="-17" on="1"/>
        <pt x="111" y="0" on="1"/>
        <pt x="64" y="0" on="1"/>
        <pt x="64" y="120" on="1"/>
        <pt x="184" y="120" on="1"/>
        <pt x="184" y="33" on="1"/>
        <pt x="184" y="-39" on="0"/>
        <pt x="165" y="-107" on="0"/>
        <pt x="108" y="-133" on="0"/>
        <pt x="47" y="-133" on="1"/>
        <pt x="47" y="-82" on="1"/>
      </contour>
    </TTGlyph>
    <TTGlyph name="copyright" xMin="83" yMin="-8" xMax="656" yMax="696">
      <contour>
        <pt x="225" y="-8" on="0"/>
        <pt x="111" y="43" on="0"/>
        <pt x="83" y="175" on="0"/>
        <pt x="83" y="344" on="1"/>
        <pt x="83" y="512" on="0"/>
        <pt x="111" y="644" on="0"/>
        <pt x="226" y="696" on="0"/>
        <pt x="368" y="696" on="1"/>
        <pt x="511" y="696" on="0"/>
        <pt x="627" y="644" on="0"/>
        <pt x="656" y="512" on="0"/>
        <pt x="656" y="344" on="1"/>
        <pt x="656" y="176" on="0"/>
        <pt x="627" y="43" on="0"/>
        <pt x="511" y="-8" on="0"/>
        <pt x="368" y="-8" on="1"/>
      </contour>
      <contour>
        <pt x="494" y="42" on="0"/>
        <pt x="583" y="73" on="0"/>
        <pt x="606" y="184" on="0"/>
        <pt x="606" y="344" on="1"/>
        <pt x="606" y="503" on="0"/>
        <pt x="583" y="614" on="0"/>
        <pt x="494" y="645" on="0"/>
        <pt x="368" y="645" on="1"/>
        <pt x="243" y="645" on="0"/>
        <pt x="155" y="614" on="0"/>
        <pt x="132" y="503" on="0"/>
        <pt x="132" y="344" on="1"/>
        <pt x="132" y="184" on="0"/>
        <pt x="155" y="73" on="0"/>
        <pt x="243" y="42" on="0"/>
        <pt x="368" y="42" on="1"/>
      </contour>
      <contour>
        <pt x="324" y="153" on="0"/>
        <pt x="260" y="186" on="0"/>
        <pt x="239" y="264" on="0"/>
        <pt x="239" y="342" on="1"/>
        <pt x="239" y="420" on="0"/>
        <pt x="260" y="497" on="0"/>
        <pt x="324" y="531" on="0"/>
        <pt x="391" y="531" on="1"/>
        <pt x="415" y="531" on="0"/>
        <pt x="468" y="526" on="0"/>
        <pt x="482" y="522" on="1"/>
        <pt x="482" y="466" on="1"/>
        <pt x="440" y="471" on="0"/>
        <pt x="406" y="471" on="1"/>
        <pt x="356" y="471" on="0"/>
        <pt x="318" y="456" on="0"/>
        <pt x="307" y="407" on="0"/>
        <pt x="307" y="342" on="1"/>
        <pt x="307" y="277" on="0"/>
        <pt x="318" y="227" on="0"/>
        <pt x="356" y="212" on="0"/>
        <pt x="406" y="212" on="1"/>
        <pt x="449" y="212" on="0"/>
        <pt x="484" y="217" on="1"/>
        <pt x="484" y="160" on="1"/>
        <pt x="446" y="153" on="0"/>
        <pt x="391" y="153" on="1"/>
      </contour>
    </TTGlyph>
    <TTGlyph name="currency" xMin="59" yMin="-5" xMax="635" yMax="692">
      <contour>
        <pt x="59" y="59" on="1"/>
        <pt x="143" y="141" on="1"/>
        <pt x="128" y="170" on="0"/>
        <pt x="118" y="264" on="0"/>
        <pt x="118" y="345" on="1"/>
        <pt x="118" y="426" on="0"/>
        <pt x="127" y="518" on="0"/>
        <pt x="142" y="548" on="1"/>
        <pt x="59" y="628" on="1"/>
        <pt x="119" y="691" on="1"/>
        <pt x="209" y="603" on="1"/>
        <pt x="252" y="619" on="0"/>
        <pt x="346" y="619" on="1"/>
        <pt x="441" y="619" on="0"/>
        <pt x="484" y="603" on="1"/>
        <pt x="575" y="692" on="1"/>
        <pt x="634" y="629" on="1"/>
        <pt x="550" y="548" on="1"/>
        <pt x="565" y="518" on="0"/>
        <pt x="575" y="426" on="0"/>
        <pt x="575" y="345" on="1"/>
        <pt x="575" y="264" on="0"/>
        <pt x="565" y="170" on="0"/>
        <pt x="550" y="141" on="1"/>
        <pt x="635" y="59" on="1"/>
        <pt x="575" y="-5" on="1"/>
        <pt x="483" y="85" on="1"/>
        <pt x="440" y="69" on="0"/>
        <pt x="346" y="69" on="1"/>
        <pt x="252" y="69" on="0"/>
        <pt x="209" y="85" on="1"/>
        <pt x="119" y="-4" on="1"/>
      </contour>
      <contour>
        <pt x="409" y="163" on="0"/>
        <pt x="457" y="187" on="0"/>
        <pt x="468" y="254" on="0"/>
        <pt x="468" y="345" on="1"/>
        <pt x="468" y="436" on="0"/>
        <pt x="457" y="502" on="0"/>
        <pt x="409" y="525" on="0"/>
        <pt x="346" y="525" on="1"/>
        <pt x="283" y="525" on="0"/>
        <pt x="236" y="502" on="0"/>
        <pt x="225" y="436" on="0"/>
        <pt x="225" y="345" on="1"/>
        <pt x="225" y="254" on="0"/>
        <pt x="236" y="187" on="0"/>
        <pt x="284" y="163" on="0"/>
        <pt x="346" y="163" on="1"/>
      </contour>
    </TTGlyph>
    <TTGlyph name="d" xMin="59" yMin="-8" xMax="508" yMax="743">
      <contour>
        <pt x="171" y="-8" on="0"/>
        <pt x="93" y="39" on="0"/>
        <pt x="59" y="151" on="0"/>
        <pt x="59" y="254" on="1"/>
        <pt x="59" y="357" on="0"/>
        <pt x="93" y="470" on="0"/>
        <pt x="169" y="518" on="0"/>
        <pt x="238" y="518" on="1"/>
        <pt x="297" y="518" on="0"/>
        <pt x="375" y="489" on="0"/>
        <pt x="396" y="451" on="1"/>
        <pt x="402" y="451" on="1"/>
        <pt x="402" y="743" on="1"/>
        <pt x="508" y="743" on="1"/>
        <pt x="508" y="0" on="1"/>
        <pt x="411" y="0" on="1"/>
        <pt x="407" y="66" on="1"/>
        <pt x="401" y="66" on="1"/>
        <pt x="380" y="23" on="0"/>
        <pt x="297" y="-8" on="0"/>
        <pt x="241" y="-8" on="1"/>
      </contour>
      <contour>
        <pt x="328" y="92" on="0"/>
        <pt x="377" y="114" on="0"/>
        <pt x="388" y="138" on="1"/>
        <pt x="397" y="157" on="0"/>
        <pt x="402" y="211" on="0"/>
        <pt x="402" y="256" on="1"/>
        <pt x="402" y="300" on="0"/>
        <pt x="397" y="352" on="0"/>
        <pt x="389" y="370" on="1"/>
        <pt x="378" y="394" on="0"/>
        <pt x="328" y="417" on="0"/>
        <pt x="284" y="417" on="1"/>
        <pt x="228" y="417" on="0"/>
        <pt x="182" y="396" on="0"/>
        <pt x="166" y="331" on="0"/>
        <pt x="166" y="255" on="1"/>
        <pt x="166" y="178" on="0"/>
        <pt x="182" y="113" on="0"/>
        <pt x="229" y="92" on="0"/>
        <pt x="285" y="92" on="1"/>
      </contour>
    </TTGlyph>
    <TTGlyph name="dagger" xMin="59" yMin="0" xMax="412" yMax="688">
      <contour>
        <pt x="194" y="438" on="1"/>
        <pt x="59" y="446" on="1"/>
        <pt x="59" y="515" on="1"/>
        <pt x="194" y="524" on="1"/>
        <pt x="203" y="688" on="1"/>
        <pt x="269" y="688" on="1"/>
        <pt x="277" y="524" on="1"/>
        <pt x="412" y="515" on="1"/>
        <pt x="412" y="446" on="1"/>
        <pt x="277" y="438" on="1"/>
        <pt x="269" y="0" on="1"/>
        <pt x="203" y="0" on="1"/>
      </contour>
    </TTGlyph>
    <TTGlyph name="daggerdbl" xMin="59" yMin="0" xMax="412" yMax="688">
      <contour>
        <pt x="194" y="163" on="1"/>
        <pt x="59" y="171" on="1"/>
        <pt x="59" y="240" on="1"/>
        <pt x="194" y="249" on="1"/>
        <pt x="194" y="438" on="1"/>
        <pt x="59" y="446" on="1"/>
        <pt x="59" y="515" on="1"/>
        <pt x="194" y="524" on="1"/>
        <pt x="203" y="688" on="1"/>
        <pt x="269" y="688" on="1"/>
        <pt x="277" y="524" on="1"/>
        <pt x="412" y="515" on="1"/>
        <pt x="412" y="446" on="1"/>
        <pt x="277" y="438" on="1"/>
        <pt x="277" y="249" on="1"/>
        <pt x="412" y="240" on="1"/>
        <pt x="412" y="171" on="1"/>
        <pt x="277" y="163" on="1"/>
        <pt x="269" y="0" on="1"/>
        <pt x="203" y="0" on="1"/>
      </contour>
    </TTGlyph>
    <TTGlyph name="dcaron" xMin="59" yMin="-8" xMax="658" yMax="743">
      <component glyphName="d" x="0" y="0" flags="0x0"/>
      <component glyphName="caron.loclCSY" x="493" y="0" flags="0x0"/>
    </TTGlyph>
    <TTGlyph name="dcroat" xMin="59" yMin="-8" xMax="574" yMax="743">
      <contour>
        <pt x="574" y="596" on="1"/>
        <pt x="508" y="596" on="1"/>
        <pt x="508" y="0" on="1"/>
        <pt x="411" y="0" on="1"/>
        <pt x="407" y="66" on="1"/>
        <pt x="401" y="66" on="1"/>
        <pt x="380" y="23" on="0"/>
        <pt x="297" y="-8" on="0"/>
        <pt x="241" y="-8" on="1"/>
        <pt x="171" y="-8" on="0"/>
        <pt x="93" y="39" on="0"/>
        <pt x="59" y="151" on="0"/>
        <pt x="59" y="254" on="1"/>
        <pt x="59" y="357" on="0"/>
        <pt x="93" y="470" on="0"/>
        <pt x="169" y="518" on="0"/>
        <pt x="238" y="518" on="1"/>
        <pt x="297" y="518" on="0"/>
        <pt x="375" y="489" on="0"/>
        <pt x="396" y="451" on="1"/>
        <pt x="402" y="451" on="1"/>
        <pt x="402" y="596" on="1"/>
        <pt x="274" y="596" on="1"/>
        <pt x="274" y="688" on="1"/>
        <pt x="402" y="688" on="1"/>
        <pt x="402" y="743" on="1"/>
        <pt x="508" y="743" on="1"/>
        <pt x="508" y="688" on="1"/>
        <pt x="574" y="688" on="1"/>
      </contour>
      <contour>
        <pt x="397" y="157" on="0"/>
        <pt x="402" y="211" on="0"/>
        <pt x="402" y="256" on="1"/>
        <pt x="402" y="300" on="0"/>
        <pt x="397" y="352" on="0"/>
        <pt x="389" y="370" on="1"/>
        <pt x="378" y="394" on="0"/>
        <pt x="328" y="417" on="0"/>
        <pt x="284" y="417" on="1"/>
        <pt x="228" y="417" on="0"/>
        <pt x="182" y="396" on="0"/>
        <pt x="166" y="331" on="0"/>
        <pt x="166" y="255" on="1"/>
        <pt x="166" y="178" on="0"/>
        <pt x="182" y="113" on="0"/>
        <pt x="229" y="92" on="0"/>
        <pt x="285" y="92" on="1"/>
        <pt x="328" y="92" on="0"/>
        <pt x="377" y="114" on="0"/>
        <pt x="388" y="138" on="1"/>
      </contour>
    </TTGlyph>
    <TTGlyph name="degree" xMin="59" yMin="397" xMax="333" yMax="696">
      <contour>
        <pt x="132" y="397" on="0"/>
        <pt x="74" y="425" on="0"/>
        <pt x="59" y="484" on="0"/>
        <pt x="59" y="546" on="1"/>
        <pt x="59" y="608" on="0"/>
        <pt x="74" y="667" on="0"/>
        <pt x="132" y="696" on="0"/>
        <pt x="196" y="696" on="1"/>
        <pt x="260" y="696" on="0"/>
        <pt x="318" y="667" on="0"/>
        <pt x="333" y="608" on="0"/>
        <pt x="333" y="546" on="1"/>
        <pt x="333" y="484" on="0"/>
        <pt x="318" y="425" on="0"/>
        <pt x="260" y="397" on="0"/>
        <pt x="196" y="397" on="1"/>
      </contour>
      <contour>
        <pt x="230" y="454" on="0"/>
        <pt x="257" y="467" on="0"/>
        <pt x="263" y="501" on="0"/>
        <pt x="263" y="546" on="1"/>
        <pt x="263" y="591" on="0"/>
        <pt x="257" y="625" on="0"/>
        <pt x="230" y="639" on="0"/>
        <pt x="196" y="639" on="1"/>
        <pt x="162" y="639" on="0"/>
        <pt x="134" y="625" on="0"/>
        <pt x="128" y="591" on="0"/>
        <pt x="128" y="546" on="1"/>
        <pt x="128" y="501" on="0"/>
        <pt x="134" y="467" on="0"/>
        <pt x="161" y="454" on="0"/>
        <pt x="196" y="454" on="1"/>
      </contour>
    </TTGlyph>
    <TTGlyph name="dialog" xMin="59" yMin="-212" xMax="746" yMax="688">
      <contour>
        <pt x="306" y="-127" on="1"/>
        <pt x="494" y="60" on="1"/>
        <pt x="686" y="60" on="1"/>
        <pt x="686" y="628" on="1"/>
        <pt x="119" y="628" on="1"/>
        <pt x="119" y="60" on="1"/>
        <pt x="306" y="60" on="1"/>
        <pt x="306" y="0" on="1"/>
        <pt x="59" y="0" on="1"/>
        <pt x="59" y="688" on="1"/>
        <pt x="746" y="688" on="1"/>
        <pt x="746" y="0" on="1"/>
        <pt x="519" y="0" on="1"/>
        <pt x="306" y="-212" on="1"/>
      </contour>
    </TTGlyph>
    <TTGlyph name="dieresis" xMin="20" yMin="636" xMax="308" yMax="730">
      <contour>
        <pt x="20" y="730" on="1"/>
        <pt x="115" y="730" on="1"/>
        <pt x="115" y="636" on="1"/>
        <pt x="20" y="636" on="1"/>
      </contour>
      <contour>
        <pt x="214" y="730" on="1"/>
        <pt x="308" y="730" on="1"/>
        <pt x="308" y="636" on="1"/>
        <pt x="214" y="636" on="1"/>
      </contour>
    </TTGlyph>
    <TTGlyph name="divide" xMin="70" yMin="21" xMax="470" yMax="483">
      <contour>
        <pt x="227" y="483" on="1"/>
        <pt x="313" y="483" on="1"/>
        <pt x="313" y="395" on="1"/>
        <pt x="227" y="395" on="1"/>
      </contour>
      <contour>
        <pt x="70" y="297" on="1"/>
        <pt x="470" y="297" on="1"/>
        <pt x="470" y="208" on="1"/>
        <pt x="70" y="208" on="1"/>
      </contour>
      <contour>
        <pt x="227" y="110" on="1"/>
        <pt x="313" y="110" on="1"/>
        <pt x="313" y="21" on="1"/>
        <pt x="227" y="21" on="1"/>
      </contour>
    </TTGlyph>
    <TTGlyph name="dollar" xMin="63" yMin="-8" xMax="474" yMax="696">
      <contour>
        <pt x="474" y="172" on="0"/>
        <pt x="444" y="105" on="0"/>
        <pt x="374" y="74" on="0"/>
        <pt x="311" y="69" on="1"/>
        <pt x="311" y="-8" on="1"/>
        <pt x="232" y="-8" on="1"/>
        <pt x="232" y="68" on="1"/>
        <pt x="140" y="72" on="0"/>
        <pt x="80" y="83" on="1"/>
        <pt x="80" y="174" on="1"/>
        <pt x="110" y="172" on="1"/>
        <pt x="199" y="166" on="0"/>
        <pt x="232" y="165" on="1"/>
        <pt x="232" y="298" on="1"/>
        <pt x="179" y="305" on="1"/>
        <pt x="111" y="314" on="0"/>
        <pt x="63" y="389" on="0"/>
        <pt x="63" y="460" on="1"/>
        <pt x="63" y="540" on="0"/>
        <pt x="146" y="610" on="0"/>
        <pt x="232" y="616" on="1"/>
        <pt x="232" y="696" on="1"/>
        <pt x="311" y="696" on="1"/>
        <pt x="311" y="617" on="1"/>
        <pt x="385" y="616" on="0"/>
        <pt x="446" y="602" on="1"/>
        <pt x="446" y="511" on="1"/>
        <pt x="395" y="517" on="0"/>
        <pt x="311" y="521" on="1"/>
        <pt x="311" y="392" on="1"/>
        <pt x="368" y="385" on="1"/>
        <pt x="407" y="380" on="0"/>
        <pt x="452" y="352" on="0"/>
        <pt x="474" y="289" on="0"/>
        <pt x="474" y="231" on="1"/>
      </contour>
      <contour>
        <pt x="232" y="401" on="1"/>
        <pt x="232" y="520" on="1"/>
        <pt x="198" y="517" on="0"/>
        <pt x="169" y="492" on="0"/>
        <pt x="169" y="461" on="1"/>
        <pt x="169" y="435" on="0"/>
        <pt x="177" y="413" on="0"/>
        <pt x="197" y="405" on="0"/>
        <pt x="224" y="402" on="1"/>
      </contour>
      <contour>
        <pt x="348" y="171" on="0"/>
        <pt x="369" y="197" on="0"/>
        <pt x="369" y="228" on="1"/>
        <pt x="369" y="255" on="0"/>
        <pt x="360" y="277" on="0"/>
        <pt x="339" y="285" on="0"/>
        <pt x="311" y="288" on="1"/>
        <pt x="311" y="167" on="1"/>
      </contour>
    </TTGlyph>
    <TTGlyph name="dotaccent" xMin="20" yMin="636" xMax="115" yMax="730">
      <contour>
        <pt x="20" y="730" on="1"/>
        <pt x="115" y="730" on="1"/>
        <pt x="115" y="636" on="1"/>
        <pt x="20" y="636" on="1"/>
      </contour>
    </TTGlyph>
    <TTGlyph name="dotbelowcomb" xMin="-184" yMin="-182" xMax="-64" yMax="-62">
      <contour>
        <pt x="-184" y="-62" on="1"/>
        <pt x="-64" y="-62" on="1"/>
        <pt x="-64" y="-182" on="1"/>
        <pt x="-184" y="-182" on="1"/>
      </contour>
    </TTGlyph>
    <TTGlyph name="dotlessi" xMin="79" yMin="0" xMax="185" yMax="510">
      <contour>
        <pt x="79" y="510" on="1"/>
        <pt x="185" y="510" on="1"/>
        <pt x="185" y="0" on="1"/>
        <pt x="79" y="0" on="1"/>
      </contour>
    </TTGlyph>
    <TTGlyph name="e" xMin="59" yMin="-8" xMax="499" yMax="518">
      <contour>
        <pt x="499" y="217" on="1"/>
        <pt x="166" y="217" on="1"/>
        <pt x="166" y="156" on="0"/>
        <pt x="183" y="105" on="0"/>
        <pt x="246" y="85" on="0"/>
        <pt x="321" y="85" on="1"/>
        <pt x="387" y="85" on="0"/>
        <pt x="479" y="95" on="1"/>
        <pt x="479" y="7" on="1"/>
        <pt x="446" y="0" on="0"/>
        <pt x="344" y="-8" on="0"/>
        <pt x="296" y="-8" on="1"/>
        <pt x="189" y="-8" on="0"/>
        <pt x="89" y="41" on="0"/>
        <pt x="59" y="147" on="0"/>
        <pt x="59" y="254" on="1"/>
        <pt x="59" y="356" on="0"/>
        <pt x="89" y="464" on="0"/>
        <pt x="187" y="518" on="0"/>
        <pt x="289" y="518" on="1"/>
        <pt x="387" y="518" on="0"/>
        <pt x="476" y="464" on="0"/>
        <pt x="499" y="361" on="0"/>
        <pt x="499" y="254" on="1"/>
      </contour>
      <contour>
        <pt x="232" y="425" on="0"/>
        <pt x="183" y="404" on="0"/>
        <pt x="167" y="352" on="0"/>
        <pt x="166" y="294" on="1"/>
        <pt x="398" y="294" on="1"/>
        <pt x="398" y="296" on="1"/>
        <pt x="398" y="353" on="0"/>
        <pt x="378" y="407" on="0"/>
        <pt x="333" y="425" on="0"/>
        <pt x="286" y="425" on="1"/>
      </contour>
    </TTGlyph>
    <TTGlyph name="eacute" xMin="59" yMin="-8" xMax="499" yMax="743">
      <component glyphName="e" x="0" y="0" flags="0x0"/>
      <component glyphName="acute" x="217" y="0" flags="0x0"/>
    </TTGlyph>
    <TTGlyph name="ebreve" xMin="59" yMin="-8" xMax="499" yMax="743">
      <component glyphName="e" x="0" y="0" flags="0x0"/>
      <component glyphName="uni0306" x="443" y="0" flags="0x0"/>
    </TTGlyph>
    <TTGlyph name="ecaron" xMin="59" yMin="-8" xMax="499" yMax="743">
      <component glyphName="e" x="0" y="0" flags="0x0"/>
      <component glyphName="uni030C" x="453" y="0" flags="0x0"/>
    </TTGlyph>
    <TTGlyph name="ecircumflex" xMin="59" yMin="-8" xMax="499" yMax="743">
      <component glyphName="e" x="0" y="0" flags="0x0"/>
      <component glyphName="circumflex" x="110" y="0" flags="0x0"/>
    </TTGlyph>
    <TTGlyph name="edieresis" xMin="59" yMin="-8" xMax="499" yMax="730">
      <component glyphName="e" x="0" y="0" flags="0x0"/>
      <component glyphName="dieresis" x="121" y="0" flags="0x0"/>
    </TTGlyph>
    <TTGlyph name="edotaccent" xMin="59" yMin="-8" xMax="499" yMax="730">
      <component glyphName="e" x="0" y="0" flags="0x0"/>
      <component glyphName="uni0307" x="347" y="0" flags="0x0"/>
    </TTGlyph>
    <TTGlyph name="egrave" xMin="59" yMin="-8" xMax="499" yMax="743">
      <component glyphName="e" x="0" y="0" flags="0x0"/>
      <component glyphName="grave" x="108" y="0" flags="0x0"/>
    </TTGlyph>
    <TTGlyph name="eight" xMin="68" yMin="-8" xMax="615" yMax="696">
      <contour>
        <pt x="231" y="-8" on="0"/>
        <pt x="112" y="37" on="0"/>
        <pt x="68" y="119" on="0"/>
        <pt x="68" y="184" on="1"/>
        <pt x="68" y="240" on="0"/>
        <pt x="96" y="306" on="0"/>
        <pt x="149" y="339" on="0"/>
        <pt x="194" y="349" on="1"/>
        <pt x="194" y="353" on="1"/>
        <pt x="131" y="366" on="0"/>
        <pt x="74" y="441" on="0"/>
        <pt x="74" y="515" on="1"/>
        <pt x="74" y="577" on="0"/>
        <pt x="122" y="656" on="0"/>
        <pt x="239" y="696" on="0"/>
        <pt x="342" y="696" on="1"/>
        <pt x="444" y="696" on="0"/>
        <pt x="561" y="656" on="0"/>
        <pt x="609" y="577" on="0"/>
        <pt x="609" y="515" on="1"/>
        <pt x="609" y="441" on="0"/>
        <pt x="552" y="366" on="0"/>
        <pt x="490" y="353" on="1"/>
        <pt x="490" y="349" on="1"/>
        <pt x="534" y="339" on="0"/>
        <pt x="587" y="306" on="0"/>
        <pt x="615" y="240" on="0"/>
        <pt x="615" y="184" on="1"/>
        <pt x="615" y="119" on="0"/>
        <pt x="571" y="37" on="0"/>
        <pt x="452" y="-8" on="0"/>
        <pt x="342" y="-8" on="1"/>
      </contour>
      <contour>
        <pt x="407" y="398" on="0"/>
        <pt x="469" y="413" on="0"/>
        <pt x="494" y="454" on="0"/>
        <pt x="494" y="496" on="1"/>
        <pt x="494" y="539" on="0"/>
        <pt x="471" y="580" on="0"/>
        <pt x="408" y="595" on="0"/>
        <pt x="342" y="595" on="1"/>
        <pt x="276" y="595" on="0"/>
        <pt x="213" y="580" on="0"/>
        <pt x="190" y="539" on="0"/>
        <pt x="190" y="496" on="1"/>
        <pt x="190" y="454" on="0"/>
        <pt x="214" y="413" on="0"/>
        <pt x="277" y="398" on="0"/>
        <pt x="342" y="398" on="1"/>
      </contour>
      <contour>
        <pt x="409" y="94" on="0"/>
        <pt x="472" y="107" on="0"/>
        <pt x="500" y="148" on="0"/>
        <pt x="500" y="193" on="1"/>
        <pt x="500" y="240" on="0"/>
        <pt x="474" y="284" on="0"/>
        <pt x="410" y="298" on="0"/>
        <pt x="342" y="298" on="1"/>
        <pt x="273" y="298" on="0"/>
        <pt x="209" y="284" on="0"/>
        <pt x="184" y="240" on="0"/>
        <pt x="184" y="193" on="1"/>
        <pt x="184" y="148" on="0"/>
        <pt x="211" y="107" on="0"/>
        <pt x="274" y="94" on="0"/>
        <pt x="342" y="94" on="1"/>
      </contour>
    </TTGlyph>
    <TTGlyph name="eight.dnom" xMin="40" yMin="-4" xMax="354" yMax="383">
      <contour>
        <pt x="134" y="-4" on="0"/>
        <pt x="66" y="19" on="0"/>
        <pt x="40" y="64" on="0"/>
        <pt x="40" y="101" on="1"/>
        <pt x="40" y="146" on="0"/>
        <pt x="74" y="184" on="0"/>
        <pt x="112" y="192" on="1"/>
        <pt x="112" y="194" on="1"/>
        <pt x="76" y="201" on="0"/>
        <pt x="43" y="243" on="0"/>
        <pt x="43" y="284" on="1"/>
        <pt x="43" y="337" on="0"/>
        <pt x="111" y="383" on="0"/>
        <pt x="197" y="383" on="1"/>
        <pt x="256" y="383" on="0"/>
        <pt x="323" y="362" on="0"/>
        <pt x="350" y="320" on="0"/>
        <pt x="350" y="284" on="1"/>
        <pt x="350" y="243" on="0"/>
        <pt x="318" y="201" on="0"/>
        <pt x="283" y="194" on="1"/>
        <pt x="283" y="192" on="1"/>
        <pt x="321" y="184" on="0"/>
        <pt x="354" y="146" on="0"/>
        <pt x="354" y="101" on="1"/>
        <pt x="354" y="64" on="0"/>
        <pt x="329" y="19" on="0"/>
        <pt x="260" y="-4" on="0"/>
        <pt x="197" y="-4" on="1"/>
      </contour>
      <contour>
        <pt x="232" y="218" on="0"/>
        <pt x="264" y="226" on="0"/>
        <pt x="277" y="248" on="0"/>
        <pt x="277" y="271" on="1"/>
        <pt x="277" y="294" on="0"/>
        <pt x="265" y="317" on="0"/>
        <pt x="232" y="326" on="0"/>
        <pt x="198" y="326" on="1"/>
        <pt x="163" y="326" on="0"/>
        <pt x="129" y="317" on="0"/>
        <pt x="117" y="294" on="0"/>
        <pt x="117" y="271" on="1"/>
        <pt x="117" y="248" on="0"/>
        <pt x="130" y="226" on="0"/>
        <pt x="163" y="218" on="0"/>
        <pt x="198" y="218" on="1"/>
      </contour>
      <contour>
        <pt x="232" y="53" on="0"/>
        <pt x="266" y="61" on="0"/>
        <pt x="280" y="84" on="0"/>
        <pt x="280" y="108" on="1"/>
        <pt x="280" y="134" on="0"/>
        <pt x="267" y="157" on="0"/>
        <pt x="234" y="165" on="0"/>
        <pt x="198" y="165" on="1"/>
        <pt x="161" y="165" on="0"/>
        <pt x="127" y="157" on="0"/>
        <pt x="114" y="134" on="0"/>
        <pt x="114" y="108" on="1"/>
        <pt x="114" y="84" on="0"/>
        <pt x="129" y="61" on="0"/>
        <pt x="164" y="53" on="0"/>
        <pt x="198" y="53" on="1"/>
      </contour>
    </TTGlyph>
    <TTGlyph name="eight.numr" xMin="40" yMin="304" xMax="354" yMax="691">
      <component glyphName="eight.dnom" x="0" y="308" flags="0x4"/>
    </TTGlyph>
    <TTGlyph name="eight.tnum" xMin="57" yMin="-8" xMax="604" yMax="696">
      <contour>
        <pt x="220" y="-8" on="0"/>
        <pt x="101" y="37" on="0"/>
        <pt x="57" y="119" on="0"/>
        <pt x="57" y="184" on="1"/>
        <pt x="57" y="240" on="0"/>
        <pt x="85" y="306" on="0"/>
        <pt x="138" y="339" on="0"/>
        <pt x="183" y="349" on="1"/>
        <pt x="183" y="353" on="1"/>
        <pt x="120" y="366" on="0"/>
        <pt x="63" y="441" on="0"/>
        <pt x="63" y="515" on="1"/>
        <pt x="63" y="577" on="0"/>
        <pt x="111" y="656" on="0"/>
        <pt x="228" y="696" on="0"/>
        <pt x="331" y="696" on="1"/>
        <pt x="433" y="696" on="0"/>
        <pt x="550" y="656" on="0"/>
        <pt x="598" y="577" on="0"/>
        <pt x="598" y="515" on="1"/>
        <pt x="598" y="441" on="0"/>
        <pt x="541" y="366" on="0"/>
        <pt x="479" y="353" on="1"/>
        <pt x="479" y="349" on="1"/>
        <pt x="523" y="339" on="0"/>
        <pt x="576" y="306" on="0"/>
        <pt x="604" y="240" on="0"/>
        <pt x="604" y="184" on="1"/>
        <pt x="604" y="119" on="0"/>
        <pt x="560" y="37" on="0"/>
        <pt x="441" y="-8" on="0"/>
        <pt x="331" y="-8" on="1"/>
      </contour>
      <contour>
        <pt x="396" y="398" on="0"/>
        <pt x="458" y="413" on="0"/>
        <pt x="483" y="454" on="0"/>
        <pt x="483" y="496" on="1"/>
        <pt x="483" y="539" on="0"/>
        <pt x="460" y="580" on="0"/>
        <pt x="397" y="595" on="0"/>
        <pt x="331" y="595" on="1"/>
        <pt x="265" y="595" on="0"/>
        <pt x="202" y="580" on="0"/>
        <pt x="179" y="539" on="0"/>
        <pt x="179" y="496" on="1"/>
        <pt x="179" y="454" on="0"/>
        <pt x="203" y="413" on="0"/>
        <pt x="266" y="398" on="0"/>
        <pt x="331" y="398" on="1"/>
      </contour>
      <contour>
        <pt x="398" y="94" on="0"/>
        <pt x="461" y="107" on="0"/>
        <pt x="489" y="148" on="0"/>
        <pt x="489" y="193" on="1"/>
        <pt x="489" y="240" on="0"/>
        <pt x="463" y="284" on="0"/>
        <pt x="399" y="298" on="0"/>
        <pt x="331" y="298" on="1"/>
        <pt x="262" y="298" on="0"/>
        <pt x="198" y="284" on="0"/>
        <pt x="173" y="241" on="0"/>
        <pt x="173" y="193" on="1"/>
        <pt x="173" y="148" on="0"/>
        <pt x="200" y="107" on="0"/>
        <pt x="263" y="94" on="0"/>
        <pt x="331" y="94" on="1"/>
      </contour>
    </TTGlyph>
    <TTGlyph name="ellipsis" xMin="64" yMin="0" xMax="681" yMax="120">
      <contour>
        <pt x="64" y="120" on="1"/>
        <pt x="184" y="120" on="1"/>
        <pt x="184" y="0" on="1"/>
        <pt x="64" y="0" on="1"/>
      </contour>
      <contour>
        <pt x="312" y="120" on="1"/>
        <pt x="433" y="120" on="1"/>
        <pt x="433" y="0" on="1"/>
        <pt x="312" y="0" on="1"/>
      </contour>
      <contour>
        <pt x="561" y="120" on="1"/>
        <pt x="681" y="120" on="1"/>
        <pt x="681" y="0" on="1"/>
        <pt x="561" y="0" on="1"/>
      </contour>
    </TTGlyph>
    <TTGlyph name="emacron" xMin="59" yMin="-8" xMax="499" yMax="742">
      <component glyphName="e" x="0" y="0" flags="0x0"/>
      <component glyphName="uni0304" x="463" y="0" flags="0x0"/>
    </TTGlyph>
    <TTGlyph name="emdash" xMin="53" yMin="259" xMax="822" yMax="348">
      <contour>
        <pt x="53" y="348" on="1"/>
        <pt x="822" y="348" on="1"/>
        <pt x="822" y="259" on="1"/>
        <pt x="53" y="259" on="1"/>
      </contour>
    </TTGlyph>
    <TTGlyph name="endash" xMin="53" yMin="259" xMax="421" yMax="348">
      <contour>
        <pt x="53" y="348" on="1"/>
        <pt x="421" y="348" on="1"/>
        <pt x="421" y="259" on="1"/>
        <pt x="53" y="259" on="1"/>
      </contour>
    </TTGlyph>
    <TTGlyph name="eng" xMin="79" yMin="-200" xMax="517" yMax="518">
      <contour>
        <pt x="420" y="518" on="0"/>
        <pt x="492" y="474" on="0"/>
        <pt x="517" y="391" on="0"/>
        <pt x="517" y="319" on="1"/>
        <pt x="517" y="-36" on="1"/>
        <pt x="517" y="-112" on="0"/>
        <pt x="483" y="-180" on="0"/>
        <pt x="404" y="-200" on="0"/>
        <pt x="319" y="-200" on="1"/>
        <pt x="319" y="-114" on="1"/>
        <pt x="362" y="-114" on="0"/>
        <pt x="400" y="-104" on="0"/>
        <pt x="411" y="-82" on="0"/>
        <pt x="411" y="-59" on="1"/>
        <pt x="411" y="274" on="1"/>
        <pt x="411" y="343" on="0"/>
        <pt x="397" y="400" on="0"/>
        <pt x="355" y="417" on="0"/>
        <pt x="303" y="417" on="1"/>
        <pt x="251" y="417" on="0"/>
        <pt x="200" y="385" on="0"/>
        <pt x="185" y="322" on="0"/>
        <pt x="185" y="263" on="1"/>
        <pt x="185" y="0" on="1"/>
        <pt x="79" y="0" on="1"/>
        <pt x="79" y="510" on="1"/>
        <pt x="177" y="510" on="1"/>
        <pt x="180" y="443" on="1"/>
        <pt x="188" y="443" on="1"/>
        <pt x="206" y="481" on="0"/>
        <pt x="283" y="518" on="0"/>
        <pt x="350" y="518" on="1"/>
      </contour>
    </TTGlyph>
    <TTGlyph name="eogonek" xMin="59" yMin="-196" xMax="499" yMax="518">
      <contour>
        <pt x="499" y="217" on="1"/>
        <pt x="166" y="217" on="1"/>
        <pt x="166" y="156" on="0"/>
        <pt x="183" y="105" on="0"/>
        <pt x="246" y="85" on="0"/>
        <pt x="321" y="85" on="1"/>
        <pt x="387" y="85" on="0"/>
        <pt x="479" y="95" on="1"/>
        <pt x="479" y="7" on="1"/>
        <pt x="449" y="-11" on="0"/>
        <pt x="399" y="-68" on="0"/>
        <pt x="399" y="-93" on="1"/>
        <pt x="399" y="-108" on="0"/>
        <pt x="420" y="-127" on="0"/>
        <pt x="444" y="-127" on="1"/>
        <pt x="463" y="-126" on="1"/>
        <pt x="463" y="-193" on="1"/>
        <pt x="461" y="-193" on="0"/>
        <pt x="432" y="-196" on="0"/>
        <pt x="414" y="-196" on="1"/>
        <pt x="308" y="-196" on="0"/>
        <pt x="308" y="-120" on="1"/>
        <pt x="308" y="-63" on="0"/>
        <pt x="371" y="-6" on="1"/>
        <pt x="321" y="-8" on="0"/>
        <pt x="296" y="-8" on="1"/>
        <pt x="189" y="-8" on="0"/>
        <pt x="89" y="41" on="0"/>
        <pt x="59" y="147" on="0"/>
        <pt x="59" y="254" on="1"/>
        <pt x="59" y="356" on="0"/>
        <pt x="89" y="464" on="0"/>
        <pt x="187" y="518" on="0"/>
        <pt x="289" y="518" on="1"/>
        <pt x="387" y="518" on="0"/>
        <pt x="476" y="464" on="0"/>
        <pt x="499" y="361" on="0"/>
        <pt x="499" y="254" on="1"/>
      </contour>
      <contour>
        <pt x="232" y="425" on="0"/>
        <pt x="183" y="404" on="0"/>
        <pt x="167" y="352" on="0"/>
        <pt x="166" y="294" on="1"/>
        <pt x="398" y="294" on="1"/>
        <pt x="398" y="296" on="1"/>
        <pt x="398" y="353" on="0"/>
        <pt x="378" y="407" on="0"/>
        <pt x="333" y="425" on="0"/>
        <pt x="286" y="425" on="1"/>
      </contour>
    </TTGlyph>
    <TTGlyph name="equal" xMin="70" yMin="107" xMax="470" yMax="398">
      <contour>
        <pt x="70" y="398" on="1"/>
        <pt x="470" y="398" on="1"/>
        <pt x="470" y="308" on="1"/>
        <pt x="70" y="308" on="1"/>
      </contour>
      <contour>
        <pt x="70" y="197" on="1"/>
        <pt x="470" y="197" on="1"/>
        <pt x="470" y="107" on="1"/>
        <pt x="70" y="107" on="1"/>
      </contour>
    </TTGlyph>
    <TTGlyph name="estimated" xMin="69" yMin="-8" xMax="644" yMax="696">
      <contour>
        <pt x="494" y="696" on="0"/>
        <pt x="612" y="639" on="0"/>
        <pt x="644" y="502" on="0"/>
        <pt x="644" y="344" on="1"/>
        <pt x="644" y="323" on="1"/>
        <pt x="182" y="323" on="1"/>
        <pt x="183" y="168" on="0"/>
        <pt x="204" y="55" on="0"/>
        <pt x="275" y="26" on="0"/>
        <pt x="373" y="26" on="1"/>
        <pt x="468" y="26" on="0"/>
        <pt x="555" y="48" on="0"/>
        <pt x="593" y="120" on="0"/>
        <pt x="598" y="200" on="1"/>
        <pt x="634" y="200" on="1"/>
        <pt x="629" y="109" on="0"/>
        <pt x="584" y="24" on="0"/>
        <pt x="472" y="-8" on="0"/>
        <pt x="356" y="-8" on="1"/>
        <pt x="218" y="-8" on="0"/>
        <pt x="101" y="49" on="0"/>
        <pt x="69" y="185" on="0"/>
        <pt x="69" y="344" on="1"/>
        <pt x="69" y="503" on="0"/>
        <pt x="101" y="639" on="0"/>
        <pt x="218" y="696" on="0"/>
        <pt x="356" y="696" on="1"/>
      </contour>
      <contour>
        <pt x="265" y="662" on="0"/>
        <pt x="201" y="632" on="0"/>
        <pt x="182" y="517" on="0"/>
        <pt x="182" y="357" on="1"/>
        <pt x="531" y="357" on="1"/>
        <pt x="531" y="516" on="0"/>
        <pt x="511" y="632" on="0"/>
        <pt x="447" y="662" on="0"/>
        <pt x="356" y="662" on="1"/>
      </contour>
    </TTGlyph>
    <TTGlyph name="eth" xMin="59" yMin="-8" xMax="517" yMax="743">
      <contour>
        <pt x="181" y="-8" on="0"/>
        <pt x="86" y="39" on="0"/>
        <pt x="59" y="142" on="0"/>
        <pt x="59" y="254" on="1"/>
        <pt x="59" y="357" on="0"/>
        <pt x="83" y="463" on="0"/>
        <pt x="169" y="517" on="0"/>
        <pt x="260" y="517" on="1"/>
        <pt x="332" y="517" on="0"/>
        <pt x="377" y="497" on="1"/>
        <pt x="381" y="500" on="1"/>
        <pt x="357" y="559" on="0"/>
        <pt x="326" y="604" on="1"/>
        <pt x="210" y="586" on="1"/>
        <pt x="210" y="658" on="1"/>
        <pt x="282" y="669" on="1"/>
        <pt x="249" y="705" on="0"/>
        <pt x="211" y="739" on="1"/>
        <pt x="211" y="743" on="1"/>
        <pt x="326" y="743" on="1"/>
        <pt x="333" y="737" on="0"/>
        <pt x="369" y="703" on="0"/>
        <pt x="385" y="686" on="1"/>
        <pt x="497" y="704" on="1"/>
        <pt x="497" y="633" on="1"/>
        <pt x="429" y="621" on="1"/>
        <pt x="480" y="543" on="0"/>
        <pt x="499" y="450" on="1"/>
        <pt x="517" y="369" on="0"/>
        <pt x="517" y="267" on="1"/>
        <pt x="517" y="146" on="0"/>
        <pt x="491" y="39" on="0"/>
        <pt x="397" y="-8" on="0"/>
        <pt x="288" y="-8" on="1"/>
      </contour>
      <contour>
        <pt x="352" y="85" on="0"/>
        <pt x="400" y="107" on="0"/>
        <pt x="411" y="169" on="0"/>
        <pt x="411" y="254" on="1"/>
        <pt x="411" y="333" on="0"/>
        <pt x="400" y="396" on="0"/>
        <pt x="349" y="424" on="0"/>
        <pt x="288" y="424" on="1"/>
        <pt x="225" y="424" on="0"/>
        <pt x="177" y="401" on="0"/>
        <pt x="166" y="340" on="0"/>
        <pt x="166" y="254" on="1"/>
        <pt x="166" y="169" on="0"/>
        <pt x="177" y="107" on="0"/>
        <pt x="225" y="85" on="0"/>
        <pt x="288" y="85" on="1"/>
      </contour>
    </TTGlyph>
    <TTGlyph name="exclam" xMin="80" yMin="0" xMax="205" yMax="688">
      <contour>
        <pt x="98" y="271" on="0"/>
        <pt x="80" y="562" on="0"/>
        <pt x="80" y="615" on="1"/>
        <pt x="80" y="688" on="1"/>
        <pt x="205" y="688" on="1"/>
        <pt x="205" y="615" on="1"/>
        <pt x="205" y="562" on="0"/>
        <pt x="187" y="271" on="0"/>
        <pt x="183" y="214" on="1"/>
        <pt x="102" y="214" on="1"/>
      </contour>
      <contour>
        <pt x="83" y="120" on="1"/>
        <pt x="202" y="120" on="1"/>
        <pt x="202" y="0" on="1"/>
        <pt x="83" y="0" on="1"/>
      </contour>
    </TTGlyph>
    <TTGlyph name="exclam.case" xMin="80" yMin="0" xMax="205" yMax="688">
      <component glyphName="exclam" x="0" y="0" flags="0x0"/>
    </TTGlyph>
    <TTGlyph name="exclam.ss02" xMin="45" yMin="-8" xMax="749" yMax="696">
      <contour>
        <pt x="302" y="-8" on="0"/>
        <pt x="140" y="87" on="0"/>
        <pt x="45" y="249" on="0"/>
        <pt x="45" y="344" on="1"/>
        <pt x="45" y="439" on="0"/>
        <pt x="140" y="601" on="0"/>
        <pt x="302" y="696" on="0"/>
        <pt x="397" y="696" on="1"/>
        <pt x="492" y="696" on="0"/>
        <pt x="654" y="601" on="0"/>
        <pt x="749" y="439" on="0"/>
        <pt x="749" y="344" on="1"/>
        <pt x="749" y="249" on="0"/>
        <pt x="654" y="87" on="0"/>
        <pt x="492" y="-8" on="0"/>
        <pt x="397" y="-8" on="1"/>
      </contour>
      <contour>
        <pt x="480" y="37" on="0"/>
        <pt x="621" y="120" on="0"/>
        <pt x="704" y="261" on="0"/>
        <pt x="704" y="344" on="1"/>
        <pt x="704" y="427" on="0"/>
        <pt x="621" y="568" on="0"/>
        <pt x="480" y="651" on="0"/>
        <pt x="397" y="651" on="1"/>
        <pt x="314" y="651" on="0"/>
        <pt x="173" y="568" on="0"/>
        <pt x="90" y="427" on="0"/>
        <pt x="90" y="344" on="1"/>
        <pt x="90" y="261" on="0"/>
        <pt x="173" y="120" on="0"/>
        <pt x="314" y="37" on="0"/>
        <pt x="397" y="37" on="1"/>
      </contour>
      <contour>
        <pt x="375" y="272" on="0"/>
        <pt x="363" y="405" on="0"/>
        <pt x="363" y="480" on="1"/>
        <pt x="363" y="579" on="1"/>
        <pt x="431" y="579" on="1"/>
        <pt x="431" y="480" on="1"/>
        <pt x="431" y="405" on="0"/>
        <pt x="419" y="272" on="0"/>
        <pt x="417" y="268" on="1"/>
        <pt x="377" y="268" on="1"/>
      </contour>
      <contour>
        <pt x="363" y="191" on="1"/>
        <pt x="431" y="191" on="1"/>
        <pt x="431" y="109" on="1"/>
        <pt x="363" y="109" on="1"/>
      </contour>
    </TTGlyph>
    <TTGlyph name="exclamdbl" xMin="80" yMin="0" xMax="428" yMax="688">
      <component glyphName="exclam" x="223" y="0" flags="0x0"/>
      <component glyphName="exclam" x="0" y="0" flags="0x0"/>
    </TTGlyph>
    <TTGlyph name="exclamdown" xMin="71" yMin="-178" xMax="196" yMax="510">
      <contour>
        <pt x="73" y="510" on="1"/>
        <pt x="193" y="510" on="1"/>
        <pt x="193" y="390" on="1"/>
        <pt x="73" y="390" on="1"/>
      </contour>
      <contour>
        <pt x="71" y="-105" on="1"/>
        <pt x="71" y="-52" on="0"/>
        <pt x="89" y="239" on="0"/>
        <pt x="93" y="296" on="1"/>
        <pt x="174" y="296" on="1"/>
        <pt x="178" y="239" on="0"/>
        <pt x="196" y="-52" on="0"/>
        <pt x="196" y="-105" on="1"/>
        <pt x="196" y="-178" on="1"/>
        <pt x="71" y="-178" on="1"/>
      </contour>
    </TTGlyph>
    <TTGlyph name="exclamdown.case" xMin="71" yMin="0" xMax="196" yMax="688">
      <component glyphName="exclamdown" x="0" y="178" flags="0x4"/>
    </TTGlyph>
    <TTGlyph name="f" xMin="24" yMin="0" xMax="361" yMax="742">
      <contour>
        <pt x="126" y="416" on="1"/>
        <pt x="24" y="416" on="1"/>
        <pt x="24" y="510" on="1"/>
        <pt x="126" y="510" on="1"/>
        <pt x="126" y="568" on="1"/>
        <pt x="126" y="651" on="0"/>
        <pt x="167" y="723" on="0"/>
        <pt x="258" y="742" on="0"/>
        <pt x="361" y="742" on="1"/>
        <pt x="361" y="657" on="1"/>
        <pt x="302" y="657" on="0"/>
        <pt x="251" y="648" on="0"/>
        <pt x="232" y="619" on="0"/>
        <pt x="232" y="587" on="1"/>
        <pt x="232" y="510" on="1"/>
        <pt x="361" y="510" on="1"/>
        <pt x="361" y="416" on="1"/>
        <pt x="232" y="416" on="1"/>
        <pt x="232" y="0" on="1"/>
        <pt x="126" y="0" on="1"/>
      </contour>
    </TTGlyph>
    <TTGlyph name="f_f" xMin="24" yMin="0" xMax="749" yMax="742">
      <component glyphName="f" x="0" y="0" flags="0x0"/>
      <component glyphName="f" x="388" y="0" flags="0x0"/>
    </TTGlyph>
    <TTGlyph name="fi" xMin="24" yMin="0" xMax="576" yMax="743">
      <component glyphName="f" x="0" y="0" flags="0x0"/>
      <component glyphName="i" x="388" y="0" flags="0x0"/>
    </TTGlyph>
    <TTGlyph name="five" xMin="78" yMin="-8" xMax="558" yMax="688">
      <contour>
        <pt x="201" y="94" on="0"/>
        <pt x="280" y="94" on="1"/>
        <pt x="349" y="94" on="0"/>
        <pt x="417" y="113" on="0"/>
        <pt x="443" y="161" on="0"/>
        <pt x="443" y="207" on="1"/>
        <pt x="443" y="258" on="0"/>
        <pt x="415" y="304" on="0"/>
        <pt x="345" y="318" on="0"/>
        <pt x="270" y="318" on="1"/>
        <pt x="234" y="318" on="0"/>
        <pt x="131" y="311" on="0"/>
        <pt x="86" y="305" on="1"/>
        <pt x="86" y="688" on="1"/>
        <pt x="507" y="688" on="1"/>
        <pt x="507" y="585" on="1"/>
        <pt x="188" y="585" on="1"/>
        <pt x="188" y="411" on="1"/>
        <pt x="264" y="419" on="0"/>
        <pt x="332" y="419" on="1"/>
        <pt x="424" y="419" on="0"/>
        <pt x="522" y="375" on="0"/>
        <pt x="558" y="290" on="0"/>
        <pt x="558" y="219" on="1"/>
        <pt x="558" y="133" on="0"/>
        <pt x="514" y="37" on="0"/>
        <pt x="398" y="-8" on="0"/>
        <pt x="289" y="-8" on="1"/>
        <pt x="240" y="-8" on="0"/>
        <pt x="120" y="3" on="0"/>
        <pt x="78" y="12" on="1"/>
        <pt x="78" y="106" on="1"/>
      </contour>
    </TTGlyph>
    <TTGlyph name="five.dnom" xMin="48" yMin="-4" xMax="324" yMax="378">
      <contour>
        <pt x="120" y="55" on="0"/>
        <pt x="159" y="55" on="1"/>
        <pt x="198" y="55" on="0"/>
        <pt x="236" y="65" on="0"/>
        <pt x="250" y="89" on="0"/>
        <pt x="250" y="115" on="1"/>
        <pt x="250" y="142" on="0"/>
        <pt x="235" y="166" on="0"/>
        <pt x="196" y="174" on="0"/>
        <pt x="153" y="174" on="1"/>
        <pt x="122" y="174" on="0"/>
        <pt x="52" y="168" on="1"/>
        <pt x="52" y="378" on="1"/>
        <pt x="295" y="378" on="1"/>
        <pt x="295" y="318" on="1"/>
        <pt x="117" y="318" on="1"/>
        <pt x="117" y="227" on="1"/>
        <pt x="148" y="233" on="0"/>
        <pt x="198" y="233" on="1"/>
        <pt x="249" y="233" on="0"/>
        <pt x="304" y="207" on="0"/>
        <pt x="324" y="160" on="0"/>
        <pt x="324" y="121" on="1"/>
        <pt x="324" y="75" on="0"/>
        <pt x="298" y="21" on="0"/>
        <pt x="231" y="-4" on="0"/>
        <pt x="169" y="-4" on="1"/>
        <pt x="106" y="-4" on="0"/>
        <pt x="48" y="6" on="1"/>
        <pt x="48" y="61" on="1"/>
      </contour>
    </TTGlyph>
    <TTGlyph name="five.numr" xMin="48" yMin="304" xMax="324" yMax="686">
      <contour>
        <pt x="120" y="363" on="0"/>
        <pt x="159" y="363" on="1"/>
        <pt x="198" y="363" on="0"/>
        <pt x="236" y="373" on="0"/>
        <pt x="250" y="397" on="0"/>
        <pt x="250" y="423" on="1"/>
        <pt x="250" y="450" on="0"/>
        <pt x="235" y="474" on="0"/>
        <pt x="196" y="482" on="0"/>
        <pt x="153" y="482" on="1"/>
        <pt x="122" y="482" on="0"/>
        <pt x="52" y="476" on="1"/>
        <pt x="52" y="686" on="1"/>
        <pt x="295" y="686" on="1"/>
        <pt x="295" y="626" on="1"/>
        <pt x="117" y="626" on="1"/>
        <pt x="117" y="535" on="1"/>
        <pt x="149" y="541" on="0"/>
        <pt x="198" y="541" on="1"/>
        <pt x="249" y="541" on="0"/>
        <pt x="304" y="515" on="0"/>
        <pt x="324" y="468" on="0"/>
        <pt x="324" y="429" on="1"/>
        <pt x="324" y="383" on="0"/>
        <pt x="298" y="329" on="0"/>
        <pt x="231" y="304" on="0"/>
        <pt x="169" y="304" on="1"/>
        <pt x="106" y="304" on="0"/>
        <pt x="48" y="314" on="1"/>
        <pt x="48" y="369" on="1"/>
      </contour>
    </TTGlyph>
    <TTGlyph name="five.tnum" xMin="100" yMin="-8" xMax="580" yMax="688">
      <contour>
        <pt x="225" y="94" on="0"/>
        <pt x="302" y="94" on="1"/>
        <pt x="371" y="94" on="0"/>
        <pt x="440" y="113" on="0"/>
        <pt x="466" y="161" on="0"/>
        <pt x="466" y="207" on="1"/>
        <pt x="466" y="258" on="0"/>
        <pt x="437" y="304" on="0"/>
        <pt x="367" y="318" on="0"/>
        <pt x="292" y="318" on="1"/>
        <pt x="257" y="318" on="0"/>
        <pt x="153" y="311" on="0"/>
        <pt x="108" y="305" on="1"/>
        <pt x="108" y="688" on="1"/>
        <pt x="529" y="688" on="1"/>
        <pt x="529" y="585" on="1"/>
        <pt x="211" y="585" on="1"/>
        <pt x="211" y="411" on="1"/>
        <pt x="285" y="419" on="0"/>
        <pt x="354" y="419" on="1"/>
        <pt x="446" y="419" on="0"/>
        <pt x="544" y="375" on="0"/>
        <pt x="580" y="290" on="0"/>
        <pt x="580" y="219" on="1"/>
        <pt x="580" y="133" on="0"/>
        <pt x="536" y="37" on="0"/>
        <pt x="421" y="-8" on="0"/>
        <pt x="312" y="-8" on="1"/>
        <pt x="263" y="-8" on="0"/>
        <pt x="143" y="3" on="0"/>
        <pt x="100" y="12" on="1"/>
        <pt x="100" y="106" on="1"/>
      </contour>
    </TTGlyph>
    <TTGlyph name="fiveeighths" xMin="48" yMin="-4" xMax="866" yMax="688">
      <component glyphName="five.numr" x="0" y="0" flags="0x0"/>
      <component glyphName="fraction" x="362" y="0" flags="0x0"/>
      <component glyphName="eight.dnom" x="512" y="0" flags="0x0"/>
    </TTGlyph>
    <TTGlyph name="fl" xMin="24" yMin="0" xMax="573" yMax="743">
      <component glyphName="f" x="0" y="0" flags="0x0"/>
      <component glyphName="l" x="388" y="0" flags="0x0"/>
    </TTGlyph>
    <TTGlyph name="florin" xMin="-128" yMin="-192" xMax="435" yMax="742">
      <contour>
        <pt x="349" y="656" on="0"/>
        <pt x="295" y="640" on="0"/>
        <pt x="273" y="596" on="0"/>
        <pt x="261" y="534" on="1"/>
        <pt x="256" y="512" on="1"/>
        <pt x="256" y="510" on="1"/>
        <pt x="385" y="510" on="1"/>
        <pt x="367" y="416" on="1"/>
        <pt x="236" y="416" on="1"/>
        <pt x="151" y="22" on="1"/>
        <pt x="128" y="-84" on="0"/>
        <pt x="75" y="-170" on="0"/>
        <pt x="-17" y="-192" on="0"/>
        <pt x="-128" y="-192" on="1"/>
        <pt x="-111" y="-107" on="1"/>
        <pt x="-53" y="-107" on="0"/>
        <pt x="0" y="-97" on="0"/>
        <pt x="25" y="-69" on="0"/>
        <pt x="33" y="-36" on="1"/>
        <pt x="131" y="416" on="1"/>
        <pt x="30" y="416" on="1"/>
        <pt x="48" y="510" on="1"/>
        <pt x="149" y="510" on="1"/>
        <pt x="149" y="511" on="1"/>
        <pt x="174" y="625" on="0"/>
        <pt x="227" y="717" on="0"/>
        <pt x="322" y="742" on="0"/>
        <pt x="435" y="742" on="1"/>
        <pt x="418" y="656" on="1"/>
      </contour>
    </TTGlyph>
    <TTGlyph name="four" xMin="42" yMin="0" xMax="605" yMax="688">
      <contour>
        <pt x="395" y="151" on="1"/>
        <pt x="42" y="151" on="1"/>
        <pt x="42" y="241" on="1"/>
        <pt x="306" y="688" on="1"/>
        <pt x="430" y="688" on="1"/>
        <pt x="166" y="252" on="1"/>
        <pt x="395" y="252" on="1"/>
        <pt x="422" y="460" on="1"/>
        <pt x="507" y="460" on="1"/>
        <pt x="507" y="252" on="1"/>
        <pt x="605" y="252" on="1"/>
        <pt x="605" y="151" on="1"/>
        <pt x="507" y="151" on="1"/>
        <pt x="507" y="0" on="1"/>
        <pt x="395" y="0" on="1"/>
      </contour>
    </TTGlyph>
    <TTGlyph name="four.dnom" xMin="25" yMin="0" xMax="348" yMax="378">
      <contour>
        <pt x="223" y="81" on="1"/>
        <pt x="25" y="81" on="1"/>
        <pt x="25" y="134" on="1"/>
        <pt x="162" y="378" on="1"/>
        <pt x="241" y="378" on="1"/>
        <pt x="102" y="140" on="1"/>
        <pt x="225" y="140" on="1"/>
        <pt x="244" y="250" on="1"/>
        <pt x="295" y="250" on="1"/>
        <pt x="295" y="140" on="1"/>
        <pt x="348" y="140" on="1"/>
        <pt x="348" y="81" on="1"/>
        <pt x="295" y="81" on="1"/>
        <pt x="295" y="0" on="1"/>
        <pt x="223" y="0" on="1"/>
      </contour>
    </TTGlyph>
    <TTGlyph name="four.numr" xMin="25" yMin="308" xMax="348" yMax="686">
      <component glyphName="four.dnom" x="0" y="308" flags="0x4"/>
    </TTGlyph>
    <TTGlyph name="four.ss01" xMin="42" yMin="0" xMax="605" yMax="688">
      <contour>
        <pt x="395" y="150" on="1"/>
        <pt x="42" y="150" on="1"/>
        <pt x="42" y="245" on="1"/>
        <pt x="351" y="688" on="1"/>
        <pt x="507" y="688" on="1"/>
        <pt x="507" y="253" on="1"/>
        <pt x="605" y="253" on="1"/>
        <pt x="605" y="150" on="1"/>
        <pt x="507" y="150" on="1"/>
        <pt x="507" y="0" on="1"/>
        <pt x="395" y="0" on="1"/>
      </contour>
      <contour>
        <pt x="395" y="253" on="1"/>
        <pt x="395" y="583" on="1"/>
        <pt x="392" y="583" on="1"/>
        <pt x="156" y="253" on="1"/>
      </contour>
    </TTGlyph>
    <TTGlyph name="four.tnum" xMin="48" yMin="0" xMax="611" yMax="688">
      <contour>
        <pt x="400" y="151" on="1"/>
        <pt x="48" y="151" on="1"/>
        <pt x="48" y="241" on="1"/>
        <pt x="312" y="688" on="1"/>
        <pt x="436" y="688" on="1"/>
        <pt x="172" y="252" on="1"/>
        <pt x="401" y="252" on="1"/>
        <pt x="428" y="460" on="1"/>
        <pt x="513" y="460" on="1"/>
        <pt x="513" y="252" on="1"/>
        <pt x="611" y="252" on="1"/>
        <pt x="611" y="151" on="1"/>
        <pt x="513" y="151" on="1"/>
        <pt x="513" y="0" on="1"/>
        <pt x="400" y="0" on="1"/>
      </contour>
    </TTGlyph>
    <TTGlyph name="fraction" xMin="-189" yMin="0" xMax="338" yMax="688">
      <contour>
        <pt x="261" y="688" on="1"/>
        <pt x="338" y="688" on="1"/>
        <pt x="-111" y="0" on="1"/>
        <pt x="-189" y="0" on="1"/>
      </contour>
    </TTGlyph>
    <TTGlyph name="g" xMin="59" yMin="-206" xMax="508" yMax="518">
      <contour>
        <pt x="221" y="-206" on="0"/>
        <pt x="122" y="-200" on="0"/>
        <pt x="93" y="-196" on="1"/>
        <pt x="93" y="-108" on="1"/>
        <pt x="177" y="-112" on="0"/>
        <pt x="245" y="-112" on="1"/>
        <pt x="319" y="-112" on="0"/>
        <pt x="383" y="-89" on="0"/>
        <pt x="402" y="-30" on="0"/>
        <pt x="402" y="38" on="1"/>
        <pt x="402" y="64" on="1"/>
        <pt x="397" y="64" on="1"/>
        <pt x="377" y="26" on="0"/>
        <pt x="300" y="-3" on="0"/>
        <pt x="241" y="-3" on="1"/>
        <pt x="171" y="-3" on="0"/>
        <pt x="93" y="43" on="0"/>
        <pt x="59" y="153" on="0"/>
        <pt x="59" y="255" on="1"/>
        <pt x="59" y="358" on="0"/>
        <pt x="93" y="471" on="0"/>
        <pt x="172" y="518" on="0"/>
        <pt x="242" y="518" on="1"/>
        <pt x="297" y="518" on="0"/>
        <pt x="380" y="486" on="0"/>
        <pt x="401" y="443" on="1"/>
        <pt x="407" y="443" on="1"/>
        <pt x="411" y="510" on="1"/>
        <pt x="508" y="510" on="1"/>
        <pt x="508" y="62" on="1"/>
        <pt x="508" y="-44" on="0"/>
        <pt x="477" y="-153" on="0"/>
        <pt x="376" y="-206" on="0"/>
        <pt x="270" y="-206" on="1"/>
      </contour>
      <contour>
        <pt x="325" y="95" on="0"/>
        <pt x="373" y="114" on="0"/>
        <pt x="385" y="133" on="1"/>
        <pt x="396" y="151" on="0"/>
        <pt x="402" y="206" on="0"/>
        <pt x="402" y="256" on="1"/>
        <pt x="402" y="306" on="0"/>
        <pt x="396" y="361" on="0"/>
        <pt x="385" y="379" on="1"/>
        <pt x="373" y="399" on="0"/>
        <pt x="325" y="418" on="0"/>
        <pt x="285" y="418" on="1"/>
        <pt x="229" y="418" on="0"/>
        <pt x="182" y="397" on="0"/>
        <pt x="166" y="333" on="0"/>
        <pt x="166" y="256" on="1"/>
        <pt x="166" y="180" on="0"/>
        <pt x="182" y="116" on="0"/>
        <pt x="229" y="95" on="0"/>
        <pt x="285" y="95" on="1"/>
      </contour>
    </TTGlyph>
    <TTGlyph name="g_tilde.loclGUA" xMin="59" yMin="-206" xMax="508" yMax="744">
      <component glyphName="g" x="0" y="0" flags="0x0"/>
      <component glyphName="tildecomb" x="500" y="0" flags="0x0"/>
    </TTGlyph>
    <TTGlyph name="gbreve" xMin="59" yMin="-206" xMax="508" yMax="743">
      <component glyphName="g" x="0" y="0" flags="0x0"/>
      <component glyphName="uni0306" x="457" y="0" flags="0x0"/>
    </TTGlyph>
    <TTGlyph name="gcaron" xMin="59" yMin="-206" xMax="508" yMax="743">
      <component glyphName="g" x="0" y="0" flags="0x0"/>
      <component glyphName="uni030C" x="467" y="0" flags="0x0"/>
    </TTGlyph>
    <TTGlyph name="gcircumflex" xMin="59" yMin="-206" xMax="508" yMax="743">
      <component glyphName="g" x="0" y="0" flags="0x0"/>
      <component glyphName="uni0302" x="467" y="0" flags="0x0"/>
    </TTGlyph>
    <TTGlyph name="gcommaaccent" xMin="59" yMin="-206" xMax="508" yMax="822">
      <component glyphName="g" x="0" y="0" flags="0x0"/>
      <component glyphName="uni0312" x="681" y="0" flags="0x0"/>
    </TTGlyph>
    <TTGlyph name="gdotaccent" xMin="59" yMin="-206" xMax="508" yMax="730">
      <component glyphName="g" x="0" y="0" flags="0x0"/>
      <component glyphName="uni0307" x="361" y="0" flags="0x0"/>
    </TTGlyph>
    <TTGlyph name="germandbls" xMin="79" yMin="0" xMax="545" yMax="750">
      <contour>
        <pt x="267" y="0" on="1"/>
        <pt x="267" y="93" on="1"/>
        <pt x="311" y="93" on="1"/>
        <pt x="373" y="93" on="0"/>
        <pt x="422" y="110" on="0"/>
        <pt x="439" y="168" on="0"/>
        <pt x="439" y="242" on="1"/>
        <pt x="439" y="305" on="0"/>
        <pt x="417" y="365" on="0"/>
        <pt x="366" y="385" on="0"/>
        <pt x="314" y="385" on="1"/>
        <pt x="288" y="385" on="1"/>
        <pt x="288" y="479" on="1"/>
        <pt x="314" y="479" on="1"/>
        <pt x="360" y="479" on="0"/>
        <pt x="409" y="493" on="0"/>
        <pt x="430" y="527" on="0"/>
        <pt x="430" y="559" on="1"/>
        <pt x="430" y="601" on="0"/>
        <pt x="409" y="641" on="0"/>
        <pt x="358" y="656" on="0"/>
        <pt x="307" y="656" on="1"/>
        <pt x="260" y="656" on="0"/>
        <pt x="210" y="639" on="0"/>
        <pt x="185" y="586" on="0"/>
        <pt x="185" y="532" on="1"/>
        <pt x="185" y="0" on="1"/>
        <pt x="79" y="0" on="1"/>
        <pt x="79" y="549" on="1"/>
        <pt x="79" y="619" on="0"/>
        <pt x="123" y="707" on="0"/>
        <pt x="224" y="750" on="0"/>
        <pt x="312" y="750" on="1"/>
        <pt x="400" y="750" on="0"/>
        <pt x="498" y="711" on="0"/>
        <pt x="536" y="634" on="0"/>
        <pt x="536" y="573" on="1"/>
        <pt x="536" y="512" on="0"/>
        <pt x="480" y="448" on="0"/>
        <pt x="420" y="438" on="1"/>
        <pt x="420" y="434" on="1"/>
        <pt x="484" y="422" on="0"/>
        <pt x="545" y="335" on="0"/>
        <pt x="545" y="240" on="1"/>
        <pt x="545" y="148" on="0"/>
        <pt x="513" y="48" on="0"/>
        <pt x="422" y="0" on="0"/>
        <pt x="331" y="0" on="1"/>
      </contour>
    </TTGlyph>
    <TTGlyph name="grave" xMin="20" yMin="600" xMax="229" yMax="743">
      <contour>
        <pt x="20" y="738" on="1"/>
        <pt x="20" y="743" on="1"/>
        <pt x="130" y="743" on="1"/>
        <pt x="229" y="605" on="1"/>
        <pt x="229" y="600" on="1"/>
        <pt x="151" y="600" on="1"/>
      </contour>
    </TTGlyph>
    <TTGlyph name="gravecomb" xMin="-229" yMin="600" xMax="-20" yMax="743">
      <contour>
        <pt x="-229" y="738" on="1"/>
        <pt x="-229" y="743" on="1"/>
        <pt x="-119" y="743" on="1"/>
        <pt x="-20" y="605" on="1"/>
        <pt x="-20" y="600" on="1"/>
        <pt x="-98" y="600" on="1"/>
      </contour>
    </TTGlyph>
    <TTGlyph name="gravecomb.case" xMin="-229" yMin="745" xMax="-20" yMax="888">
      <contour>
        <pt x="-229" y="883" on="1"/>
        <pt x="-229" y="888" on="1"/>
        <pt x="-119" y="888" on="1"/>
        <pt x="-20" y="750" on="1"/>
        <pt x="-20" y="745" on="1"/>
        <pt x="-98" y="745" on="1"/>
      </contour>
    </TTGlyph>
    <TTGlyph name="greater" xMin="70" yMin="44" xMax="470" yMax="462">
      <contour>
        <pt x="70" y="136" on="1"/>
        <pt x="381" y="253" on="1"/>
        <pt x="70" y="369" on="1"/>
        <pt x="70" y="462" on="1"/>
        <pt x="470" y="301" on="1"/>
        <pt x="470" y="204" on="1"/>
        <pt x="70" y="44" on="1"/>
      </contour>
    </TTGlyph>
    <TTGlyph name="greaterequal" xMin="70" yMin="-1" xMax="470" yMax="591">
      <contour>
        <pt x="70" y="265" on="1"/>
        <pt x="381" y="382" on="1"/>
        <pt x="70" y="499" on="1"/>
        <pt x="70" y="591" on="1"/>
        <pt x="470" y="430" on="1"/>
        <pt x="470" y="334" on="1"/>
        <pt x="70" y="173" on="1"/>
      </contour>
      <contour>
        <pt x="70" y="88" on="1"/>
        <pt x="470" y="88" on="1"/>
        <pt x="470" y="-1" on="1"/>
        <pt x="70" y="-1" on="1"/>
      </contour>
    </TTGlyph>
    <TTGlyph name="guillemotleft" xMin="39" yMin="98" xMax="421" yMax="510">
      <contour>
        <pt x="39" y="304" on="1"/>
        <pt x="171" y="510" on="1"/>
        <pt x="244" y="510" on="1"/>
        <pt x="133" y="304" on="1"/>
        <pt x="244" y="98" on="1"/>
        <pt x="171" y="98" on="1"/>
      </contour>
      <contour>
        <pt x="216" y="304" on="1"/>
        <pt x="348" y="510" on="1"/>
        <pt x="421" y="510" on="1"/>
        <pt x="310" y="304" on="1"/>
        <pt x="421" y="98" on="1"/>
        <pt x="348" y="98" on="1"/>
      </contour>
    </TTGlyph>
    <TTGlyph name="guillemotright" xMin="63" yMin="98" xMax="445" yMax="510">
      <contour>
        <pt x="174" y="304" on="1"/>
        <pt x="63" y="510" on="1"/>
        <pt x="136" y="510" on="1"/>
        <pt x="268" y="304" on="1"/>
        <pt x="136" y="98" on="1"/>
        <pt x="63" y="98" on="1"/>
      </contour>
      <contour>
        <pt x="351" y="304" on="1"/>
        <pt x="240" y="510" on="1"/>
        <pt x="313" y="510" on="1"/>
        <pt x="445" y="304" on="1"/>
        <pt x="313" y="98" on="1"/>
        <pt x="240" y="98" on="1"/>
      </contour>
    </TTGlyph>
    <TTGlyph name="guilsinglleft" xMin="38" yMin="98" xMax="243" yMax="510">
      <contour>
        <pt x="38" y="304" on="1"/>
        <pt x="171" y="510" on="1"/>
        <pt x="243" y="510" on="1"/>
        <pt x="132" y="304" on="1"/>
        <pt x="243" y="98" on="1"/>
        <pt x="171" y="98" on="1"/>
      </contour>
    </TTGlyph>
    <TTGlyph name="guilsinglright" xMin="63" yMin="98" xMax="269" yMax="510">
      <contour>
        <pt x="174" y="304" on="1"/>
        <pt x="63" y="510" on="1"/>
        <pt x="137" y="510" on="1"/>
        <pt x="269" y="304" on="1"/>
        <pt x="137" y="98" on="1"/>
        <pt x="63" y="98" on="1"/>
      </contour>
    </TTGlyph>
    <TTGlyph name="h" xMin="79" yMin="0" xMax="517" yMax="743">
      <contour>
        <pt x="411" y="274" on="1"/>
        <pt x="411" y="343" on="0"/>
        <pt x="397" y="400" on="0"/>
        <pt x="355" y="417" on="0"/>
        <pt x="303" y="417" on="1"/>
        <pt x="251" y="417" on="0"/>
        <pt x="200" y="385" on="0"/>
        <pt x="185" y="322" on="0"/>
        <pt x="185" y="263" on="1"/>
        <pt x="185" y="0" on="1"/>
        <pt x="79" y="0" on="1"/>
        <pt x="79" y="743" on="1"/>
        <pt x="185" y="743" on="1"/>
        <pt x="185" y="448" on="1"/>
        <pt x="192" y="448" on="1"/>
        <pt x="210" y="483" on="0"/>
        <pt x="284" y="517" on="0"/>
        <pt x="349" y="517" on="1"/>
        <pt x="420" y="517" on="0"/>
        <pt x="492" y="474" on="0"/>
        <pt x="517" y="390" on="0"/>
        <pt x="517" y="318" on="1"/>
        <pt x="517" y="0" on="1"/>
        <pt x="411" y="0" on="1"/>
      </contour>
    </TTGlyph>
    <TTGlyph name="hbar" xMin="13" yMin="0" xMax="517" yMax="743">
      <contour>
        <pt x="420" y="517" on="0"/>
        <pt x="492" y="474" on="0"/>
        <pt x="517" y="390" on="0"/>
        <pt x="517" y="318" on="1"/>
        <pt x="517" y="0" on="1"/>
        <pt x="411" y="0" on="1"/>
        <pt x="411" y="274" on="1"/>
        <pt x="411" y="343" on="0"/>
        <pt x="397" y="400" on="0"/>
        <pt x="355" y="417" on="0"/>
        <pt x="303" y="417" on="1"/>
        <pt x="251" y="417" on="0"/>
        <pt x="200" y="385" on="0"/>
        <pt x="185" y="322" on="0"/>
        <pt x="185" y="263" on="1"/>
        <pt x="185" y="0" on="1"/>
        <pt x="79" y="0" on="1"/>
        <pt x="79" y="596" on="1"/>
        <pt x="13" y="596" on="1"/>
        <pt x="13" y="688" on="1"/>
        <pt x="79" y="688" on="1"/>
        <pt x="79" y="743" on="1"/>
        <pt x="185" y="743" on="1"/>
        <pt x="185" y="688" on="1"/>
        <pt x="314" y="688" on="1"/>
        <pt x="314" y="596" on="1"/>
        <pt x="185" y="596" on="1"/>
        <pt x="185" y="448" on="1"/>
        <pt x="192" y="448" on="1"/>
        <pt x="210" y="483" on="0"/>
        <pt x="284" y="517" on="0"/>
        <pt x="349" y="517" on="1"/>
      </contour>
    </TTGlyph>
    <TTGlyph name="hcircumflex" xMin="-21" yMin="0" xMax="517" yMax="921">
      <component glyphName="h" x="0" y="0" flags="0x0"/>
      <component glyphName="uni0302" x="305" y="178" flags="0x4"/>
    </TTGlyph>
    <TTGlyph name="hookabovecomb" xMin="-280" yMin="608" xMax="-25" yMax="811">
      <contour>
        <pt x="-210" y="616" on="1"/>
        <pt x="-210" y="645" on="0"/>
        <pt x="-192" y="667" on="0"/>
        <pt x="-164" y="674" on="1"/>
        <pt x="-143" y="680" on="1"/>
        <pt x="-113" y="688" on="0"/>
        <pt x="-96" y="702" on="0"/>
        <pt x="-96" y="718" on="1"/>
        <pt x="-96" y="741" on="0"/>
        <pt x="-125" y="752" on="0"/>
        <pt x="-168" y="752" on="1"/>
        <pt x="-210" y="752" on="0"/>
        <pt x="-280" y="748" on="1"/>
        <pt x="-280" y="802" on="1"/>
        <pt x="-221" y="811" on="0"/>
        <pt x="-160" y="811" on="1"/>
        <pt x="-111" y="811" on="0"/>
        <pt x="-55" y="800" on="0"/>
        <pt x="-25" y="764" on="0"/>
        <pt x="-25" y="726" on="1"/>
        <pt x="-25" y="689" on="0"/>
        <pt x="-52" y="658" on="0"/>
        <pt x="-90" y="647" on="1"/>
        <pt x="-112" y="641" on="1"/>
        <pt x="-139" y="634" on="0"/>
        <pt x="-150" y="623" on="0"/>
        <pt x="-150" y="608" on="1"/>
        <pt x="-210" y="608" on="1"/>
      </contour>
    </TTGlyph>
    <TTGlyph name="hookabovecomb.case" xMin="-280" yMin="733" xMax="-25" yMax="936">
      <contour>
        <pt x="-210" y="741" on="1"/>
        <pt x="-210" y="770" on="0"/>
        <pt x="-192" y="792" on="0"/>
        <pt x="-164" y="800" on="1"/>
        <pt x="-143" y="806" on="1"/>
        <pt x="-113" y="814" on="0"/>
        <pt x="-96" y="827" on="0"/>
        <pt x="-96" y="843" on="1"/>
        <pt x="-96" y="860" on="0"/>
        <pt x="-111" y="875" on="0"/>
        <pt x="-142" y="878" on="0"/>
        <pt x="-177" y="878" on="1"/>
        <pt x="-228" y="878" on="0"/>
        <pt x="-280" y="873" on="1"/>
        <pt x="-280" y="927" on="1"/>
        <pt x="-221" y="936" on="0"/>
        <pt x="-160" y="936" on="1"/>
        <pt x="-110" y="936" on="0"/>
        <pt x="-55" y="926" on="0"/>
        <pt x="-25" y="889" on="0"/>
        <pt x="-25" y="851" on="1"/>
        <pt x="-25" y="814" on="0"/>
        <pt x="-52" y="784" on="0"/>
        <pt x="-90" y="773" on="1"/>
        <pt x="-112" y="767" on="1"/>
        <pt x="-139" y="760" on="0"/>
        <pt x="-150" y="749" on="0"/>
        <pt x="-150" y="733" on="1"/>
        <pt x="-210" y="733" on="1"/>
      </contour>
    </TTGlyph>
    <TTGlyph name="house" xMin="52" yMin="0" xMax="693" yMax="696">
      <contour>
        <pt x="52" y="419" on="1"/>
        <pt x="334" y="696" on="1"/>
        <pt x="411" y="696" on="1"/>
        <pt x="693" y="419" on="1"/>
        <pt x="693" y="0" on="1"/>
        <pt x="53" y="0" on="1"/>
      </contour>
      <contour>
        <pt x="613" y="70" on="1"/>
        <pt x="614" y="391" on="1"/>
        <pt x="373" y="628" on="1"/>
        <pt x="131" y="391" on="1"/>
        <pt x="132" y="70" on="1"/>
      </contour>
    </TTGlyph>
    <TTGlyph name="hungarumlaut" xMin="20" yMin="608" xMax="397" yMax="736">
      <contour>
        <pt x="20" y="613" on="1"/>
        <pt x="111" y="736" on="1"/>
        <pt x="204" y="736" on="1"/>
        <pt x="204" y="731" on="1"/>
        <pt x="86" y="608" on="1"/>
        <pt x="20" y="608" on="1"/>
      </contour>
      <contour>
        <pt x="212" y="613" on="1"/>
        <pt x="302" y="736" on="1"/>
        <pt x="397" y="736" on="1"/>
        <pt x="397" y="731" on="1"/>
        <pt x="278" y="608" on="1"/>
        <pt x="212" y="608" on="1"/>
      </contour>
    </TTGlyph>
    <TTGlyph name="hyphen" xMin="56" yMin="235" xMax="310" yMax="335">
      <contour>
        <pt x="56" y="335" on="1"/>
        <pt x="310" y="335" on="1"/>
        <pt x="310" y="235" on="1"/>
        <pt x="56" y="235" on="1"/>
      </contour>
    </TTGlyph>
    <TTGlyph name="i" xMin="77" yMin="0" xMax="188" yMax="743">
      <contour>
        <pt x="77" y="743" on="1"/>
        <pt x="188" y="743" on="1"/>
        <pt x="188" y="635" on="1"/>
        <pt x="77" y="635" on="1"/>
      </contour>
      <contour>
        <pt x="79" y="510" on="1"/>
        <pt x="185" y="510" on="1"/>
        <pt x="185" y="0" on="1"/>
        <pt x="79" y="0" on="1"/>
      </contour>
    </TTGlyph>
    <TTGlyph name="i.loclTRK" xMin="79" yMin="0" xMax="185" yMax="730">
      <component glyphName="dotlessi" x="0" y="0" flags="0x0"/>
      <component glyphName="uni0307" x="199" y="0" flags="0x0"/>
    </TTGlyph>
    <TTGlyph name="iacute" xMin="79" yMin="0" xMax="290" yMax="743">
      <component glyphName="dotlessi" x="0" y="0" flags="0x0"/>
      <component glyphName="acute" x="61" y="0" flags="0x0"/>
    </TTGlyph>
    <TTGlyph name="iacute_j.loclNLD" xMin="79" yMin="-200" xMax="559" yMax="743">
      <component glyphName="dotlessi" x="0" y="0" flags="0x0"/>
      <component glyphName="acutecomb" x="314" y="0" flags="0x0"/>
      <component glyphName="uni0237" x="265" y="0" flags="0x0"/>
      <component glyphName="acutecomb" x="579" y="0" flags="0x0"/>
    </TTGlyph>
    <TTGlyph name="ibreve" xMin="-11" yMin="0" xMax="275" yMax="743">
      <component glyphName="dotlessi" x="0" y="0" flags="0x0"/>
      <component glyphName="uni0306" x="295" y="0" flags="0x0"/>
    </TTGlyph>
    <TTGlyph name="icircumflex" xMin="-20" yMin="0" xMax="285" yMax="743">
      <component glyphName="dotlessi" x="0" y="0" flags="0x0"/>
      <component glyphName="circumflex" x="-40" y="0" flags="0x0"/>
    </TTGlyph>
    <TTGlyph name="idieresis" xMin="-11" yMin="0" xMax="277" yMax="730">
      <component glyphName="dotlessi" x="0" y="0" flags="0x0"/>
      <component glyphName="dieresis" x="-31" y="0" flags="0x0"/>
    </TTGlyph>
    <TTGlyph name="igrave" xMin="-23" yMin="0" xMax="186" yMax="743">
      <component glyphName="dotlessi" x="0" y="0" flags="0x0"/>
      <component glyphName="grave" x="-43" y="0" flags="0x0"/>
    </TTGlyph>
    <TTGlyph name="ij" xMin="77" yMin="-200" xMax="453" yMax="743">
      <component glyphName="i" x="0" y="0" flags="0x0"/>
      <component glyphName="j" x="265" y="0" flags="0x0"/>
    </TTGlyph>
    <TTGlyph name="imacron" xMin="5" yMin="0" xMax="259" yMax="742">
      <component glyphName="dotlessi" x="0" y="0" flags="0x0"/>
      <component glyphName="uni0304" x="315" y="0" flags="0x0"/>
    </TTGlyph>
    <TTGlyph name="infinity" xMin="60" yMin="46" xMax="978" yMax="466">
      <contour>
        <pt x="195" y="46" on="0"/>
        <pt x="97" y="93" on="0"/>
        <pt x="60" y="184" on="0"/>
        <pt x="60" y="256" on="1"/>
        <pt x="60" y="327" on="0"/>
        <pt x="97" y="418" on="0"/>
        <pt x="195" y="466" on="0"/>
        <pt x="284" y="466" on="1"/>
        <pt x="379" y="466" on="0"/>
        <pt x="487" y="393" on="0"/>
        <pt x="520" y="330" on="1"/>
        <pt x="554" y="394" on="0"/>
        <pt x="660" y="466" on="0"/>
        <pt x="756" y="466" on="1"/>
        <pt x="845" y="466" on="0"/>
        <pt x="942" y="418" on="0"/>
        <pt x="978" y="328" on="0"/>
        <pt x="978" y="256" on="1"/>
        <pt x="978" y="183" on="0"/>
        <pt x="942" y="93" on="0"/>
        <pt x="845" y="46" on="0"/>
        <pt x="756" y="46" on="1"/>
        <pt x="660" y="46" on="0"/>
        <pt x="553" y="118" on="0"/>
        <pt x="520" y="182" on="1"/>
        <pt x="487" y="118" on="0"/>
        <pt x="380" y="46" on="0"/>
        <pt x="284" y="46" on="1"/>
      </contour>
      <contour>
        <pt x="369" y="129" on="0"/>
        <pt x="450" y="197" on="0"/>
        <pt x="474" y="256" on="1"/>
        <pt x="450" y="315" on="0"/>
        <pt x="369" y="383" on="0"/>
        <pt x="288" y="383" on="1"/>
        <pt x="228" y="383" on="0"/>
        <pt x="166" y="357" on="0"/>
        <pt x="143" y="304" on="0"/>
        <pt x="143" y="256" on="1"/>
        <pt x="143" y="208" on="0"/>
        <pt x="166" y="154" on="0"/>
        <pt x="228" y="129" on="0"/>
        <pt x="288" y="129" on="1"/>
      </contour>
      <contour>
        <pt x="812" y="129" on="0"/>
        <pt x="872" y="154" on="0"/>
        <pt x="894" y="207" on="0"/>
        <pt x="894" y="256" on="1"/>
        <pt x="894" y="304" on="0"/>
        <pt x="872" y="357" on="0"/>
        <pt x="812" y="383" on="0"/>
        <pt x="753" y="383" on="1"/>
        <pt x="671" y="383" on="0"/>
        <pt x="589" y="315" on="0"/>
        <pt x="566" y="256" on="1"/>
        <pt x="589" y="197" on="0"/>
        <pt x="671" y="129" on="0"/>
        <pt x="753" y="129" on="1"/>
      </contour>
    </TTGlyph>
    <TTGlyph name="integral" xMin="42" yMin="-190" xMax="351" yMax="696">
      <contour>
        <pt x="42" y="-105" on="1"/>
        <pt x="95" y="-105" on="0"/>
        <pt x="145" y="-98" on="0"/>
        <pt x="166" y="-75" on="0"/>
        <pt x="166" y="-51" on="1"/>
        <pt x="166" y="-30" on="0"/>
        <pt x="163" y="-7" on="1"/>
        <pt x="121" y="521" on="1"/>
        <pt x="119" y="551" on="0"/>
        <pt x="119" y="561" on="1"/>
        <pt x="119" y="623" on="0"/>
        <pt x="165" y="681" on="0"/>
        <pt x="257" y="696" on="0"/>
        <pt x="351" y="696" on="1"/>
        <pt x="351" y="611" on="1"/>
        <pt x="298" y="611" on="0"/>
        <pt x="247" y="604" on="0"/>
        <pt x="226" y="581" on="0"/>
        <pt x="226" y="557" on="1"/>
        <pt x="228" y="520" on="1"/>
        <pt x="271" y="-14" on="1"/>
        <pt x="273" y="-50" on="0"/>
        <pt x="273" y="-55" on="1"/>
        <pt x="273" y="-117" on="0"/>
        <pt x="227" y="-175" on="0"/>
        <pt x="135" y="-190" on="0"/>
        <pt x="42" y="-190" on="1"/>
      </contour>
    </TTGlyph>
    <TTGlyph name="iogonek" xMin="31" yMin="-196" xMax="186" yMax="730">
      <contour>
        <pt x="179" y="636" on="1"/>
        <pt x="84" y="636" on="1"/>
        <pt x="84" y="730" on="1"/>
        <pt x="179" y="730" on="1"/>
      </contour>
      <contour>
        <pt x="186" y="-126" on="1"/>
        <pt x="186" y="-193" on="1"/>
        <pt x="153" y="-196" on="0"/>
        <pt x="138" y="-196" on="1"/>
        <pt x="31" y="-196" on="0"/>
        <pt x="31" y="-119" on="1"/>
        <pt x="31" y="-61" on="0"/>
        <pt x="92" y="0" on="1"/>
        <pt x="79" y="0" on="1"/>
        <pt x="79" y="510" on="1"/>
        <pt x="185" y="510" on="1"/>
        <pt x="185" y="0" on="1"/>
        <pt x="162" y="-15" on="0"/>
        <pt x="122" y="-69" on="0"/>
        <pt x="122" y="-92" on="1"/>
        <pt x="122" y="-127" on="0"/>
        <pt x="168" y="-127" on="1"/>
      </contour>
    </TTGlyph>
    <TTGlyph name="itilde" xMin="-55" yMin="0" xMax="317" yMax="744">
      <component glyphName="dotlessi" x="0" y="0" flags="0x0"/>
      <component glyphName="tildecomb" x="338" y="0" flags="0x0"/>
    </TTGlyph>
    <TTGlyph name="j" xMin="-13" yMin="-200" xMax="188" yMax="743">
      <contour>
        <pt x="77" y="743" on="1"/>
        <pt x="188" y="743" on="1"/>
        <pt x="188" y="635" on="1"/>
        <pt x="77" y="635" on="1"/>
      </contour>
      <contour>
        <pt x="-13" y="-114" on="1"/>
        <pt x="30" y="-114" on="0"/>
        <pt x="68" y="-104" on="0"/>
        <pt x="79" y="-82" on="0"/>
        <pt x="79" y="-59" on="1"/>
        <pt x="79" y="510" on="1"/>
        <pt x="185" y="510" on="1"/>
        <pt x="185" y="-36" on="1"/>
        <pt x="185" y="-112" on="0"/>
        <pt x="151" y="-180" on="0"/>
        <pt x="72" y="-200" on="0"/>
        <pt x="-13" y="-200" on="1"/>
      </contour>
    </TTGlyph>
    <TTGlyph name="jcircumflex" xMin="-21" yMin="-200" xMax="284" yMax="743">
      <component glyphName="uni0237" x="0" y="0" flags="0x0"/>
      <component glyphName="uni0302" x="305" y="0" flags="0x0"/>
    </TTGlyph>
    <TTGlyph name="k" xMin="79" yMin="0" xMax="522" yMax="743">
      <contour>
        <pt x="239" y="209" on="1"/>
        <pt x="185" y="209" on="1"/>
        <pt x="185" y="0" on="1"/>
        <pt x="79" y="0" on="1"/>
        <pt x="79" y="743" on="1"/>
        <pt x="185" y="743" on="1"/>
        <pt x="185" y="304" on="1"/>
        <pt x="239" y="304" on="1"/>
        <pt x="402" y="510" on="1"/>
        <pt x="519" y="510" on="1"/>
        <pt x="324" y="264" on="1"/>
        <pt x="522" y="0" on="1"/>
        <pt x="400" y="0" on="1"/>
      </contour>
    </TTGlyph>
    <TTGlyph name="kcommaaccent" xMin="79" yMin="-283" xMax="522" yMax="743">
      <component glyphName="k" x="0" y="0" flags="0x0"/>
      <component glyphName="uni0326" x="403" y="0" flags="0x0"/>
    </TTGlyph>
    <TTGlyph name="kgreenlandic" xMin="79" yMin="0" xMax="522" yMax="510">
      <contour>
        <pt x="239" y="209" on="1"/>
        <pt x="185" y="209" on="1"/>
        <pt x="185" y="0" on="1"/>
        <pt x="79" y="0" on="1"/>
        <pt x="79" y="510" on="1"/>
        <pt x="185" y="510" on="1"/>
        <pt x="185" y="304" on="1"/>
        <pt x="239" y="304" on="1"/>
        <pt x="402" y="510" on="1"/>
        <pt x="519" y="510" on="1"/>
        <pt x="324" y="264" on="1"/>
        <pt x="522" y="0" on="1"/>
        <pt x="400" y="0" on="1"/>
      </contour>
    </TTGlyph>
    <TTGlyph name="l" xMin="79" yMin="0" xMax="185" yMax="743">
      <contour>
        <pt x="79" y="743" on="1"/>
        <pt x="185" y="743" on="1"/>
        <pt x="185" y="0" on="1"/>
        <pt x="79" y="0" on="1"/>
      </contour>
    </TTGlyph>
    <TTGlyph name="lacute" xMin="79" yMin="0" xMax="294" yMax="921">
      <component glyphName="l" x="0" y="0" flags="0x0"/>
      <component glyphName="acutecomb" x="314" y="178" flags="0x4"/>
    </TTGlyph>
    <TTGlyph name="lcaron" xMin="79" yMin="0" xMax="335" yMax="743">
      <component glyphName="l" x="0" y="0" flags="0x0"/>
      <component glyphName="caron.loclCSY" x="170" y="0" flags="0x0"/>
    </TTGlyph>
    <TTGlyph name="lcommaaccent" xMin="66" yMin="-283" xMax="197" yMax="743">
      <component glyphName="l" x="0" y="0" flags="0x0"/>
      <component glyphName="uni0326" x="261" y="0" flags="0x0"/>
    </TTGlyph>
</ttFont>
